<svg width="24" height="24" viewBox="0 0 24 24" fill="none" xmlns="http://www.w3.org/2000/svg">
<path opacity="0.3" d="M20.7524 8.79267C20.2992 6.82621 19.1809 5.07654 17.5866 3.83937C15.9924 2.60221 14.0198 1.95342 12.0024 2.00267C9.98638 1.95292 8.01492 2.60029 6.42082 3.83549C4.82672 5.07069 3.70761 6.81807 3.25241 8.78267C2.07241 14.0227 5.25241 18.4527 8.17241 21.2427C9.19989 22.2361 10.5732 22.7915 12.0024 22.7915C13.4316 22.7915 14.8049 22.2361 15.8324 21.2427C18.7324 18.4527 21.9324 14.0027 20.7524 8.79267Z" fill="white"/>
<path d="M12.003 13.8824C11.3696 13.8844 10.75 13.6984 10.2224 13.348C9.69488 12.9976 9.28317 12.4985 9.03944 11.9139C8.7957 11.3294 8.7309 10.6857 8.85324 10.0643C8.97558 9.44288 9.27956 8.87175 9.72669 8.42323C10.1738 7.9747 10.744 7.66893 11.365 7.54465C11.986 7.42036 12.6299 7.48314 13.2152 7.72505C13.8005 7.96695 14.3009 8.3771 14.653 8.90355C15.005 9.43 15.193 10.0491 15.193 10.6824C15.193 11.5294 14.8572 12.3418 14.2593 12.9416C13.6613 13.5415 12.8499 13.8798 12.003 13.8824Z" fill="white"/>
</svg>
