<svg width="25" height="24" viewBox="0 0 25 24" fill="none" xmlns="http://www.w3.org/2000/svg">
<path d="M19.8125 5H9.6875C8.75552 5 8 5.75552 8 6.6875C8 7.61948 8.75552 8.375 9.6875 8.375H19.8125C20.7445 8.375 21.5 7.61948 21.5 6.6875C21.5 5.75552 20.7445 5 19.8125 5Z" fill="white"/>
<path opacity="0.3" fill-rule="evenodd" clip-rule="evenodd" d="M9.6875 16.25H19.8125C20.7445 16.25 21.5 17.0055 21.5 17.9375C21.5 18.8695 20.7445 19.625 19.8125 19.625H9.6875C8.75552 19.625 8 18.8695 8 17.9375C8 17.0055 8.75552 16.25 9.6875 16.25ZM9.6875 10.625H19.8125C20.7445 10.625 21.5 11.3805 21.5 12.3125C21.5 13.2445 20.7445 14 19.8125 14H9.6875C8.75552 14 8 13.2445 8 12.3125C8 11.3805 8.75552 10.625 9.6875 10.625Z" fill="white"/>
<circle cx="5.1875" cy="6.6875" r="1.6875" fill="white"/>
<circle opacity="0.3" cx="5.1875" cy="12.3125" r="1.6875" fill="white"/>
<circle opacity="0.3" cx="5.1875" cy="17.9375" r="1.6875" fill="white"/>
</svg>
