<svg width="16" height="16" viewBox="0 0 16 16" fill="none" xmlns="http://www.w3.org/2000/svg">
<path d="M6.66667 2C5.19579 2 4 3.19705 4 4.66948C4 6.1138 5.12842 7.28275 6.5993 7.33333C6.64421 7.32771 6.68912 7.32771 6.72281 7.33333C6.73404 7.33333 6.73965 7.33333 6.75088 7.33333C6.75649 7.33333 6.75649 7.33333 6.7621 7.33333C8.1993 7.28275 9.32772 6.1138 9.33333 4.66948C9.33333 3.19705 8.13754 2 6.66667 2Z" fill="#121826"/>
<path opacity="0.3" d="M13.4047 5.10339C13.5005 6.31154 12.6739 7.37023 11.5299 7.51346C11.524 7.51346 11.524 7.51346 11.518 7.51346H11.5C11.4641 7.51346 11.4281 7.51346 11.3982 7.52592C10.8172 7.55705 10.2841 7.364 9.88281 7.00903C10.4997 6.43609 10.8531 5.57669 10.7812 4.64255C10.7393 4.13812 10.5716 3.67728 10.3201 3.28494C10.5477 3.16662 10.8112 3.09189 11.0807 3.06698C12.2547 2.96111 13.3028 3.87033 13.4047 5.10339Z" fill="#121826"/>
<path d="M6.6668 8.66602C3.35987 8.66602 1.33003 10.186 1.33003 13.291C1.33003 13.501 1.47525 13.666 1.66007 13.666C1.66007 13.666 2.9967 14.3327 6.66337 14.3327C10.33 14.3327 11.6667 13.666 11.6667 13.666C11.8515 13.666 11.9967 13.501 11.9967 13.291C11.9967 10.186 9.97374 8.66602 6.6668 8.66602Z" fill="#121826"/>
<path opacity="0.3" fill-rule="evenodd" clip-rule="evenodd" d="M13.3934 12.934C13.3818 10.4821 12.1905 8.95642 10.1377 8.32897C10.4951 8.26584 10.8794 8.23438 11.2884 8.23438C13.9095 8.23438 15.5129 9.52678 15.5129 12.1669C15.5129 12.3454 15.3978 12.4857 15.2513 12.4857C15.2513 12.4857 14.7242 12.7678 13.3934 12.934Z" fill="#121826"/>
</svg>
