<svg width="22" height="22" viewBox="0 0 22 22" fill="none" xmlns="http://www.w3.org/2000/svg">
<g clip-path="url(#clip0_9656_7008)">
<path d="M15.8521 17.6065C16.2101 17.9645 16.7905 17.9645 17.1485 17.6065C17.5065 17.2485 17.5065 16.6681 17.1485 16.3102L11.6485 10.8102C11.3015 10.4631 10.7427 10.451 10.3809 10.7826L4.88091 15.8243C4.50772 16.1664 4.48251 16.7462 4.8246 17.1194C5.16669 17.4926 5.74655 17.5178 6.11974 17.1757L10.9728 12.7271L15.8521 17.6065Z" fill="#1AA260"/>
<path opacity="0.3" d="M15.8521 11.1898C16.2101 11.5478 16.7905 11.5478 17.1485 11.1898C17.5065 10.8319 17.5065 10.2515 17.1485 9.89349L11.6485 4.39349C11.3015 4.04646 10.7427 4.03431 10.3809 4.36594L4.88091 9.40761C4.50772 9.7497 4.48251 10.3296 4.8246 10.7027C5.16669 11.0759 5.74655 11.1012 6.11974 10.7591L10.9728 6.31046L15.8521 11.1898Z" fill="#1AA260"/>
</g>
<defs>
<clipPath id="clip0_9656_7008">
<rect width="22" height="22" fill="white"/>
</clipPath>
</defs>
</svg>
