<svg width="24" height="24" viewBox="0 0 24 24" fill="none" xmlns="http://www.w3.org/2000/svg">
<path d="M12.5018 7.25781L6.46948 13.2901C6.30541 13.4399 6.16328 13.6121 6.0473 13.8016C5.94724 13.9967 5.87353 14.2042 5.82809 14.4187V14.4674L5.09739 17.2522C5.05519 17.401 5.02532 17.5531 5.00809 17.7068C4.98761 17.8806 5.00614 18.0568 5.06232 18.2225C5.11849 18.3882 5.21091 18.5393 5.33284 18.6648C5.45749 18.7905 5.60974 18.8852 5.77747 18.9416C5.9452 18.998 6.12378 19.0144 6.29899 18.9896C6.45056 18.9756 6.60023 18.9457 6.74553 18.9003L9.49783 18.2102H9.54654C9.77009 18.1696 9.98629 18.0957 10.1879 17.991C10.3674 17.8808 10.5313 17.747 10.6751 17.5932L16.7561 11.4959L12.5018 7.25781Z" fill="#1AA260"/>
<path opacity="0.3" d="M18.6242 7.43567C18.4237 7.1859 18.2096 6.94739 17.9828 6.7212L17.3252 6.06357C17.0979 5.82389 16.8508 5.60389 16.5864 5.40594C16.281 5.14986 15.8969 5.00654 15.4984 5C15.1006 5.00975 14.7175 5.15269 14.4105 5.40594C14.158 5.60907 13.9193 5.82876 13.696 6.06357L13.3145 6.44516L17.5687 10.6832L17.9828 10.326C18.2218 10.1044 18.4443 9.86558 18.6486 9.61153C18.9017 9.30507 19.0421 8.92107 19.0464 8.5236C19.0321 8.12378 18.8833 7.74049 18.6242 7.43567Z" fill="#1AA260"/>
</svg>
