<svg width="40" height="40" viewBox="0 0 40 40" fill="none" xmlns="http://www.w3.org/2000/svg">
<path opacity="0.3" d="M30.9405 15.9908C30.374 13.5328 28.9762 11.3457 26.9833 9.79922C24.9904 8.25276 22.5248 7.44177 20.003 7.50333C17.483 7.44115 15.0186 8.25036 13.026 9.79436C11.0334 11.3384 9.63452 13.5226 9.06551 15.9783C7.59051 22.5283 11.5655 28.0658 15.2155 31.5533C16.4999 32.7951 18.2165 33.4893 20.003 33.4893C21.7895 33.4893 23.5062 32.7951 24.7905 31.5533C28.4155 28.0658 32.4155 22.5033 30.9405 15.9908Z" fill="#121826"/>
<path d="M20.0027 22.3535C19.2111 22.356 18.4365 22.1235 17.7771 21.6855C17.1176 21.2474 16.603 20.6236 16.2983 19.8929C15.9936 19.1622 15.9127 18.3576 16.0656 17.5808C16.2185 16.8041 16.5985 16.0902 17.1574 15.5295C17.7163 14.9689 18.429 14.5867 19.2053 14.4313C19.9815 14.2759 20.7864 14.3544 21.5181 14.6568C22.2497 14.9592 22.8752 15.4719 23.3152 16.1299C23.7553 16.788 23.9902 17.5618 23.9902 18.3535C23.9902 19.4122 23.5705 20.4277 22.8231 21.1775C22.0756 21.9273 21.0614 22.3502 20.0027 22.3535Z" fill="#121826"/>
</svg>
