<svg width="40" height="41" viewBox="0 0 40 41" fill="none" xmlns="http://www.w3.org/2000/svg">
<path opacity="0.3" d="M26.875 9.25002H13.525C12.5699 9.30742 11.673 9.72771 11.0176 10.4248C10.3623 11.122 9.99828 12.0432 10 13V17.375H14.3625V16.95C14.3891 16.7246 14.4955 16.5162 14.6625 16.3625C14.8363 16.2122 15.0577 16.128 15.2875 16.125H17.925C18.1372 16.1446 18.3359 16.2378 18.4866 16.3884C18.6373 16.5391 18.7305 16.7378 18.75 16.95V17.375H21.85V16.95C21.8766 16.7246 21.983 16.5162 22.15 16.3625C22.3238 16.2122 22.5452 16.128 22.775 16.125H25.3875C25.5955 16.1468 25.7898 16.2394 25.9377 16.3873C26.0856 16.5352 26.1782 16.7295 26.2 16.9375V17.3625H30.625V12.775C30.569 11.8243 30.1534 10.9305 29.4625 10.275C28.7634 9.61409 27.8371 9.24713 26.875 9.25002Z" fill="#121826"/>
<path d="M29.375 18H11.025C10.0743 18.056 9.1805 18.4716 8.52502 19.1625C7.86409 19.8616 7.49713 20.788 7.50002 21.75V30.0375C7.54215 30.3327 7.68846 30.6032 7.91252 30.8C8.14176 31.0084 8.44022 31.1242 8.75002 31.125H8.92502C9.22025 31.0829 9.4907 30.9366 9.68752 30.7125C9.89135 30.4814 10.0026 30.1831 10 29.875V27.375H30.625V30.0375C30.6681 30.3516 30.829 30.6375 31.075 30.8375C31.3213 31.0367 31.634 31.135 31.95 31.1125C32.2658 31.0885 32.5606 30.9455 32.775 30.7125C32.9908 30.482 33.1114 30.1783 33.1125 29.8625V21.525C33.0552 20.5721 32.6367 19.6769 31.9422 19.0219C31.2478 18.3669 30.3296 18.0015 29.375 18Z" fill="#121826"/>
</svg>
