<svg width="16" height="16" viewBox="0 0 16 16" fill="none" xmlns="http://www.w3.org/2000/svg">
<g clip-path="url(#clip0_9656_977)">
<path d="M12.0003 3.99935H7.33366C6.88921 3.92309 6.66699 3.70087 6.66699 3.33268C6.66699 2.96449 6.88921 2.74227 7.33366 2.66602H13.3337V8.66602C13.3337 9.11046 13.1114 9.33268 12.667 9.33268C12.2225 9.33268 12.0003 9.11046 12.0003 8.66602V3.99935ZM4.00033 11.9993H8.66699C9.11144 12.0756 9.33366 12.2978 9.33366 12.666C9.33366 13.0342 9.11144 13.2564 8.66699 13.3327H2.66699V7.33268C2.66699 6.88824 2.88921 6.66602 3.33366 6.66602C3.7781 6.66602 4.00033 6.88824 4.00033 7.33268V11.9993Z" fill="#121826"/>
<path opacity="0.3" d="M9.41452 5.64213L5.64328 9.41336C5.38293 9.67371 5.38293 10.0958 5.64328 10.3562C5.90363 10.6165 6.32574 10.6165 6.58609 10.3562L10.3573 6.58493C10.6177 6.32458 10.6177 5.90247 10.3573 5.64213C10.097 5.38178 9.67486 5.38178 9.41452 5.64213Z" fill="#121826"/>
</g>
<defs>
<clipPath id="clip0_9656_977">
<rect width="16" height="16" fill="white"/>
</clipPath>
</defs>
</svg>
