<svg width="24" height="24" viewBox="0 0 24 24" fill="none" xmlns="http://www.w3.org/2000/svg">
<g clip-path="url(#clip0_9656_14481)">
<path opacity="0.3" d="M22 12C22 6.47715 17.5228 2 12 2C6.47715 2 2 6.47715 2 12C2 17.5228 6.47715 22 12 22C17.5228 22 22 17.5228 22 12Z" fill="#DB0D0D"/>
<path fill-rule="evenodd" clip-rule="evenodd" d="M6.16806 16.4452C5.8617 16.9047 5.98588 17.5256 6.44541 17.8319C6.90493 18.1383 7.5258 18.0141 7.83216 17.5546C8.98919 15.819 10.3544 14.9999 12.0001 14.9999C13.6458 14.9999 15.011 15.819 16.1681 17.5546C16.4744 18.0141 17.0953 18.1383 17.5548 17.8319C18.0143 17.5256 18.1385 16.9047 17.8322 16.4452C16.3225 14.1807 14.3544 12.9999 12.0001 12.9999C9.64578 12.9999 7.67769 14.1807 6.16806 16.4452Z" fill="#DB0D0D"/>
</g>
<defs>
<clipPath id="clip0_9656_14481">
<rect width="24" height="24" fill="white"/>
</clipPath>
</defs>
</svg>
