<svg width="22" height="22" viewBox="0 0 22 22" fill="none" xmlns="http://www.w3.org/2000/svg">
<g clip-path="url(#clip0_9931_17724)">
<path d="M15.8521 4.39349C16.2101 4.0355 16.7905 4.0355 17.1485 4.39349C17.5065 4.75147 17.5065 5.33187 17.1485 5.68985L11.6485 11.1898C11.3015 11.5369 10.7427 11.549 10.3809 11.2174L4.88091 6.17572C4.50772 5.83363 4.48251 5.25378 4.8246 4.88059C5.16669 4.50739 5.74655 4.48218 6.11974 4.82428L10.9728 9.27287L15.8521 4.39349Z" fill="#1AA260"/>
<path opacity="0.3" d="M15.8521 10.8102C16.2101 10.4522 16.7905 10.4522 17.1485 10.8102C17.5065 11.1681 17.5065 11.7485 17.1485 12.1065L11.6485 17.6065C11.3015 17.9535 10.7427 17.9657 10.3809 17.6341L4.88091 12.5924C4.50772 12.2503 4.48251 11.6704 4.8246 11.2973C5.16669 10.9241 5.74655 10.8988 6.11974 11.2409L10.9728 15.6895L15.8521 10.8102Z" fill="#1AA260"/>
</g>
<defs>
<clipPath id="clip0_9931_17724">
<rect width="22" height="22" fill="white"/>
</clipPath>
</defs>
</svg>
