<svg width="20" height="20" viewBox="0 0 20 20" fill="none" xmlns="http://www.w3.org/2000/svg">
<g clip-path="url(#clip0_9656_3490)">
<path opacity="0.3" fill-rule="evenodd" clip-rule="evenodd" d="M9.30541 3.74906L2.35404 16.2615C2.13053 16.6638 2.27549 17.1712 2.67781 17.3947C2.8016 17.4635 2.94089 17.4995 3.08251 17.4995H17.6804C18.1406 17.4995 18.5137 17.1265 18.5137 16.6662C18.5137 16.5129 18.4714 16.3625 18.3914 16.2317L10.7449 3.71922C10.5049 3.32651 9.99204 3.20271 9.59933 3.4427C9.47655 3.51773 9.37529 3.62328 9.30541 3.74906Z" fill="#F47920"/>
<path d="M10.8337 8.33333C10.8337 7.8731 10.4606 7.5 10.0003 7.5C9.54009 7.5 9.16699 7.8731 9.16699 8.33333V12.5C9.16699 12.9602 9.54009 13.3333 10.0003 13.3333C10.4606 13.3333 10.8337 12.9602 10.8337 12.5V8.33333Z" fill="#F47920"/>
<path d="M10.8337 14.9993C10.8337 14.5391 10.4606 14.166 10.0003 14.166C9.54009 14.166 9.16699 14.5391 9.16699 14.9993C9.16699 15.4596 9.54009 15.8327 10.0003 15.8327C10.4606 15.8327 10.8337 15.4596 10.8337 14.9993Z" fill="#F47920"/>
</g>
<defs>
<clipPath id="clip0_9656_3490">
<rect width="20" height="20" fill="white"/>
</clipPath>
</defs>
</svg>
