<svg width="22" height="23" viewBox="0 0 22 23" fill="none" xmlns="http://www.w3.org/2000/svg">
<path d="M20.1673 10.8132H18.2973C17.9673 7.32065 15.1807 4.52482 11.6882 4.20398V2.33398C11.6882 1.95815 11.3765 1.64648 11.0007 1.64648C10.6248 1.64648 10.3132 1.95815 10.3132 2.33398V4.20398C6.82065 4.53398 4.02482 7.32065 3.70398 10.8132H1.83398C1.45815 10.8132 1.14648 11.1248 1.14648 11.5007C1.14648 11.8765 1.45815 12.1882 1.83398 12.1882H3.70398C4.03398 15.6807 6.82065 18.4765 10.3132 18.7973V20.6673C10.3132 21.0431 10.6248 21.3548 11.0007 21.3548C11.3765 21.3548 11.6882 21.0431 11.6882 20.6673V18.7973C15.1807 18.4673 17.9765 15.6807 18.2973 12.1882H20.1673C20.5431 12.1882 20.8548 11.8765 20.8548 11.5007C20.8548 11.1248 20.5431 10.8132 20.1673 10.8132ZM11.0007 14.3607C9.42398 14.3607 8.14065 13.0773 8.14065 11.5007C8.14065 9.92398 9.42398 8.64065 11.0007 8.64065C12.5773 8.64065 13.8607 9.92398 13.8607 11.5007C13.8607 13.0773 12.5773 14.3607 11.0007 14.3607Z" fill="#121826"/>
</svg>
