<svg width="20" height="21" viewBox="0 0 20 21" fill="none" xmlns="http://www.w3.org/2000/svg">
<path opacity="0.1" d="M4.00869 4.50869C4.49685 4.02054 5.28831 4.02054 5.77646 4.50869L6.66034 5.39258C7.1485 5.88073 7.1485 6.67219 6.66034 7.16034C6.17219 7.6485 5.38073 7.6485 4.89258 7.16034L4.00869 6.27646C3.52054 5.78831 3.52054 4.99685 4.00869 4.50869Z" fill="#2F75B7"/>
<path opacity="0.2" d="M2.5 9.25H3.75C4.44036 9.25 5 9.80964 5 10.5C5 11.1904 4.44036 11.75 3.75 11.75H2.5C1.80964 11.75 1.25 11.1904 1.25 10.5C1.25 9.80964 1.80964 9.25 2.5 9.25Z" fill="#2F75B7"/>
<path opacity="0.3" d="M4.00869 16.5353C3.52054 16.0472 3.52054 15.2557 4.00869 14.7676L4.89258 13.8837C5.38073 13.3955 6.17219 13.3955 6.66034 13.8837C7.1485 14.3718 7.1485 15.1633 6.66034 15.6515L5.77646 16.5353C5.28831 17.0235 4.49685 17.0235 4.00869 16.5353Z" fill="#2F75B7"/>
<path opacity="0.4" d="M10 15.5C10.6904 15.5 11.25 16.0596 11.25 16.75V18C11.25 18.6904 10.6904 19.25 10 19.25C9.30964 19.25 8.75 18.6904 8.75 18V16.75C8.75 16.0596 9.30964 15.5 10 15.5Z" fill="#2F75B7"/>
<path opacity="0.5" d="M13.3837 15.6515C12.8955 15.1633 12.8955 14.3718 13.3837 13.8837C13.8718 13.3955 14.6633 13.3955 15.1515 13.8837L16.0353 14.7676C16.5235 15.2557 16.5235 16.0472 16.0353 16.5353C15.5472 17.0235 14.7557 17.0235 14.2676 16.5353L13.3837 15.6515Z" fill="#2F75B7"/>
<path opacity="0.6" d="M16.25 9.25H17.5C18.1904 9.25 18.75 9.80964 18.75 10.5C18.75 11.1904 18.1904 11.75 17.5 11.75H16.25C15.5596 11.75 15 11.1904 15 10.5C15 9.80964 15.5596 9.25 16.25 9.25Z" fill="#2F75B7"/>
<path opacity="0.8" d="M13.3837 5.39258L14.2676 4.50869C14.7557 4.02054 15.5472 4.02054 16.0353 4.50869C16.5235 4.99685 16.5235 5.78831 16.0353 6.27646L15.1515 7.16034C14.6633 7.6485 13.8718 7.6485 13.3837 7.16034C12.8955 6.67219 12.8955 5.88073 13.3837 5.39258Z" fill="#2F75B7"/>
<path d="M10 1.75C10.6904 1.75 11.25 2.30964 11.25 3V4.25C11.25 4.94036 10.6904 5.5 10 5.5C9.30964 5.5 8.75 4.94036 8.75 4.25V3C8.75 2.30964 9.30964 1.75 10 1.75Z" fill="#2F75B7"/>
</svg>
