<svg width="22" height="22" viewBox="0 0 22 22" fill="none" xmlns="http://www.w3.org/2000/svg">
<path d="M16.197 8.06667C16.197 9.08196 15.896 10.0744 15.3319 10.9186C14.7678 11.7627 13.9661 12.4207 13.0282 12.8092C12.0902 13.1978 11.058 13.2994 10.0623 13.1014C9.06648 12.9033 8.15181 12.4144 7.43391 11.6964C6.716 10.9785 6.2271 10.0639 6.02903 9.06817C5.83096 8.07236 5.93262 7.04022 6.32114 6.10223C6.70967 5.16425 7.36763 4.36253 8.21179 3.79847C9.05596 3.23441 10.0485 2.93335 11.0637 2.93335C12.4247 2.93488 13.7295 3.4762 14.6918 4.43855C15.6542 5.40091 16.1955 6.7057 16.197 8.06667ZM19.1304 8.06667C19.1305 9.25522 18.8677 10.4291 18.3606 11.5041C17.8537 12.5791 17.115 13.5285 16.1976 14.2842V21.2666C16.1976 21.3917 16.1656 21.5146 16.1048 21.6238C16.0439 21.7329 15.9562 21.8247 15.8498 21.8904C15.7435 21.9561 15.6222 21.9936 15.4972 21.9992C15.3724 22.0049 15.2482 21.9785 15.1363 21.9226L11.0636 19.8865L6.99226 21.9225C6.88046 21.9784 6.75622 22.0048 6.63134 21.9992C6.50647 21.9936 6.3851 21.9561 6.27877 21.8904C6.17243 21.8247 6.08466 21.7329 6.02378 21.6238C5.96291 21.5146 5.93095 21.3917 5.93094 21.2666V14.2851C4.88295 13.42 4.07052 12.3041 3.5691 11.041C3.06769 9.77803 2.89354 8.40879 3.06283 7.06044C3.23212 5.71211 3.73936 4.42841 4.53745 3.32853C5.33554 2.22866 6.3986 1.34827 7.62794 0.769126C8.85727 0.189972 10.213 -0.0691656 11.5693 0.0157708C12.9256 0.100706 14.2383 0.52696 15.3859 1.25496C16.5333 1.98296 17.4782 2.98909 18.1328 4.17994C18.7874 5.37079 19.1306 6.70775 19.1304 8.06667ZM17.6637 8.06667C17.6637 6.76131 17.2766 5.48528 16.5514 4.39992C15.8262 3.31456 14.7954 2.46862 13.5894 1.96908C12.3834 1.46955 11.0564 1.33885 9.77607 1.59351C8.49585 1.84817 7.31984 2.47675 6.39682 3.39978C5.4738 4.3228 4.84521 5.49881 4.59055 6.77908C4.33589 8.05935 4.46659 9.38634 4.96612 10.5924C5.46566 11.7984 6.3116 12.8292 7.39696 13.5544C8.48232 14.2796 9.75838 14.6666 11.0637 14.6666C12.8135 14.6647 14.4911 13.9687 15.7285 12.7314C16.9658 11.4941 17.6617 9.81646 17.6637 8.06667Z" fill="#F47920"/>
</svg>
