<svg width="40" height="40" viewBox="0 0 40 40" fill="none" xmlns="http://www.w3.org/2000/svg">
<g clip-path="url(#clip0_2123_4130)">
<path d="M21.6161 22.8661C21.128 23.3543 21.128 24.1457 21.6161 24.6339C22.1043 25.122 22.8957 25.122 23.3839 24.6339L30.8839 17.1339C31.3571 16.6607 31.3737 15.8987 30.9214 15.4053L24.0464 7.90535C23.58 7.39645 22.7892 7.36207 22.2803 7.82856C21.7714 8.29505 21.7371 9.08576 22.2036 9.59466L28.2698 16.2124L21.6161 22.8661Z" fill="#121826"/>
<path opacity="0.3" d="M24.375 15C25.0654 15 25.625 15.5596 25.625 16.25C25.625 16.9404 25.0654 17.5 24.375 17.5H16.25C15.5596 17.5 15 18.0596 15 18.75V31.302C15 31.9923 14.4404 32.552 13.75 32.552C13.0596 32.552 12.5 31.9923 12.5 31.302V18.75C12.5 16.6789 14.1789 15 16.25 15H24.375Z" fill="#121826"/>
</g>
<defs>
<clipPath id="clip0_2123_4130">
<rect width="30" height="30" fill="white" transform="translate(5 5)"/>
</clipPath>
</defs>
</svg>
