<svg viewBox="0 0 201.21 68.35" xmlns="http://www.w3.org/2000/svg"><g fill-rule="evenodd"><path d="m.05 44.89v18.93c0 1.23 1.23 1.71 2.42 1.53 1.84-.27 2.95-2.38 4.38-3.7.66-.61 1.31-1.5 1.94-2.14l6.78-7.38c.18-.2.34-.32.52-.52.18-.21.3-.37.48-.57l2.87-3.12c.2-.21.33-.31.52-.52.17-.2.3-.38.48-.56l3.87-4.21c.93-.89 3.03-3.42 3.87-4.21.79-.75 3.24-3.64 3.9-4.26.86-.8 2.91-3.27 3.88-4.2.8-.77 3.1-3.51 3.86-4.22.63-.59 1.24-1.45 1.91-2.08.37-.34.54-.65.96-1.04 1.1-1.03 3.65-4.13 4.91-5.34.74-.71 3.17-3.58 3.86-4.22l5.8-6.27c1.24-1.43 3.54-3.16 3.1-5.04-.22-.96-1.22-1.7-2.43-1.7h-17.03c-.22.06-5.22 5.58-5.78 6.24l-12.79 13.96c-.26.31-.37.41-.67.72l-5.09 5.6c-.21.25-.43.42-.64.66-.25.29-.37.46-.65.73l-1.25 1.35c-.24.29-.32.4-.62.68l-4.47 4.91c-.31.3-.39.4-.63.68l-5.16 5.61c-.24.24-.4.5-.64.75-.26.27-.41.39-.63.67l-1.28 1.41c-.3.29-.54.39-.54.87z" fill="#f37d31"/><path d="m116.45 27.21c3.74-.39 6.66 2.42 7.12 5.64.55 3.89-2.15 6.89-5.37 7.41-3.97.64-6.71-2.06-7.09-5.56-.42-3.91 1.91-7.13 5.34-7.49zm6.57-3.48-2.31-2.17c-.82-.61-1.96-1.19-3.24-1.36-2.6-.34-5.6.55-7.44 1.65-8.66 5.13-8.66 18.75-.05 23.9 1.82 1.09 4.8 2.06 7.41 1.7 2.95-.41 4.87-3.1 5.68-3.6.17.59.9 2.48 1.19 2.81.52.6 2.7.36 3.69.36 3.57 0 3.1-.04 3.1-4.91 0-1.28.1-27.57-.04-28.16-.31-1.42-1.96-1.26-2.8-1.26-5.93 0-5.17-1.01-5.17 7.02 0 1.18.1 2.9-.02 4.02zm-35.9 2.79c1.42 0 2.57.42 3.43 1.15.58.49 1.68 1.68 2.03 2.64h-10.56c.34-.86 1.28-2.02 1.9-2.5.82-.63 1.76-1.29 3.2-1.29zm-5.35 9.73c2.9-.1 5.99 0 8.91 0 1.64 0 7.59.22 8.62-.36 1.51-.85.53-5.96-.03-7.39-3.64-9.29-16.17-11.46-22.4-3.22-4.76 6.3-3.1 14.97 2.28 19.07 5.63 4.28 13.07 4.18 17.99-.53 1.47-1.41.39-2.06-.82-3.43-1.04-1.18-1.82-2.62-3.27-1.44-.44.35-.69.58-1.29.88-2.68 1.35-6.29 1.61-8.54-.59-.55-.53-1.45-1.81-1.46-2.98zm104.79-8.99c8.19-1.18 9.21 11.99 1.85 13.03-3.92.55-6.53-2.17-6.9-5.62-.41-3.79 1.83-6.94 5.05-7.41zm-.06-7.07c-7.32.56-13.16 6.68-12.61 14.64.51 7.32 6.71 13.18 14.69 12.65 7.29-.48 13.17-6.78 12.6-14.75-.51-7.24-6.76-13.15-14.69-12.54zm-26.17 15.56c.49-1.24 3.56-11.34 4.02-12.84.9-2.9.76-2.35 6.09-2.35 1.29 0 3.17-.32 2.68 1.39-.25.89-.85 2.08-1.21 2.96-2.82 6.93-5.8 13.85-8.66 20.78-.58 1.4-1.09 1.34-2.8 1.34-1.63 0-2.56.29-3.13-1.09-1.5-3.64-9.65-23.39-9.75-23.97-.28-1.71 1.51-1.41 2.8-1.41 5.05 0 4.86-.6 5.84 2.6.66 2.14 1.38 4.24 2.03 6.39.29.96 1.75 5.59 2.08 6.2zm-100.16-11.33c.43-.2 1.26-1.48 1.58-1.85.53-.62.98-1.15 1.67-1.63 2.18-1.51 5.62-.74 7.79.69 3.45 2.27 3.16 1.81.87 5.79-.43.75-.8 1.59-1.72 1.7-1.11.13-1.56-.67-2.23-1.11-1.5-.98-3.62-1.21-5.15-.14-.7.49-1.06.99-1.61 1.78-.26.38-.44.57-.44 1.16 0 1.57.09 14.26-.03 15.03-.18 1.17-.98 1.19-2.18 1.18-1.1 0-2.2 0-3.3 0-1.15 0-2.1.1-2.4-.96-.2-.7-.07-21.95-.08-23.24 0-2.74 1.2-2.27 4.39-2.28 1.42 0 1.42.45 1.92 1.48.26.53.77 1.8.92 2.39zm77.43-3.79c-1.3.38-1.04 1.86-1.04 3.24v12.94c0 2.84-.07 5.77 0 8.6.05 1.77 1.14 1.61 2.69 1.61 5.34 0 5.33.5 5.33-3.26v-12.94c0-2.76.14-5.89 0-8.6-.09-1.73-1.83-1.66-2.72-1.66-.83 0-3.68-.1-4.25.07z" fill="#47bae4"/><path d="m35.29 39.05c-.57.11-.93.25-1.3.58l-8.22 8.54c-.65.62-1.27 1.32-.61 2.64.46.92 2.24 2.51 3.06 3.46.16.19.27.34.43.53.16.17.28.26.43.43l3.08 3.43c.28.35.58.63.85.97l1.76 1.98c.33.32.59.63.91 1l2.6 2.96c.36.32 1.19.19 1.75.19h14.86c1.4 0 2.24.08 2.71-1.05.4-.98.18-2.32-.41-3.01l-7.51-8.29c-.17-.18-.27-.34-.44-.52-.36-.38-.55-.6-.87-.96l-10.69-11.72c-.53-.52-1.09-1.4-2.4-1.15zm-33.68-38.93c-2.06.37-1.56 2.06-1.56 4.74v25.09c0 1.02-.14 2.02.36 2.78.38.57 1.14 1.1 2.2.89 1.23-.24 2.49-2 3.36-2.9 1.08-1.12 1.98-2.15 3.05-3.29l2.95-3.31c.53-.58 1.01-1.06 1.49-1.64.24-.3.49-.52.74-.82l2.23-2.46c.39-.47.29-.45.29-1.24v-14.15c0-2.38.09-3.74-2.57-3.77-1.8-.02-11.52-.11-12.54.08z" fill="#47bae4"/><g fill="#f27d31"><path d="m63.03 63.74-.02-2.65c1.35 0 3.61-.3 3.5 1.44-.1 1.46-2.15 1.3-3.48 1.21zm.04-6.66c1.16-.07 3.05-.27 3.04 1.1 0 1.36-1.95 1.14-3.1 1.14l.05-2.24zm-2.3-1.62s-.14 9.68.08 9.9c.44.45 5.02.67 6.73-.4.76-.47 1.33-1.34 1.29-2.61-.02-.52-.18-1.13-.43-1.47-.35-.48-.67-.55-1.15-.88l.14-.14c.61-.58 1.05-.98.92-2.2-.12-1.05-.73-1.63-1.47-1.99-1.27-.61-4.65-.67-6.1-.21zm53.61 10.11h1.75s1.3-4.28 1.3-4.28l1.37 4.28h1.76c.61-1.56 2.35-6.33 2.56-7.81h-2.28c-.32 1.3-.77 3.95-1.26 4.99l-1.3-4.99h-1.59c-.21.88-.4 1.7-.63 2.52-.2.73-.49 2.09-.71 2.4-.41-.84-.96-3.81-1.22-4.92h-2.32c.22 1.18.81 2.83 1.19 3.98.44 1.33.91 2.58 1.37 3.82zm21.04-8.37c1.44-.09 3.12-.17 3.12 1.42 0 1.61-1.66 1.53-3.12 1.53v-2.96zm-2.31-1.76-.02 10.12h2.32s.01-3.43.01-3.43c1.59 0 3.2-.09 4.32-.85 1.9-1.28 2.83-7.64-6.63-5.85zm-53.11 10.82c-.26.42-.34 1.2-.42 1.74 3.45 1.24 4.41-.94 5.43-3.33.59-1.38 2.23-5.57 2.45-6.9h-2.25c-.2.37-.58 2.02-.74 2.55-.18.62-.52 2.07-.83 2.46-.46-.68-1.36-3.98-1.66-5.01h-2.33c.23 1.53 1.67 4.87 2.41 6.43.18.38.56.87.39 1.3-.41 1.1-1.28.96-2.46.76zm71.07 0-.37 1.76c3.64 1 4.29-.75 5.44-3.36.65-1.46 2.15-5.42 2.45-6.88h-2.28c-.27.96-1.17 4.55-1.56 5.04-.22-.76-.58-1.63-.85-2.44-.29-.89-.53-1.7-.78-2.6h-2.33c.15 1.17 1.38 4.13 1.86 5.23.18.41.35.78.54 1.2.17.38.56.89.41 1.29-.52 1.38-1.99.83-2.54.75zm37.26-5.38c.26-1.99 2.73-2.02 2.88 0zm4.57 4.46-.27-1.79c-.36-.04-3.99 1.21-4.29-1.13 1.28-.06 2.71-.02 4-.01 1.07 0 1.05.21 1.04-.92-.07-5.33-6.47-4.98-7.25-.75-.22 1.22-.02 2.58.57 3.44.49.73 1.26 1.34 2.54 1.54 1.5.23 2.41-.11 3.67-.38zm-86.69-5.81c2.43-.64 2.57 3.89.8 4.3-2.39.56-2.62-3.82-.8-4.3zm-.25-1.91c5.35-.89 6.12 7.43 1.33 8.12-5.44.78-6.08-7.33-1.33-8.12zm68.54 6.35c-.93.1-2.42.24-2.34-.91.07-1 1.44-.88 2.38-.76l-.04 1.68zm-3.81-6.06.25 1.72c.81.2 3.55-1.18 3.6 1.2-1.28-.18-2.54-.19-3.56.41-.84.5-1.36 1.65-.85 3.01.74 1.97 4.48 1.71 6.52 1.09.12-.83.03-2.5.03-3.42 0-1.05.09-2.28-.42-3.11-1.05-1.68-3.49-1.3-5.57-.91zm-23.72 6.06c-.93.09-2.4.23-2.33-.91.06-1 1.47-.87 2.38-.77zm-3.81-6.06c2.31-.43 5.02-.82 5.77 1.38.32.94.22 4.22.22 5.6 0 .47.07.46-.38.55-.27.05-.54.09-.82.14-1.85.32-5.13.55-5.5-1.89-.4-2.7 2.18-3.17 4.55-2.85-.03-2.05-2.13-1.38-3.59-1.13l-.26-1.78zm-49.47.14v7.49s2.21.03 2.21.03c.03-.99-.12-5.51.07-6.02 1.75-.23 2.21.1 2.23 1.85.01 1.38-.03 2.77 0 4.14l2.21.03c.06-1.79.27-5.77-.64-6.91-1.13-1.41-4.15-1.28-6.09-.62zm-15.72 7.22v-7.47s-2.2-.04-2.2-.04v6.02c-3.13.39-2.14-1.31-2.31-5.99l-2.21-.03c-.09 1.74-.24 5.81.64 6.89.6.75 1.43 1.08 2.74 1.09.82 0 2.7-.14 3.35-.48zm101.34-9.44c0 1.49-.08 6.57.09 7.64.49 3.06 4.28 2.4 5.08 1.84l-.28-1.64c-.99.06-2.21.68-2.57-.59-.18-.64-.09-2.67-.09-3.46h2.6c.14-.46.08-1.35.04-1.85h-2.64v-2.26s-2.23.32-2.23.32zm-11.39 9.89.33-1.84c-1.06-.1-1.21-.44-1.22-1.52v-8.25c-.42-.01-1.38.16-1.82.24-.58.1-.39.1-.39 1.76v4.26c0 3.31-.62 5.25 3.1 5.36zm27.89-7.55v7.39s2.2 0 2.2 0v-5.94c.87-.28 1.69-.07 2.48.09.15-.41.38-1.43.34-1.85-2.06-.54-3.16-.19-5.02.3zm-72.3 9.41 1.73.41c.93-1.44 1.22-2.89 1.14-4.65l-2.32-.03c.01.86.05 1.41-.08 2.26-.11.76-.35 1.33-.47 2.01z"/><path d="m137.45 10.14c-1.15.38-.89 1.51-.89 2.96 0 .87-.13 2.95.2 3.62.49.99 1.87.73 3.1.73.79 0 3.23.13 3.75-.16 1-.56.97-1.51.97-2.88 0-.8.14-3.09-.18-3.66-.53-.94-1.93-.71-3.15-.71-.84 0-3.16-.1-3.79.11z"/></g></g></svg>