<svg width="40" height="40" viewBox="0 0 40 40" fill="none" xmlns="http://www.w3.org/2000/svg">
<g clip-path="url(#clip0_8459_11854)">
<path d="M33.8289 18.0736C33.9103 18.4498 34.4797 18.6938 35.0796 18.6125C35.6796 18.5311 36.0863 18.1651 36.0049 17.7787C35.9134 17.4025 35.3542 17.1584 34.7441 17.2398C34.1543 17.3211 33.7374 17.6872 33.8289 18.0736ZM37.6319 18.0939C38.0793 18.0329 38.3945 17.7584 38.3131 17.4736C38.2419 17.1889 37.8251 17.0059 37.3776 17.0669C36.9302 17.1279 36.6252 17.4025 36.6862 17.6872C36.7676 17.9719 37.1845 18.1549 37.6319 18.0939ZM25.0741 12.7047C25.5316 12.6437 25.8367 12.3692 25.7655 12.0845C25.7045 11.7998 25.2774 11.6167 24.83 11.6777C24.3725 11.7388 24.0573 12.0235 24.1284 12.3082C24.2098 12.5827 24.6165 12.7556 25.0741 12.7047ZM32.5071 20.3411C31.897 20.0767 31.0327 20.1886 30.5751 20.5953C30.1277 21.002 30.2599 21.5409 30.87 21.7951C31.4902 22.0595 32.3444 21.9477 32.7918 21.5409C33.2493 21.1444 33.1172 20.6055 32.5071 20.3411ZM33.1172 18.1651C33.0053 17.6872 32.3037 17.3821 31.5512 17.4838C30.7988 17.5855 30.2802 18.0431 30.3921 18.521C30.5039 18.9887 31.2157 19.2938 31.9681 19.1921C32.7104 19.0904 33.229 18.6328 33.1172 18.1651ZM32.5071 13.7521C32.8731 13.9148 33.3917 13.8334 33.6662 13.5995C33.9306 13.3555 33.8493 13.0403 33.4934 12.8776C33.1273 12.7149 32.6087 12.7861 32.3444 13.0301C32.0597 13.2742 32.141 13.5995 32.5071 13.7521ZM30.7886 15.2875C31.2767 15.501 31.9681 15.4095 32.324 15.0841C32.6901 14.7689 32.5884 14.3317 32.1003 14.1181C31.6123 13.9148 30.9208 14.0063 30.5548 14.3215C30.1887 14.6469 30.3006 15.0841 30.7886 15.2875ZM18.3224 14.2808C17.9563 14.1283 17.4377 14.1893 17.1734 14.4333C16.8886 14.6774 16.9802 15.0028 17.336 15.1553C17.7021 15.3078 18.2207 15.2468 18.4851 15.0028C18.7596 14.7689 18.6783 14.4435 18.3224 14.2808ZM27.1891 15.623C27.0772 15.1553 26.3756 14.8502 25.6232 14.9519C24.8809 15.0536 24.3623 15.5112 24.4742 15.9789C24.5758 16.4467 25.2876 16.7517 26.0299 16.65C26.7925 16.5585 27.3009 16.0908 27.1891 15.623ZM30.3616 15.6739C29.7616 15.4095 28.8973 15.5213 28.4398 15.9179C27.9822 16.3246 28.1245 16.8636 28.7245 17.1279C29.3447 17.3923 30.1989 17.2804 30.6564 16.8737C31.1038 16.4772 30.9717 15.9382 30.3616 15.6739ZM36.8692 22.6493C36.5032 22.4866 35.9744 22.5578 35.7101 22.8018C35.4355 23.0458 35.5169 23.3712 35.8829 23.5237C36.249 23.6864 36.7676 23.6153 37.0421 23.3814C37.3065 23.1272 37.2251 22.812 36.8692 22.6493ZM34.9169 21.5918C34.4289 21.3782 33.7374 21.4698 33.3714 21.7951C33.0053 22.1205 33.1172 22.5476 33.6052 22.7611C34.0933 22.9747 34.7847 22.8831 35.1508 22.5578C35.5067 22.2324 35.3948 21.7951 34.9169 21.5918ZM20.6102 15.0536C20.1221 14.8401 19.4205 14.9316 19.0545 15.2468C18.6986 15.5722 18.8003 16.0094 19.2884 16.2128C19.7866 16.4263 20.478 16.3348 20.8238 16.0094C21.1898 15.6942 21.0881 15.2671 20.6102 15.0536ZM25.5113 14.5045C26.1112 14.4232 26.5281 14.0571 26.4265 13.6809C26.3349 13.2945 25.7757 13.0606 25.1758 13.142C24.5657 13.2233 24.1589 13.5894 24.2505 13.9656C24.3521 14.3418 24.9114 14.5757 25.5113 14.5045ZM21.6982 17.4635C22.3083 17.7279 23.1624 17.616 23.62 17.2093C24.0776 16.8127 23.9454 16.2636 23.3353 16.0094C22.7252 15.745 21.8609 15.8569 21.4135 16.2535C20.9559 16.6704 21.0881 17.2093 21.6982 17.4635Z" fill="#04BAEE"/>
<path d="M7.98122 17.9107C7.58466 17.9107 7.39147 18.053 7.39147 18.3072C7.39147 18.4801 7.46264 18.6123 7.605 18.7241C7.67618 18.775 7.80836 18.8055 8.01173 18.8055C8.70317 18.7953 9.93353 19.3444 9.93353 20.4731V21.012C9.38444 20.7171 8.87603 20.5849 8.39812 20.5849C7.22877 20.5849 6.64919 21.4085 6.64919 23.0456V23.0965C6.64919 23.6862 6.80171 24.1438 7.09659 24.4692C7.39147 24.7844 7.75752 24.9369 8.19476 24.9369C8.85569 24.9369 9.43528 24.6217 9.93353 23.9913V24.5912C10.0352 24.8251 10.2081 24.9369 10.4521 24.9369C10.686 24.9369 10.8588 24.8251 10.9605 24.5912V20.4731C10.9503 18.7648 9.38444 17.9107 7.98122 17.9107ZM9.92336 23.1066C9.59797 23.7066 9.12007 24.0014 8.4693 24.0014C7.93038 24.0014 7.66601 23.7574 7.66601 23.2693V23.0558C7.66601 21.9881 7.98122 21.4492 8.59132 21.4492C8.90653 21.4492 9.3641 21.6017 9.92336 21.9068V23.1066ZM3.87326 14.4941H1.66675V24.6014C1.75826 24.8352 1.93112 24.9471 2.17516 24.9471C2.4192 24.9471 2.59206 24.8352 2.68357 24.6014V20.4222H3.76141C4.42234 20.4222 4.96126 20.168 5.35782 19.6799C5.76455 19.1919 5.95775 18.5716 5.95775 17.8598V17.026C5.96791 15.3381 5.28664 14.4941 3.87326 14.4941ZM4.96126 17.8598C4.96126 18.9885 4.5647 19.5579 3.77157 19.5579H2.68357V15.3483H3.90376C4.60537 15.3483 4.96126 15.9075 4.96126 17.026V17.8598ZM16.4615 18.2055C16.2175 18.2259 16.0446 18.3377 15.9531 18.5614V23.6557C15.3837 23.9506 14.9566 24.0828 14.6719 24.0828C14.1432 24.0828 13.8788 23.5642 13.8788 22.527V18.5614C13.7771 18.3276 13.6043 18.2055 13.3806 18.2055C13.1162 18.2259 12.9535 18.3377 12.862 18.5614V22.527C12.862 24.1438 13.4009 24.9471 14.4787 24.9471C14.9058 24.9471 15.404 24.8047 15.9633 24.52V26.33C15.9633 26.8079 15.8819 27.1333 15.7091 27.3366C15.5362 27.54 15.4549 27.7027 15.4549 27.8145C15.465 28.0687 15.5871 28.2314 15.8108 28.3229C16.1667 28.3229 16.4615 28.1196 16.6954 27.7027C16.8988 27.3671 16.9903 26.9807 16.9903 26.5638V18.5513C16.8581 18.3276 16.6954 18.2055 16.4615 18.2055ZM26.8128 17.9412C25.918 17.9412 25.3079 18.3174 24.9825 19.0495C24.769 19.5579 24.6673 20.3612 24.6673 21.4594C24.6673 22.5576 24.7792 23.371 24.9825 23.8998C25.2876 24.6725 25.8468 25.0589 26.6908 25.0589C27.6059 25.0589 28.2262 24.6827 28.5414 23.9201C28.7651 23.4117 28.8668 22.5982 28.8668 21.4594C28.8668 20.3205 28.7854 19.5274 28.6024 19.0495C28.2872 18.3072 27.6974 17.9412 26.8128 17.9412ZM27.8093 23.1371C27.6568 23.8286 27.3009 24.1743 26.762 24.1743C25.9993 24.1743 25.6333 23.2693 25.6333 21.4594C25.6333 20.5951 25.6638 20.046 25.7146 19.802C25.8468 19.1614 26.223 18.836 26.7925 18.836C27.3314 18.836 27.6771 19.1715 27.8093 19.8325C27.8703 20.0867 27.9008 20.6256 27.9008 21.4594C27.9008 22.3033 27.8703 22.8626 27.8093 23.1371ZM20.9457 17.9412C20.0509 17.9412 19.4307 18.3174 19.1053 19.0495C18.9019 19.5579 18.7901 20.3612 18.7901 21.4594C18.7901 22.5576 18.9019 23.371 19.1053 23.8998C19.4205 24.6725 19.9797 25.0589 20.8135 25.0589C21.7287 25.0589 22.3489 24.6827 22.6743 23.9201C22.8879 23.4117 22.9997 22.5982 22.9997 21.4594C22.9997 20.3205 22.9082 19.5274 22.7252 19.0495C22.41 18.3072 21.8202 17.9412 20.9457 17.9412ZM21.9422 23.1371C21.7795 23.8286 21.4236 24.1743 20.8847 24.1743C20.1323 24.1743 19.756 23.2693 19.756 21.4594C19.756 20.5951 19.7865 20.046 19.8374 19.802C19.9797 19.1614 20.3458 18.836 20.9254 18.836C21.4643 18.836 21.81 19.1715 21.9524 19.8325C22.0032 20.0867 22.0236 20.6256 22.0236 21.4594C22.0134 22.3033 21.9829 22.8626 21.9422 23.1371Z" fill="#004F9E"/>
<path d="M38.3335 12.9888C38.3335 13.4057 37.998 13.7412 37.5811 13.7412C37.1642 13.7412 36.8286 13.4057 36.8286 12.9888C36.8286 12.5719 37.1642 12.2363 37.5811 12.2363C37.998 12.2363 38.3335 12.5719 38.3335 12.9888Z" stroke="#004F9E" stroke-width="0.3" stroke-miterlimit="10"/>
<path d="M37.2148 12.6141C37.2962 12.6039 37.408 12.5938 37.5301 12.5938C37.6826 12.5938 37.7944 12.6039 37.8758 12.6446C37.9368 12.6751 37.9775 12.7259 37.9775 12.7971C37.9775 12.8886 37.8859 12.9496 37.7944 12.9801C37.8656 13.0005 37.9063 13.0513 37.9368 13.1123C37.9673 13.1937 37.9978 13.2852 38.0283 13.3157H37.7843C37.7639 13.2954 37.7436 13.2343 37.7131 13.1428C37.6826 13.0513 37.6419 13.031 37.5402 13.031H37.469V13.3157H37.2352L37.2148 12.6141ZM37.4589 12.9293H37.5504C37.6724 12.9293 37.7436 12.8886 37.7436 12.8276C37.7436 12.7564 37.6724 12.7259 37.5707 12.7259C37.5097 12.7259 37.4792 12.7259 37.4589 12.7361V12.9293Z" fill="#004F9E"/>
</g>
<defs>
<clipPath id="clip0_8459_11854">
<rect width="40" height="40" fill="white"/>
</clipPath>
</defs>
</svg>
