<svg width="40" height="40" viewBox="0 0 40 40" fill="none" xmlns="http://www.w3.org/2000/svg">
<g clip-path="url(#clip0_8459_9107)">
<path fill-rule="evenodd" clip-rule="evenodd" d="M35.981 7.37735H35.7017V4.36009H32.8901V4.09313H36L35.981 7.37735ZM7.10353 4.27317H4.27925V7.37735H4V4H7.10353V4.27317ZM4.27925 35.0977H7.10353V35.3709H4V32.1798H4.27925V35.0977ZM35.8858 35.3709H32.8901V35.0977H35.6255V32.1798H35.9048L35.8858 35.3709Z" fill="#045BA9"/>
<path fill-rule="evenodd" clip-rule="evenodd" d="M18.3373 8.4945V6.33398H17.2329V8.4945H18.3373ZM33.7724 33.328H26.0548V32.2229H21.6439V31.1302H23.8525V28.9883H21.6439V27.9081H20.5396V28.9883H19.4416V26.834H20.5396V25.7538H19.4416V24.6735H18.3373V25.7538H17.2329V27.9081H18.3373V28.9883H17.2329V33.3342H15.0306V27.9081H16.1286V26.834H15.0306V24.6735H10.6197V23.5932H9.51537V21.4389H8.41104V20.3587H10.6197V22.5192H11.7177V20.3587H12.822V19.2784H13.9263V18.2044H12.822V17.1241H11.7177V19.2784H10.6197V18.2044H9.51537V19.2784H8.41104V18.2044H7.30672V17.1241H6.23413V14.9884H11.7494V16.0439H12.8537V14.9884H16.1603V13.8896H15.0306V11.7291H16.1286V10.6426H15.0306V9.57475H18.3373V10.6426H17.2329V12.8031H18.3373V11.7291H20.5396V10.6426H19.4416V8.4945H20.5396V9.57475H21.6439V8.4945H22.7355V7.41424H23.8398V6.33398H24.9378V7.41424H23.8525V9.57475H24.9505V11.7291H23.8525V12.8093H24.9505V14.9884H26.0548V17.149H27.1782V14.9884H28.2825V18.2292H29.3805V17.1241H30.4848V18.2044H29.3615V20.3587H30.4658V19.2784H32.6744V18.2044H31.5701V14.9884H32.6744V17.149H33.7724V20.3835H32.6744V21.4638H33.7724V23.6181H32.6744V22.5192H31.5701V20.3587H30.4658V23.5932H31.5701V25.7538H33.7724V33.328ZM32.6744 32.2477V30.0686H31.5701V31.1302H30.4658V32.2043L32.6744 32.2477ZM18.3373 33.3031H19.4416V31.1302H20.5396V30.0686H18.3373V33.3031ZM30.4658 31.1302V28.9883H29.3615V30.0686H28.2635V31.1302H30.4658ZM26.0231 31.1302H27.1782V30.0686H26.0548L26.0231 31.1302ZM30.4658 27.8894H31.5701V26.834H30.4658V27.8894ZM28.2635 27.8894V24.6735H24.9505V27.9081L28.2635 27.8894ZM21.6439 27.8894H22.7355V26.834H21.6439V27.8894ZM22.7355 26.834H23.8398V25.7538H22.7355V26.834ZM26.0421 26.834H27.1782V25.7538H26.0548L26.0421 26.834ZM22.7355 25.7538V24.6735H23.8398V22.5192H22.7355V21.4389H21.6439V22.5192H19.4416V24.6735H21.6439V25.7538H22.7355ZM17.2202 25.7538V22.5192H16.1286V21.4389H15.0306V20.3587H12.822V21.4389H13.9263V22.5192H11.7177V23.5932H16.1603V25.7538H17.2202ZM29.3615 24.6735H30.4658V23.5932H29.3615V24.6735ZM29.3615 23.5932V20.3587H28.2635V19.2784H27.1782V20.3587H26.0548V19.2784H27.1782V18.2044H26.0548V17.1241H23.8525V18.2044H24.9505V21.4389H26.0548V22.5192H24.9505V23.5932H29.3615ZM6.23413 24.6735H7.33845V20.3276H6.23413V24.6735ZM27.1782 22.5192H28.2825V21.4389H27.1782V22.5192ZM22.7355 21.4389H23.8398V20.3587H22.7355V21.4389ZM21.6312 21.4389V20.3587H19.4416V18.2044H20.5396V19.2784H21.6439V18.2044H22.7355V17.1241H21.6439V16.0439H20.5396V17.1241H19.4416V16.0439H18.3373V18.2044H17.2329V16.0439H16.1286V17.1241H15.0306V18.2044H16.1286V19.2784H18.3373V20.3587H17.2329V21.4389H21.6312ZM22.7355 19.2784H23.8398V18.2044H22.7355V19.2784ZM23.8398 17.1241V16.0439H24.9378V14.9884H23.8525V12.8093H22.7355V17.1552L23.8398 17.1241ZM12.8093 17.1241H13.9136V16.0439H12.822L12.8093 17.1241ZM8.39835 17.1241H9.50267V16.0439H8.41104L8.39835 17.1241ZM20.5396 16.0439V14.9884H21.6439V12.8093H22.7355V11.7291H20.5396V13.8896H19.4416V16.0439H20.5396ZM17.2329 16.0439H18.3373V14.9884H17.2329V16.0439ZM29.3615 16.0439H30.4658V14.9884H29.3615V16.0439ZM18.3373 13.8896H19.4416V12.8093H18.3373V13.8896ZM16.1286 13.8896H17.2329V12.8093H16.1286V13.8896ZM22.7355 11.7291H23.8398V10.6426H22.7355V11.7291ZM15.0306 8.4945H16.1286V7.41424H15.0306V8.4945ZM19.4733 7.41424H20.5713V6.33398H19.4416L19.4733 7.41424Z" fill="#231F20"/>
<path fill-rule="evenodd" clip-rule="evenodd" d="M27.1783 7.41424H32.6936V12.8093H27.1783V7.41424ZM33.7725 13.8896V6.33398H26.0549V13.8896H33.7725Z" fill="#005AAA"/>
<path d="M31.5764 8.49414H28.2634V11.7287H31.5764V8.49414Z" fill="#005AAA"/>
<path fill-rule="evenodd" clip-rule="evenodd" d="M13.9263 13.8896V6.33398H6.23413V13.8896H13.9263ZM12.822 7.41424V12.8093H7.30672V7.41424H12.822Z" fill="#005AAA"/>
<path d="M11.7178 8.49414H8.41113V11.7287H11.7178V8.49414Z" fill="#005AAA"/>
<path fill-rule="evenodd" clip-rule="evenodd" d="M13.9263 25.7539H6.23413V33.3033H13.9263V25.7539ZM7.30672 32.223V26.8342H12.822V32.223H7.30672Z" fill="#ED1C24"/>
<path d="M11.7178 27.9082H8.41113V31.1428H11.7178V27.9082Z" fill="#ED1C24"/>
</g>
<defs>
<clipPath id="clip0_8459_9107">
<rect width="40" height="40" fill="white"/>
</clipPath>
</defs>
</svg>
