<svg width="40" height="40" viewBox="0 0 40 40" fill="none" xmlns="http://www.w3.org/2000/svg">
<g clip-path="url(#clip0_8459_6298)">
<path d="M40 7.5V27.5C40 28.8812 38.8812 30 37.5 30H7.5C6.11877 30 5 28.8812 5 27.5V7.5C5 6.11877 6.11877 5 7.5 5H37.5C38.8812 5 40 6.11877 40 7.5Z" fill="#2668ED"/>
<path d="M37.5 10V30H5V7.5H35C36.3812 7.5 37.5 8.61877 37.5 10Z" fill="#1458E0"/>
<path d="M32.5 35H2.5C1.11877 35 0 33.8812 0 32.5V12.5C0 11.1188 1.11877 10 2.5 10H32.5C33.8812 10 35 11.1188 35 12.5V32.5C35 33.8812 33.8812 35 32.5 35Z" fill="#40A2E7"/>
<path d="M0 16.25H35V21.25H0V16.25Z" fill="#57565C"/>
<path d="M5 27.5H8.75V30H5V27.5Z" fill="white"/>
<path d="M11.25 27.5H16.25V30H11.25V27.5Z" fill="white"/>
<path d="M18.75 27.5H23.75V30H18.75V27.5Z" fill="white"/>
<path d="M26.25 27.5H30V30H26.25V27.5Z" fill="white"/>
</g>
<defs>
<clipPath id="clip0_8459_6298">
<rect width="40" height="40" fill="white"/>
</clipPath>
</defs>
</svg>
