<svg width="40" height="40" viewBox="0 0 40 40" fill="none" xmlns="http://www.w3.org/2000/svg">
<g clip-path="url(#clip0_8459_10750)">
<path d="M29.5525 5.00117C25.6276 5.00117 22.4466 8.03149 22.4466 11.7658C22.4466 15.5 25.6357 18.5303 29.5525 18.5303C33.4693 18.5303 36.6666 15.5 36.6666 11.7658C36.6666 8.03149 33.4855 5.00117 29.5525 5.00117ZM29.5525 14.6526C27.916 14.6821 26.5649 13.3922 26.5338 11.7698C26.6217 10.1165 28.0445 8.84673 29.7121 8.93389C31.2566 9.01434 32.4915 10.2385 32.5726 11.7698C32.5402 13.3922 31.189 14.6821 29.5525 14.6526ZM20.4151 10.0817V18.5598H16.3117V10.0401C16.3117 9.38039 15.7721 8.84673 15.1066 8.84673C14.4426 8.84673 13.9029 9.38173 13.9029 10.0401V18.5585H9.81571V10.0401C9.81571 9.38039 9.27607 8.84673 8.61065 8.84673C7.94658 8.84673 7.40694 9.38173 7.40694 10.0401V18.5585H3.33325V10.0817C3.39682 7.22028 5.7826 4.94754 8.67016 5.00117C9.81842 4.99849 10.9369 5.3565 11.8674 6.02156C12.7979 5.35784 13.9151 4.99983 15.062 5.00117C17.9536 4.94084 20.3489 7.21492 20.4151 10.0817ZM29.5525 21.4413C25.6276 21.4413 22.4466 24.4676 22.4466 28.2059C22.4466 31.9442 25.6357 34.9826 29.5525 34.9826C33.4693 34.9826 36.6585 31.9576 36.6585 28.2233C36.6585 24.4891 33.4855 21.4413 29.5525 21.4413ZM29.5525 31.0928C27.9485 31.0311 26.6974 29.6916 26.7596 28.1013C26.8218 26.5111 28.173 25.2708 29.777 25.3325C31.3364 25.3928 32.5713 26.6626 32.5726 28.2099C32.5496 29.8337 31.2039 31.1317 29.566 31.1089C29.562 31.1089 29.5566 31.1089 29.5525 31.1089V31.0928ZM20.4151 26.5392V35H16.3117V26.4937C16.3117 25.834 15.7721 25.3003 15.1066 25.3003C14.4426 25.3003 13.9029 25.8353 13.9029 26.4937V35H9.81571V26.4937C9.81571 25.834 9.27607 25.3003 8.61065 25.3003C7.94658 25.3003 7.40694 25.8353 7.40694 26.4937V35H3.33325V26.5392C3.386 23.6725 5.77178 21.3904 8.66475 21.4413C8.6661 21.4413 8.6688 21.4413 8.67016 21.4413C9.81706 21.44 10.9356 21.7953 11.8674 22.4577C12.7979 21.794 13.9151 21.4386 15.0606 21.4413C17.955 21.3797 20.3516 23.6551 20.4138 26.5245C20.4151 26.5299 20.4151 26.5339 20.4151 26.5392Z" fill="#A50064"/>
</g>
<defs>
<clipPath id="clip0_8459_10750">
<rect width="40" height="40" fill="white"/>
</clipPath>
</defs>
</svg>
