<svg width="40" height="40" viewBox="0 0 40 40" fill="none" xmlns="http://www.w3.org/2000/svg">
<g clip-path="url(#clip0_8459_12975)">
<path fill-rule="evenodd" clip-rule="evenodd" d="M3.36111 6H36.4167C37.7186 6 38.7778 7.05918 38.7778 8.36111V31.9722C38.7778 33.2742 37.7186 34.3333 36.4167 34.3333H3.36111C2.05918 34.3333 1 33.2742 1 31.9722V8.36111C1 7.05918 2.05918 6 3.36111 6ZM23.5583 25.5403C24.3694 24.8561 24.7749 23.9534 24.7749 22.8319C24.7749 22.2113 24.6374 21.6682 24.3623 21.2027C24.0943 20.7372 23.6676 20.3105 23.0822 19.9226C22.5039 19.5347 21.5271 19.0763 20.1517 18.5473V15.4264C21.3084 15.5251 22.4369 15.8002 23.5372 16.2515L24.5316 13.776C23.2268 13.1976 21.7669 12.8732 20.1517 12.8027V11.2263H18.7024V12.845C17.2706 12.986 16.1527 13.388 15.3487 14.051C14.5517 14.7069 14.1532 15.5463 14.1532 16.5689C14.1532 17.5211 14.4424 18.3216 15.0207 18.9705C15.6061 19.6123 16.597 20.2083 17.9935 20.7584L18.7024 21.0334V24.3131C18.0253 24.2708 17.253 24.1332 16.3855 23.9005C15.525 23.6677 14.788 23.3997 14.1744 23.0964V25.8894C15.4721 26.4607 16.9814 26.764 18.7024 26.7992V28.9257H20.1517V26.7569C21.6117 26.6229 22.7472 26.2174 23.5583 25.5403ZM21.2308 22.2395C21.4706 22.444 21.5905 22.6944 21.5905 22.9906C21.5905 23.6607 21.1109 24.0768 20.1517 24.239V21.6047C20.6313 21.8234 20.991 22.035 21.2308 22.2395ZM17.655 17.3412C17.4434 17.1367 17.3376 16.8793 17.3376 16.5689C17.3376 15.9694 17.7925 15.6027 18.7024 15.4687V17.9548C18.2228 17.7432 17.8736 17.5387 17.655 17.3412Z" fill="#1AA260"/>
<path d="M38.7778 8.36111V31.9722C38.7778 33.2745 37.7182 34.3333 36.4167 34.3333H32.875C34.1766 34.3333 35.2361 33.2745 35.2361 31.9722V8.36111C35.2361 7.05881 34.1766 6 32.875 6H36.4167C37.7182 6 38.7778 7.05881 38.7778 8.36111Z" fill="#C2E7D1"/>
</g>
<defs>
<clipPath id="clip0_8459_12975">
<rect width="40" height="40" fill="white"/>
</clipPath>
</defs>
</svg>
