<svg width="15" height="14" viewBox="0 0 15 14" fill="none" xmlns="http://www.w3.org/2000/svg">
<g id="Group 13480">
<path id="Vector" d="M7.50182 2.25702L1.46948 8.28935C1.30541 8.43915 1.16328 8.61134 1.0473 8.80084C0.94724 8.99591 0.873526 9.2034 0.828093 9.41788V9.46659L0.097393 12.2514C0.0551904 12.4002 0.0253201 12.5523 0.00808523 12.706C-0.0123879 12.8798 0.0061384 13.056 0.0623162 13.2217C0.118494 13.3874 0.21091 13.5385 0.332841 13.6641C0.457488 13.7897 0.60974 13.8844 0.777472 13.9408C0.945203 13.9972 1.12378 14.0136 1.29899 13.9888C1.45056 13.9748 1.60023 13.9449 1.74553 13.8995L4.49783 13.2094H4.54654C4.77009 13.1688 4.98629 13.0949 5.18793 12.9902C5.36743 12.88 5.53128 12.7462 5.67507 12.5924L11.7561 6.49508L7.50182 2.25702Z" fill="#1AA260"/>
<path id="Vector_2" opacity="0.3" d="M13.6238 2.43567C13.4233 2.1859 13.2092 1.94739 12.9824 1.7212L12.3248 1.06357C12.0976 0.823885 11.8504 0.603888 11.586 0.405944C11.2806 0.149863 10.8965 0.00653954 10.4981 0C10.1002 0.00974682 9.71713 0.152688 9.41014 0.405944C9.15766 0.60907 8.91898 0.828765 8.69567 1.06357L8.31409 1.44516L12.5684 5.68322L12.9824 5.32599C13.2215 5.10437 13.444 4.86558 13.6482 4.61153C13.9013 4.30507 14.0418 3.92107 14.046 3.5236C14.0317 3.12378 13.883 2.74049 13.6238 2.43567Z" fill="#1AA260"/>
</g>
</svg>
