<svg width="17" height="20" viewBox="0 0 17 20" fill="none" xmlns="http://www.w3.org/2000/svg">
<g id="Group 90301">
<path id="Vector" opacity="0.3" d="M9.7395 19.4792L9.7395 0.000173569C4.36058 0.000173098 -3.39643e-05 4.36134 -3.44345e-05 9.73971C-3.49047e-05 15.1181 4.36058 19.4792 9.7395 19.4792Z" fill="#121826"/>
<path id="Vector_2" d="M16.2063 10.0094C16.2107 9.9994 16.2146 9.98913 16.2185 9.97887C16.2751 9.82506 16.2751 9.65613 16.2185 9.50231C16.2146 9.49205 16.2107 9.48178 16.2063 9.4718C16.1715 9.38887 16.1209 9.3135 16.0573 9.24988L13.35 6.55363C13.2858 6.48753 13.2092 6.43486 13.1245 6.39869C13.0399 6.36253 12.9488 6.34358 12.8568 6.34297C12.7647 6.34236 12.6734 6.36009 12.5883 6.39513C12.5031 6.43016 12.4258 6.48181 12.3608 6.54704C12.2958 6.61228 12.2445 6.68981 12.2098 6.77509C12.1751 6.86038 12.1577 6.95173 12.1587 7.0438C12.1597 7.13587 12.179 7.22683 12.2155 7.31136C12.252 7.39589 12.305 7.47231 12.3713 7.53615L13.8889 9.04766L4.43372 9.04766C4.24979 9.04766 4.0734 9.12073 3.94335 9.25078C3.8133 9.38083 3.74023 9.55722 3.74023 9.74115C3.74023 9.92507 3.8133 10.1015 3.94335 10.2315C4.0734 10.3616 4.24979 10.4346 4.43372 10.4346H13.8886L12.371 11.9445C12.3034 12.008 12.2492 12.0845 12.2117 12.1693C12.1742 12.2542 12.154 12.3457 12.1525 12.4385C12.151 12.5313 12.1681 12.6234 12.2028 12.7094C12.2376 12.7955 12.2892 12.8737 12.3547 12.9394C12.4202 13.0051 12.4982 13.057 12.5842 13.092C12.6701 13.1271 12.7622 13.1445 12.8549 13.1433C12.9477 13.1421 13.0393 13.1223 13.1243 13.085C13.2093 13.0478 13.2859 12.9938 13.3497 12.9264L16.057 10.2302C16.1206 10.1666 16.1712 10.0912 16.206 10.0083L16.2063 10.0094Z" fill="#121826"/>
</g>
</svg>
