<svg width="20" height="20" viewBox="0 0 20 20" fill="none" xmlns="http://www.w3.org/2000/svg">
<g id="Group 90348">
<path id="Vector" d="M19.9162 16.6666L13.2495 5.11999C13.2058 5.04347 13.1474 4.97639 13.0776 4.9226C13.0078 4.86882 12.928 4.82941 12.8429 4.80665C12.7582 4.7839 12.6698 4.77807 12.5829 4.78951C12.4959 4.80095 12.4121 4.82943 12.3362 4.87332L8.29619 7.20665C8.2198 7.2502 8.15278 7.30844 8.09899 7.37801C8.0452 7.44757 8.0057 7.52709 7.98278 7.61198C7.95985 7.69688 7.95394 7.78547 7.9654 7.87265C7.97685 7.95984 8.00544 8.0439 8.04952 8.11998L14.7162 19.6666C14.7749 19.7684 14.8595 19.8528 14.9613 19.9113C15.0632 19.9699 15.1787 20.0004 15.2962 20C15.4125 19.9993 15.5267 19.9681 15.6272 19.9097C15.7278 19.8512 15.8113 19.7674 15.8695 19.6666L17.0295 17.6666H19.3362C19.4537 17.6671 19.5692 17.6365 19.671 17.578C19.7729 17.5195 19.8574 17.435 19.9162 17.3333C19.9747 17.232 20.0055 17.117 20.0055 17C20.0055 16.883 19.9747 16.768 19.9162 16.6666Z" fill="#B4B6BB"/>
<path id="Vector_2" d="M11.7093 7.20667L7.66931 4.87334C7.51486 4.78806 7.3339 4.76425 7.16264 4.80667C7.07752 4.82943 6.99774 4.86884 6.92794 4.92262C6.85814 4.97641 6.79969 5.04349 6.75598 5.12L0.0893163 16.6667C0.0308042 16.768 0 16.883 0 17C0 17.117 0.0308042 17.232 0.0893163 17.3333C0.148052 17.4351 0.232628 17.5195 0.33448 17.578C0.436332 17.6365 0.551843 17.6671 0.669316 17.6667H2.97598L4.13598 19.6667C4.19415 19.7674 4.27768 19.8512 4.37826 19.9097C4.47884 19.9682 4.59297 19.9993 4.70931 20C4.82679 20.0005 4.9423 19.9699 5.04415 19.9113C5.146 19.8528 5.23058 19.7684 5.28931 19.6667L11.956 8.12C12.0001 8.04391 12.0286 7.95986 12.0401 7.87267C12.0516 7.78548 12.0456 7.69689 12.0227 7.612C11.9998 7.52711 11.9603 7.44759 11.9065 7.37802C11.8527 7.30846 11.7857 7.25022 11.7093 7.20667Z" fill="#B4B6BB"/>
<path id="Vector_3" d="M10.0027 16C14.421 16 18.0027 12.4183 18.0027 7.99999C18.0027 3.58172 14.421 0 10.0027 0C5.5844 0 2.00269 3.58172 2.00269 7.99999C2.00269 12.4183 5.5844 16 10.0027 16Z" fill="#121826"/>
<path id="Vector_4" d="M14.6696 6.22003C14.6315 6.10245 14.5614 5.99779 14.4672 5.91774C14.3731 5.83768 14.2585 5.78539 14.1363 5.7667L11.7163 5.41337L10.603 3.2067C10.5484 3.09399 10.4631 2.99893 10.357 2.93242C10.2509 2.8659 10.1282 2.83063 10.003 2.83063C9.87773 2.83063 9.75502 2.8659 9.6489 2.93242C9.54279 2.99893 9.45755 3.09399 9.40296 3.2067L8.32296 5.41337L5.90297 5.7667C5.7795 5.78461 5.66354 5.83681 5.56828 5.91736C5.47301 5.9979 5.40225 6.10357 5.36405 6.22233C5.32585 6.34109 5.32174 6.46819 5.35219 6.58917C5.38264 6.71016 5.44643 6.82017 5.5363 6.9067L7.28963 8.6267L6.8763 11.0534C6.8525 11.1783 6.86496 11.3075 6.91221 11.4257C6.95947 11.5438 7.03953 11.6459 7.14297 11.72C7.24015 11.7858 7.35297 11.8247 7.47003 11.8329C7.58709 11.8411 7.70423 11.8183 7.80963 11.7667L10.003 10.6134L12.163 11.7534C12.2593 11.8053 12.3669 11.8328 12.4763 11.8334C12.6152 11.8325 12.7504 11.7882 12.863 11.7067C12.9664 11.6326 13.0465 11.5305 13.0937 11.4123C13.141 11.2942 13.1534 11.165 13.1296 11.04L12.7163 8.61336L14.4696 6.89336C14.5623 6.81087 14.6302 6.70413 14.6655 6.58517C14.7008 6.46622 14.7023 6.33976 14.6696 6.22003Z" fill="#B4B6BB"/>
</g>
</svg>
