<svg width="30" height="31" viewBox="0 0 30 31" fill="none" xmlns="http://www.w3.org/2000/svg">
<g id="general/View_hide/mix">
<path id="Subtract" fill-rule="evenodd" clip-rule="evenodd" d="M19.7946 16.9231C19.9282 16.4721 20 15.9944 20 15.5C20 12.7386 17.7614 10.5 15 10.5C14.5056 10.5 14.0279 10.5718 13.5769 10.7054L19.7946 16.9231ZM11.0556 12.4268C10.3941 13.2747 10 14.3413 10 15.5C10 18.2614 12.2386 20.5 15 20.5C16.1587 20.5 17.2253 20.1059 18.0732 19.4444L11.0556 12.4268Z" fill="white"/>
<path id="Subtract_2" opacity="0.3" fill-rule="evenodd" clip-rule="evenodd" d="M22.515 19.6439C23.7884 18.5349 24.7994 17.3795 25.4467 16.5713C25.8312 16.0912 26.0235 15.8511 26.0235 15.5C26.0235 15.1489 25.8312 14.9088 25.4467 14.4287C23.7869 12.3562 19.735 8 14.9998 8C13.811 8 12.6653 8.27455 11.5897 8.7186L22.515 19.6439ZM20.0693 21.4408L8.87892 10.2505C6.9451 11.6342 5.42146 13.3441 4.55289 14.4287C4.16835 14.9088 3.97607 15.1489 3.97607 15.5C3.97607 15.8511 4.16835 16.0912 4.55289 16.5713C6.21269 18.6438 10.2646 23 14.9998 23C16.8235 23 18.5459 22.3538 20.0693 21.4408Z" fill="#121826"/>
<path id="Subtract_3" fill-rule="evenodd" clip-rule="evenodd" d="M19.7946 16.9231C19.9282 16.4721 20 15.9944 20 15.5C20 12.7386 17.7614 10.5 15 10.5C14.5056 10.5 14.0279 10.5718 13.5769 10.7054L19.7946 16.9231ZM11.0556 12.4268C10.3941 13.2747 10 14.3413 10 15.5C10 18.2614 12.2386 20.5 15 20.5C16.1587 20.5 17.2253 20.1059 18.0732 19.4444L11.0556 12.4268Z" fill="#121826"/>
<path id="Vector 116 (Stroke)" fill-rule="evenodd" clip-rule="evenodd" d="M25 22.8107L10 7.81066L11.0607 6.75L26.0607 21.75L25 22.8107Z" fill="#121826"/>
</g>
</svg>
