<svg width="18" height="18" viewBox="0 0 18 18" fill="none" xmlns="http://www.w3.org/2000/svg">
<g id="Group">
<path id="Vector" opacity="0.3" d="M1.31813 16.6819C2.63627 18 4.75738 18 9.00013 18C13.2426 18 15.364 18 16.6821 16.6819C18.0003 15.3637 18.0003 13.2424 18.0003 8.99987C18.0003 4.75738 18.0003 2.636 16.6821 1.31786C15.364 0 13.2426 0 8.99986 0C4.75738 0 2.636 0 1.31813 1.31813C0 2.636 0 4.75738 0 9.00014C0 13.2426 0 15.364 1.31813 16.6819Z" fill="#121826"/>
<path id="Vector_2" d="M4.49995 13.8599C4.12708 13.8599 3.82495 14.1621 3.82495 14.5349C3.82495 14.9078 4.12708 15.2099 4.49995 15.2099H13.4998C13.8727 15.2099 14.1748 14.9078 14.1748 14.5349C14.1748 14.1621 13.8727 13.8599 13.4998 13.8599H4.49995Z" fill="#121826"/>
<path id="Vector_3" d="M5.18855 9.0428C5.17532 8.81466 5.17505 8.50875 5.17505 8.0619V0.196839C6.21535 0.13501 7.46977 0.13501 9.00012 0.13501C10.5305 0.13501 11.7849 0.13501 12.8252 0.196839V8.0619C12.8252 8.50902 12.8249 8.81493 12.8117 9.0428C12.7982 9.27905 12.7731 9.35168 12.7669 9.36572C12.6346 9.6638 12.3079 9.82472 11.9906 9.74777C11.9758 9.74426 11.9031 9.71942 11.7077 9.58631C11.5189 9.45752 11.2765 9.27122 10.9222 8.99852L10.862 8.95208C10.5289 8.69505 10.2691 8.49498 9.98642 8.37213C9.35733 8.09889 8.64318 8.09889 8.01408 8.37213C7.73113 8.49498 7.47166 8.69505 7.13848 8.95208L7.07827 8.99852C6.72403 9.27122 6.48157 9.45779 6.29284 9.58631C6.09736 9.71969 6.02446 9.74426 6.00988 9.74777C5.69291 9.82472 5.36621 9.66407 5.23364 9.36572C5.22716 9.35168 5.20232 9.27905 5.18855 9.0428Z" fill="#121826"/>
</g>
</svg>
