<svg width="24" height="24" viewBox="0 0 24 24" fill="none" xmlns="http://www.w3.org/2000/svg">
<path fill-rule="evenodd" clip-rule="evenodd" d="M2 11.1204V12.8804C2 13.9204 2.85 14.7804 3.9 14.7804C5.71 14.7804 6.45 16.0604 5.54 17.6304C5.02 18.5304 5.33 19.7004 6.24 20.2204L7.97 21.2104C8.76 21.6804 9.78 21.4004 10.25 20.6104L10.36 20.4204C11.27 18.8504 12.75 18.8504 13.65 20.4204L13.76 20.6104C14.23 21.4004 15.25 21.6804 16.04 21.2104L17.77 20.2204C18.68 19.7004 18.99 18.5404 18.47 17.6304C17.56 16.0604 18.3 14.7804 20.11 14.7804C21.16 14.7804 22.01 13.9204 22.01 12.8804V11.1204C22.01 10.0704 21.15 9.22043 20.11 9.22043C18.3 9.22043 17.56 7.94042 18.47 6.37042C18.99 5.47042 18.68 4.30042 17.77 3.78042L16.04 2.79042C15.25 2.32042 14.23 2.60042 13.76 3.39042L13.65 3.58042C12.74 5.15042 11.26 5.15042 10.36 3.58042L10.25 3.39042C9.78 2.60042 8.76 2.32042 7.97 2.79042L6.24 3.78042C5.33 4.30042 5.02 5.47042 5.54 6.37042C6.45 7.94042 5.71 9.22043 3.9 9.22043C2.85 9.22043 2 10.0804 2 11.1204ZM15.25 12C15.25 13.7949 13.7949 15.25 12 15.25C10.2051 15.25 8.75 13.7949 8.75 12C8.75 10.2051 10.2051 8.75 12 8.75C13.7949 8.75 15.25 10.2051 15.25 12Z" fill="#121826"/>
</svg>
