<svg width="26" height="26" viewBox="0 0 26 26" fill="none" xmlns="http://www.w3.org/2000/svg">
<g id="Group 13392">
<path id="Vector" d="M11.9454 0.70103C12.1993 0.401451 12.5782 0.210938 13.0001 0.210938C13.422 0.210938 13.8009 0.401461 14.0549 0.70103L17.9103 4.5915C18.4533 5.13941 18.4533 6.02632 17.9103 6.57423C17.3687 7.12084 16.4884 7.12084 15.9467 6.57423L14.3894 5.75275V16.9644C14.3894 17.7383 13.7669 18.3664 13 18.3664C12.233 18.3664 11.6106 17.7383 11.6106 16.9644V5.75275L10.0532 6.57423C9.51154 7.12084 8.6313 7.12084 8.08961 6.57423C7.54663 6.02632 7.54663 5.13941 8.08961 4.5915L11.9454 0.70103Z" fill="#121826"/>
<path id="Vector_2" opacity="0.3" d="M22.7226 8.52393H21.3332C20.5662 8.52393 19.9451 9.152 19.9451 9.92592C19.9451 10.6998 20.5662 11.3266 21.3332 11.3266H22.7226V22.4086H3.27744V11.3266H4.66683C5.4338 11.3266 6.05492 10.6998 6.05492 9.92592C6.05492 9.152 5.4338 8.52393 4.66683 8.52393H3.27744C1.74355 8.52393 0.5 9.77872 0.5 11.3266V22.4086C0.5 23.9564 1.74352 25.2112 3.27744 25.2112H22.7226C24.2565 25.2112 25.5 23.9564 25.5 22.4086V11.3266C25.5 9.77876 24.2565 8.52393 22.7226 8.52393Z" fill="#121826"/>
</g>
</svg>
