<svg width="22" height="22" viewBox="0 0 22 22" fill="none" xmlns="http://www.w3.org/2000/svg">
<g id="support">
<path id="Vector" opacity="0.3" fill-rule="evenodd" clip-rule="evenodd" d="M19.5801 8.998C19.2391 5.5 17.1711 0 10.7801 0C4.38905 0 2.32105 5.5 1.98005 8.998C0.783815 9.452 -0.00524099 10.6005 2.62094e-05 11.88V13.42C2.62094e-05 15.121 1.37902 16.5 3.08005 16.5C4.78109 16.5 6.16005 15.121 6.16005 13.42V11.88C6.15452 10.6281 5.39445 9.50323 4.23505 9.031C4.45505 7.007 5.53305 2.2 10.7801 2.2C16.0271 2.2 17.0941 7.007 17.3141 9.031C16.157 9.50425 15.4008 10.6299 15.4001 11.88V13.42C15.4048 14.6025 16.0838 15.6786 17.1491 16.192C16.6871 17.061 15.5101 18.238 12.6171 18.59C12.0388 17.7119 10.9199 17.3657 9.94674 17.7638C8.97356 18.1619 8.41812 19.1929 8.62106 20.2246C8.824 21.2563 9.7286 22 10.7801 22C11.6109 21.9954 12.3683 21.5231 12.7381 20.779C17.4571 20.24 18.9641 17.809 19.4371 16.379C20.7167 15.9645 21.5773 14.765 21.5601 13.42V11.88C21.5653 10.6005 20.7763 9.452 19.5801 8.998ZM3.96005 13.42C3.96005 13.906 3.56606 14.3 3.08005 14.3C2.59404 14.3 2.20005 13.906 2.20005 13.42V11.88C2.20005 11.5656 2.36778 11.2751 2.64005 11.1179C2.91233 10.9607 3.24778 10.9607 3.52005 11.1179C3.79233 11.2751 3.96005 11.5656 3.96005 11.88V13.42ZM17.6001 11.88C17.6001 11.394 17.994 11 18.4801 11C18.9661 11 19.3601 11.394 19.3601 11.88V13.42C19.3601 13.906 18.9661 14.3 18.4801 14.3C17.994 14.3 17.6001 13.906 17.6001 13.42V11.88Z" fill="#121826"/>
<rect id="Rectangle 4160" y="8.79999" width="6.6" height="7.7" rx="3.3" fill="#121826"/>
<rect id="Rectangle 4161" x="15.3999" y="8.79999" width="6.6" height="7.7" rx="3.3" fill="#121826"/>
</g>
</svg>
