<svg width="16" height="17" viewBox="0 0 16 17" fill="none" xmlns="http://www.w3.org/2000/svg">
<g id="trush-square">
<path id="Vector" d="M14.6824 3.24637C13.4247 3.14322 12.682 3.07875 11.5591 3.01428L11.4393 2.39538C11.3345 1.77648 11.1099 0.5 8.84895 0.5H6.7677C4.53672 0.5 4.29716 1.72491 4.17738 2.38249L4.05759 2.98849C3.41375 3.02717 2.78489 3.05296 2.14105 3.10454L0.919233 3.24637C0.350259 3.29795 -0.054013 3.72344 0.00587902 4.2134C0.065771 4.66469 0.5 5.01282 1.02405 5.01282C1.054 5.01282 1.09891 5.01282 1.12885 5.01282L2.33568 4.87099C3.23406 4.80652 4.14741 4.74205 5.04579 4.70337C6.8725 4.6389 8.69922 4.66468 10.5409 4.74205C11.9034 4.79362 12.9156 4.88388 14.4728 5.01282C14.5028 5.01282 14.5327 5.01282 14.5626 5.01282C15.0867 5.01282 15.5359 4.66469 15.5808 4.2134C15.6557 3.72344 15.2514 3.28505 14.6824 3.24637Z" fill="#121826"/>
<path id="Vector_2" opacity="0.3" d="M13.196 6.2848C12.9563 5.98893 12.6037 5.83322 12.2512 5.83322H3.33842C2.98585 5.83322 2.6333 6.00451 2.39355 6.2848C2.15381 6.58066 2.02688 6.96996 2.05509 7.35926L2.49228 13.5257C2.5769 14.8493 2.6756 16.4999 5.38327 16.4999H10.2063C12.914 16.4999 13.0127 14.8493 13.0973 13.5257L13.5345 7.35926C13.5627 6.96996 13.4358 6.58066 13.196 6.2848Z" fill="#121826"/>
</g>
</svg>
