<svg width="61" height="60" viewBox="0 0 61 60" fill="none" xmlns="http://www.w3.org/2000/svg">
<g id="Icons / Code / Warning 2">
<path id="Path 117" opacity="0.3" fill-rule="evenodd" clip-rule="evenodd" d="M28.4175 11.2485L7.56339 48.7859C6.89286 49.9929 7.32772 51.5149 8.53468 52.1854C8.90607 52.3917 9.32392 52.5 9.74878 52.5H53.5424C54.9231 52.5 56.0424 51.3807 56.0424 50C56.0424 49.54 55.9154 49.0889 55.6756 48.6964L32.7361 11.159C32.0161 9.98089 30.4774 9.60948 29.2992 10.3294C28.9309 10.5545 28.6271 10.8712 28.4175 11.2485Z" fill="#DB0D0D"/>
<path id="Rectangle 9" d="M33 25C33 23.6193 31.8807 22.5 30.5 22.5C29.1193 22.5 28 23.6193 28 25V37.5C28 38.8807 29.1193 40 30.5 40C31.8807 40 33 38.8807 33 37.5V25Z" fill="#DB0D0D"/>
<path id="Rectangle 9 Copy" d="M33 45C33 43.6193 31.8807 42.5 30.5 42.5C29.1193 42.5 28 43.6193 28 45C28 46.3807 29.1193 47.5 30.5 47.5C31.8807 47.5 33 46.3807 33 45Z" fill="#DB0D0D"/>
</g>
</svg>
