<svg width="18" height="15" viewBox="0 0 18 15" fill="none" xmlns="http://www.w3.org/2000/svg">
<g id="Group 13451">
<path id="Rectangle 20" d="M16.3125 0H6.1875C5.25552 0 4.5 0.755519 4.5 1.6875C4.5 2.61948 5.25552 3.375 6.1875 3.375H16.3125C17.2445 3.375 18 2.61948 18 1.6875C18 0.755519 17.2445 0 16.3125 0Z" fill="#121826"/>
<path id="Combined Shape" opacity="0.3" fill-rule="evenodd" clip-rule="evenodd" d="M6.1875 11.25H16.3125C17.2445 11.25 18 12.0055 18 12.9375C18 13.8695 17.2445 14.625 16.3125 14.625H6.1875C5.25552 14.625 4.5 13.8695 4.5 12.9375C4.5 12.0055 5.25552 11.25 6.1875 11.25ZM6.1875 5.625H16.3125C17.2445 5.625 18 6.38052 18 7.3125C18 8.24448 17.2445 9 16.3125 9H6.1875C5.25552 9 4.5 8.24448 4.5 7.3125C4.5 6.38052 5.25552 5.625 6.1875 5.625Z" fill="#121826"/>
<circle id="Ellipse 501" cx="1.6875" cy="1.6875" r="1.6875" fill="#121826"/>
<circle id="Ellipse 502" opacity="0.3" cx="1.6875" cy="7.3125" r="1.6875" fill="#121826"/>
<circle id="Ellipse 503" opacity="0.3" cx="1.6875" cy="12.9375" r="1.6875" fill="#121826"/>
</g>
</svg>
