<svg width="24" height="23" viewBox="0 0 24 23" fill="none" xmlns="http://www.w3.org/2000/svg">
<g id="Group 13475">
<path id="Union" fill-rule="evenodd" clip-rule="evenodd" d="M5.43732 1.1875C5.43732 0.669733 5.85705 0.25 6.37482 0.25C6.89258 0.25 7.31232 0.669733 7.31232 1.1875V2.125C7.31232 2.64277 6.89258 3.0625 6.37482 3.0625C5.85705 3.0625 5.43732 2.64277 5.43732 2.125V1.1875ZM16.6873 1.1875C16.6873 0.669733 17.107 0.25 17.6248 0.25C18.1426 0.25 18.5623 0.669733 18.5623 1.1875V2.125C18.5623 2.64277 18.1426 3.0625 17.6248 3.0625C17.107 3.0625 16.6873 2.64277 16.6873 2.125V1.1875ZM15.7504 2.12482V1.18768H8.25018V2.125C8.25018 3.16053 7.41072 4 6.37518 4C5.33965 4 4.50018 3.16053 4.50018 2.125V1.18768H4.5C2.42893 1.18768 0.75 2.86662 0.75 4.93768V5.56268C0.75 6.25304 1.30964 6.81268 2 6.81268H22C22.6904 6.81268 23.25 6.25304 23.25 5.56268V4.93768C23.25 2.86674 21.5713 1.18788 19.5004 1.18768V2.12482C19.5004 3.16035 18.6609 3.99982 17.6254 3.99982C16.5898 3.99982 15.7504 3.16035 15.7504 2.12482Z" fill="#121826"/>
<g id="Group 13474" opacity="0.3">
<path id="Exclude" d="M0.75 9.9375C0.75 9.24714 1.30964 8.6875 2 8.6875H22C22.6904 8.6875 23.25 9.24714 23.25 9.9375V19C23.25 21.0711 21.5711 22.75 19.5 22.75H4.5C2.42893 22.75 0.75 21.0711 0.75 19V9.9375Z" fill="#121826"/>
<ellipse id="Ellipse 550" opacity="0.4" cx="5.82234" cy="13.0308" rx="1.83894" ry="1.83894" fill="white"/>
<ellipse id="Ellipse 551" opacity="0.4" cx="12.0001" cy="13.0308" rx="1.83894" ry="1.83894" fill="white"/>
<ellipse id="Ellipse 552" cx="18.1778" cy="13.0308" rx="1.83894" ry="1.83894" fill="white"/>
<ellipse id="Ellipse 550_2" opacity="0.4" cx="5.82234" cy="18.6197" rx="1.83894" ry="1.83894" fill="white"/>
<ellipse id="Ellipse 551_2" opacity="0.4" cx="12.0001" cy="18.6197" rx="1.83894" ry="1.83894" fill="white"/>
<ellipse id="Ellipse 552_2" cx="18.1778" cy="18.6197" rx="1.83894" ry="1.83894" fill="white"/>
</g>
</g>
</svg>
