<svg width="40" height="41" viewBox="0 0 40 41" fill="none" xmlns="http://www.w3.org/2000/svg">
<path opacity="0.3" d="M12.7293 24.8354L6.35343 18.5341C6.27233 18.4552 6.23617 18.3423 6.2548 18.2316C6.27453 18.1231 6.34576 18.0322 6.44548 17.9872L8.17038 17.2245C8.31942 17.1587 8.49037 17.1653 8.63392 17.2442L12.612 19.4042L17.0842 17.3089L10.4235 9.7757C10.3523 9.69461 10.3238 9.58393 10.3446 9.47872C10.3665 9.37352 10.4367 9.28694 10.5331 9.24311L13.2399 8.04533C13.3933 7.97738 13.5698 7.98615 13.7144 8.06944L24.136 13.9982L29.6462 11.4119C30.353 11.0798 31.1662 11.0546 31.8905 11.3472C32.6248 11.6409 33.2089 12.2196 33.5091 12.9516C33.8215 13.688 33.8302 14.5176 33.5343 15.2606C33.2505 15.996 32.6774 16.5833 31.9497 16.888L12.8728 24.8582H12.8278C12.7939 24.8637 12.7589 24.854 12.7293 24.8354Z" fill="#121826"/>
<rect x="6.25" y="31.375" width="27.5" height="2.75" rx="1.375" fill="#121826"/>
</svg>
