<svg width="40" height="41" viewBox="0 0 40 41" fill="none" xmlns="http://www.w3.org/2000/svg">
<path opacity="0.3" d="M9.44214 20.946L7.63261 12.1662C7.60891 12.0556 7.64143 11.9416 7.71833 11.8599C7.79492 11.7805 7.90464 11.7444 8.01254 11.7623L9.87083 12.0845C10.0313 12.1125 10.1699 12.2128 10.2456 12.3581L12.3573 16.362L17.2406 17.0994L15.8775 7.13672C15.8632 7.02973 15.9009 6.92184 15.9766 6.84585C16.0532 6.77048 16.1596 6.73735 16.2641 6.75437L19.1807 7.2593C19.3461 7.28787 19.488 7.39304 19.5622 7.54258L24.9445 18.2566L30.9639 19.1613C31.7362 19.2771 32.4267 19.7073 32.8671 20.3525C33.3151 21.0042 33.4801 21.8096 33.3239 22.5853C33.1752 23.3713 32.7223 24.0664 32.064 24.5205C31.4199 24.9748 30.6172 25.1456 29.8428 24.9955L9.54877 21.0446L9.51139 21.0197C9.48008 21.0054 9.45642 20.9779 9.44214 20.946Z" fill="#121826"/>
<rect x="6.25" y="30.6226" width="27.5" height="2.75" rx="1.375" fill="#121826"/>
</svg>
