<svg width="40" height="40" viewBox="0 0 40 40" fill="none" xmlns="http://www.w3.org/2000/svg">
<g clip-path="url(#clip0_8976_8808)">
<path opacity="0.3" d="M20.3248 6.55078C24.3328 6.66995 28.0669 7.7247 31.4201 9.93554C34.9364 12.2642 37.2815 15.4695 38.3116 19.594C38.3535 19.7316 38.3502 19.879 38.3021 20.0146C38.254 20.1503 38.1637 20.2669 38.0445 20.3474C37.9341 20.4422 37.7934 20.4944 37.6479 20.4944C37.5024 20.4944 37.3617 20.4422 37.2514 20.3474C36.8267 20.0213 36.4295 19.6625 36.0007 19.3364C33.9159 17.7201 31.2064 17.979 29.2216 19.6282C28.4291 20.287 27.7618 21.0832 27.2518 21.9788C27.1834 22.0966 27.1149 22.2171 27.0395 22.3294C26.6779 22.865 26.1218 22.8664 25.7588 22.3294C25.3958 21.7925 25.1026 21.2542 24.7095 20.7706C23.7671 19.6145 22.6274 18.7159 21.133 18.3872C19.3522 17.9899 17.7989 18.4968 16.4113 19.62C15.6071 20.2824 14.9339 21.0894 14.4265 21.9993C14.3634 22.1075 14.3073 22.2171 14.2319 22.3212C13.8594 22.8692 13.3019 22.8692 12.9306 22.313C12.5594 21.7569 12.2375 21.1802 11.817 20.6693C10.8828 19.5556 9.74998 18.7105 8.29389 18.3872C6.63643 18.0201 5.15158 18.3968 3.83383 19.4543C3.52289 19.7049 3.22427 19.9707 2.91607 20.2241C2.55307 20.5213 2.2709 20.5638 1.98187 20.3761C1.69284 20.1885 1.60107 19.894 1.72024 19.4392C2.92155 14.8956 5.7036 11.5752 9.69656 9.22462C12.3786 7.64525 15.3127 6.84392 18.4167 6.63708C19.0481 6.59598 19.6865 6.57955 20.3248 6.55078Z" fill="#121826"/>
<path d="M21.4084 25.9806C21.4084 27.9436 21.4084 29.9065 21.4084 31.8708C21.3988 34.2446 20.2783 35.9733 18.2222 37.0692C16.0881 38.202 13.417 37.6897 11.7431 35.9322C10.7322 34.872 10.161 33.6337 10.1199 32.1612C10.0966 31.3215 10.6294 30.6681 11.3869 30.6106C12.2088 30.5476 12.8937 31.0845 12.9156 31.9543C12.9458 33.3488 14.1156 34.4693 15.0525 34.7282C16.8332 35.2186 18.3989 33.7227 18.551 32.3228C18.5711 32.0951 18.5789 31.8665 18.5743 31.6379C18.5743 27.6198 18.5743 23.6018 18.5743 19.5837C18.5743 19.2933 18.6523 19.1659 18.9427 19.0961C19.6304 18.9266 20.3492 18.929 21.0358 19.1029C21.3097 19.1714 21.4193 19.2782 21.4166 19.581C21.4015 21.7137 21.4084 23.8479 21.4084 25.9806Z" fill="#121826"/>
<path d="M18.644 5.89898C18.644 5.02642 18.5824 4.18263 18.6646 3.3539C18.7221 2.76078 19.3892 2.33066 19.996 2.33203C20.6028 2.3334 21.2535 2.76489 21.3247 3.35938C21.4206 4.14701 21.3877 4.95108 21.3973 5.74693C21.3973 5.79625 21.2822 5.88391 21.2192 5.89213C20.3549 5.90172 19.4906 5.89898 18.644 5.89898Z" fill="#121826"/>
</g>
<defs>
<clipPath id="clip0_8976_8808">
<rect width="36.6667" height="35.338" fill="white" transform="translate(1.66675 2.33203)"/>
</clipPath>
</defs>
</svg>
