<svg width="40" height="40" viewBox="0 0 40 40" fill="none" xmlns="http://www.w3.org/2000/svg">
<g clip-path="url(#clip0_8976_7331)">
<path opacity="0.3" fill-rule="evenodd" clip-rule="evenodd" d="M5.73091 10.1429C5.82098 8.5525 7.1383 7.30979 8.73124 7.31252L16.2363 7.32534L23.7478 7.3125C25.3381 7.30979 26.6542 8.54846 26.7477 10.136L27.4227 21.5875L26.7474 33.0438C26.654 34.6293 25.3409 35.8673 23.7526 35.8673H8.72638C7.13542 35.8673 5.82114 34.6253 5.73118 33.0369L5.08276 21.5875L5.73091 10.1429ZM9.65308 13.7813C9.65308 13.2205 10.1077 12.7658 10.6685 12.7658C11.2293 12.7658 11.684 13.2205 11.684 13.7813V24.0627C11.684 24.6236 11.2293 25.0782 10.6685 25.0782C10.1077 25.0782 9.65308 24.6236 9.65308 24.0627V13.7813ZM10.6685 27.363C10.1077 27.363 9.65308 27.8176 9.65308 28.3785V29.267C9.65308 29.8278 10.1077 30.2824 10.6685 30.2824C11.2293 30.2824 11.684 29.8278 11.684 29.267V28.3785C11.684 27.8176 11.2293 27.363 10.6685 27.363ZM15.2358 13.7813C15.2358 13.2205 15.6904 12.7658 16.2512 12.7658C16.812 12.7658 17.2667 13.2205 17.2667 13.7813V29.2669C17.2667 29.8278 16.812 30.2824 16.2512 30.2824C15.6904 30.2824 15.2358 29.8278 15.2358 29.2669V13.7813ZM21.8372 12.7658C21.2763 12.7658 20.8217 13.2205 20.8217 13.7813V22.0318C20.8217 22.5927 21.2763 23.0473 21.8372 23.0473C22.398 23.0473 22.8526 22.5927 22.8526 22.0318V13.7813C22.8526 13.2205 22.398 12.7658 21.8372 12.7658Z" fill="#121826"/>
<path d="M9.39844 35.8652H14.2218V36.7538C14.2218 38.0857 13.1421 39.1655 11.8101 39.1655C10.4782 39.1655 9.39844 38.0857 9.39844 36.7538V35.8652Z" fill="#121826"/>
<path d="M18.0298 3.51545C18.0298 2.95463 18.4844 2.5 19.0452 2.5C19.6061 2.5 20.0607 2.95463 20.0607 3.51545V6.30795H18.0298V3.51545Z" fill="#121826"/>
<path d="M12.4448 3.51545C12.4448 2.95463 12.8995 2.5 13.4603 2.5C14.0211 2.5 14.4757 2.95463 14.4757 3.51545V6.30795H12.4448V3.51545Z" fill="#121826"/>
<rect x="22.8533" y="0.833984" width="3.80795" height="13.2009" rx="1.90397" transform="rotate(90 22.8533 0.833984)" fill="#121826"/>
<path d="M30.6126 39.1654H22.4612C20.0879 39.1654 18.1567 37.2521 18.1567 34.9V30.199C18.1567 27.8469 20.0879 25.9336 22.4612 25.9336H30.6126C32.9859 25.9336 34.917 27.8469 34.917 30.199V34.9C34.917 37.2521 32.9859 39.1654 30.6126 39.1654Z" fill="#121826"/>
<path d="M29.8497 28.5804C29.487 28.5804 29.1926 28.2949 29.1926 27.9431V25.3667C29.1926 23.9503 28.0046 22.798 26.5451 22.798C25.8731 22.798 25.1678 23.0597 24.6659 23.5415C24.163 24.025 23.8844 24.6683 23.8818 25.3548V27.9431C23.8818 28.2949 23.5874 28.5804 23.2247 28.5804C22.862 28.5804 22.5676 28.2949 22.5676 27.9431V25.3667C22.572 24.3224 22.989 23.3588 23.7407 22.6374C24.4915 21.9143 25.4622 21.5515 26.5477 21.5234C28.7291 21.5234 30.5067 23.2475 30.5067 25.3667V27.9431C30.5067 28.2949 30.2123 28.5804 29.8497 28.5804Z" fill="#121826"/>
</g>
<defs>
<clipPath id="clip0_8976_7331">
<rect width="40" height="40" fill="white"/>
</clipPath>
</defs>
</svg>
