<svg width="40" height="40" viewBox="0 0 40 40" fill="none" xmlns="http://www.w3.org/2000/svg">
<path opacity="0.3" fill-rule="evenodd" clip-rule="evenodd" d="M27.2757 8.92282C27.6257 7.94157 27.5564 7.17006 27.1353 6.67943C26.5746 6.18879 25.8735 6.11859 24.8925 6.46877C23.9116 6.81896 22.9999 7.3105 22.2296 8.08108L19.8465 10.5352L9.75437 8.15135C9.61397 8.08113 9.47358 8.08113 9.33409 8.22157L7.37126 10.185C7.23086 10.3254 7.23086 10.4659 7.23086 10.6054C7.23086 10.7458 7.37126 10.8863 7.51165 10.9556L15.2207 15.1625L11.296 19.0883L8.35231 18.3168H8.21191C8.07151 18.3168 7.93112 18.3168 7.86183 18.4572L6.3904 19.9291C6.3202 19.9993 6.25 20.1398 6.25 20.2793C6.25 20.4198 6.3202 20.5602 6.46059 20.6295L9.75437 23.7812L13.1184 27.2893C13.2588 27.4298 13.329 27.5 13.5387 27.5C13.6791 27.5 13.8195 27.5 13.8888 27.3596L15.3602 25.8877C15.5006 25.7472 15.5006 25.6068 15.4304 25.4673L14.6591 22.5227L18.5838 18.5968L22.7894 26.3082C22.8596 26.4486 23 26.5188 23.1395 26.5188H23.2097C23.3501 26.5188 23.4203 26.5188 23.4905 26.4486L25.4533 24.9767C25.6639 24.8363 25.6639 24.6959 25.6639 24.4861L23.2105 13.9695L25.6639 11.5154C26.4352 10.7439 26.9958 9.90399 27.2757 8.92282Z" fill="#F47920"/>
<path fill-rule="evenodd" clip-rule="evenodd" d="M26.875 33.75C23.078 33.75 20 30.672 20 26.875C20 23.078 23.078 20 26.875 20C30.672 20 33.75 23.078 33.75 26.875C33.75 30.672 30.672 33.75 26.875 33.75ZM26.8464 23.4375H26.9109C27.1071 23.4375 27.2714 23.5862 27.2909 23.7814L27.6385 27.2569L30.1197 28.6748C30.2387 28.7428 30.3121 28.8693 30.3121 29.0064V29.1667C30.3121 29.3278 30.1815 29.4584 30.0204 29.4584C29.9944 29.4584 29.9686 29.4549 29.9436 29.4481L26.4152 28.4858C26.2385 28.4376 26.1209 28.2707 26.1349 28.0881L26.4655 23.7902C26.4808 23.5912 26.6468 23.4375 26.8464 23.4375Z" fill="#F47920"/>
</svg>
