<svg width="146" height="20" viewBox="0 0 146 20" fill="none" xmlns="http://www.w3.org/2000/svg">
<g clip-path="url(#clip0_8083_81049)">
<path d="M88.8146 5.27148V15.0076H87.0293V5.27148H88.8146Z" fill="#A88B44"/>
<path d="M90.8753 10.1031C90.8918 9.41354 90.8685 8.72364 90.8055 8.03683H92.3854L92.4532 9.06995H92.521C92.7478 8.68819 93.0701 8.37285 93.4558 8.15533C93.8415 7.93782 94.2771 7.82572 94.7193 7.83021C95.952 7.83021 97.1847 8.6567 97.1847 10.8676V15.0827H95.3993V11.0701C95.3993 10.0369 95.0562 9.27451 94.0947 9.27451C93.7878 9.28268 93.4909 9.38644 93.2451 9.57149C92.9993 9.75654 92.8166 10.0137 92.7223 10.3076C92.6604 10.4845 92.6366 10.6725 92.6525 10.8593V14.9918H90.8691L90.8753 10.1031Z" fill="#A88B44"/>
<path d="M98.9742 13.4189C99.5177 13.7328 100.133 13.8994 100.76 13.9024C101.516 13.9024 101.859 13.5573 101.859 13.1441C101.859 12.6606 101.583 12.454 100.692 12.111C99.3173 11.6295 98.7688 10.8712 98.7688 10.0447C98.7688 8.805 99.796 7.83594 101.44 7.83594C102.079 7.83627 102.71 7.97733 103.289 8.24918L102.944 9.48893C102.489 9.21028 101.966 9.06698 101.433 9.07568C100.817 9.07568 100.474 9.35256 100.474 9.83605C100.474 10.2493 100.817 10.5262 101.707 10.8031C102.939 11.2845 103.556 11.9064 103.556 12.9416C103.556 14.1813 102.594 15.1525 100.741 15.1525C100.011 15.1523 99.2899 14.9878 98.6311 14.671L98.9742 13.4189Z" fill="#A88B44"/>
<path d="M111.332 12.9343C111.317 13.6513 111.34 14.3686 111.4 15.0832H109.822L109.752 13.9798C109.522 14.3722 109.19 14.6946 108.792 14.9129C108.394 15.1311 107.945 15.2371 107.492 15.2196C106.188 15.2196 105.027 14.4613 105.027 12.1822V8.04973H106.812V11.8991C106.812 13.0728 107.155 13.8331 108.115 13.8331C108.413 13.8253 108.702 13.7295 108.947 13.5575C109.191 13.3856 109.38 13.1451 109.489 12.8661C109.549 12.6889 109.572 12.5011 109.557 12.3144V8.0332H111.342L111.332 12.9343Z" fill="#A88B44"/>
<path d="M113.255 10.2428C113.272 9.48447 113.249 8.72575 113.185 7.96995H114.695L114.765 9.27994H114.833C115.176 8.31501 116 7.76126 116.756 7.76126C116.897 7.74398 117.04 7.76839 117.167 7.83151V9.4845C117.029 9.4845 116.894 9.41425 116.618 9.41425C116.242 9.40549 115.875 9.53329 115.585 9.77424C115.295 10.0152 115.101 10.3532 115.038 10.7263C115.038 10.8647 114.971 11.0714 114.971 11.278V14.9373H113.185V10.2428H113.255Z" fill="#A88B44"/>
<path d="M122.178 15.0074L122.038 14.2573H121.968C121.722 14.5657 121.409 14.8133 121.053 14.9809C120.697 15.1485 120.307 15.2318 119.914 15.2243C118.476 15.2243 117.715 14.1912 117.715 13.1581C117.715 11.3625 119.295 10.472 121.905 10.472V10.3336C121.905 9.85006 121.699 9.09381 120.466 9.09381C119.78 9.09381 119.028 9.30044 118.617 9.64756L118.274 8.47394C119.049 8.03986 119.927 7.82561 120.814 7.85407C123.074 7.85407 123.69 9.30044 123.69 10.8233V13.3503C123.676 13.9262 123.699 14.5025 123.758 15.0756H122.178V15.0074ZM121.972 11.5547C120.74 11.5547 119.507 11.8316 119.507 12.8668C119.507 13.5569 119.918 13.8999 120.534 13.8999C120.835 13.9036 121.13 13.8123 121.376 13.6388C121.623 13.4653 121.809 13.2184 121.909 12.9329C121.964 12.8026 121.987 12.6609 121.977 12.5196L121.972 11.5547Z" fill="#A88B44"/>
<path d="M125.543 10.1029C125.56 9.41341 125.536 8.72351 125.473 8.0367H127.053L127.121 9.06982H127.191C127.464 8.51813 128.288 7.83008 129.387 7.83008C130.62 7.83008 131.853 8.65657 131.853 10.8674V15.0826H130.067V11.0699C130.067 10.0368 129.724 9.27438 128.763 9.27438C128.456 9.28255 128.159 9.38631 127.913 9.57136C127.667 9.75641 127.484 10.0136 127.39 10.3075C127.328 10.4843 127.304 10.6724 127.32 10.8592V14.9917H125.537L125.543 10.1029Z" fill="#A88B44"/>
<path d="M138.928 14.7995C138.585 15.0061 137.831 15.1446 136.938 15.1446C134.741 15.1446 133.299 13.7622 133.299 11.5534C133.299 9.41282 134.737 7.83422 137.213 7.83422C137.802 7.828 138.387 7.94553 138.928 8.17928L138.585 9.49134C138.179 9.29615 137.733 9.20123 137.283 9.21446C135.908 9.21446 135.154 10.1815 135.154 11.4873C135.154 12.9337 136.114 13.7602 137.283 13.7602C137.754 13.764 138.221 13.6705 138.655 13.4854L138.928 14.7995Z" fill="#A88B44"/>
<path d="M141.332 11.9702C141.4 13.21 142.359 13.7637 143.461 13.7637C144.118 13.7827 144.772 13.6652 145.382 13.4187L145.665 14.6708C145.047 14.9463 144.226 15.0841 143.2 15.0841C140.94 15.0841 139.561 13.7038 139.561 11.495C139.561 9.56101 140.728 7.69727 142.994 7.69727C145.26 7.69727 146.014 9.55688 146.014 11.1499C146.036 11.4048 146.013 11.6615 145.947 11.9083H141.332V11.9702ZM144.414 10.7305C144.414 10.1106 144.139 9.00519 142.976 9.00519C141.877 9.00519 141.396 9.97219 141.332 10.7305H144.414Z" fill="#A88B44"/>
<path d="M62.8682 9.90554C62.8698 11.8631 63.4486 13.7763 64.5314 15.403C65.6142 17.0297 67.1523 18.297 68.9513 19.0445C70.7503 19.792 72.7293 19.9863 74.638 19.6026C76.5467 19.2189 78.2995 18.2746 79.6745 16.8891C81.0496 15.5036 81.9853 13.7391 82.3632 11.8188C82.7411 9.89843 82.5442 7.90851 81.7976 6.10069C81.0509 4.29286 79.7879 2.74832 78.1684 1.6624C76.5489 0.576482 74.6455 -0.00203733 72.699 5.39093e-06C71.4066 0.000547049 70.127 0.257266 68.9333 0.755487C67.7396 1.25371 66.6552 1.98366 65.7422 2.90361C64.8292 3.82356 64.1054 4.91546 63.6123 6.11691C63.1191 7.31835 62.8663 8.60576 62.8682 9.90554Z" fill="url(#paint0_radial_8083_81049)"/>
<path d="M62.8682 9.90543C62.8669 7.9474 63.4432 6.03301 64.5241 4.40446C65.605 2.77592 67.1419 1.5064 68.9404 0.756529C70.7389 0.00665941 72.7181 -0.189862 74.6277 0.191829C76.5373 0.57352 78.2913 1.51627 79.668 2.9008C81.0447 4.28533 81.9821 6.04943 82.3616 7.96989C82.7411 9.89035 82.5457 11.8809 81.8001 13.6896C81.0545 15.4984 79.7922 17.044 78.1729 18.1311C76.5536 19.2181 74.65 19.7977 72.7031 19.7965C70.0949 19.796 67.5937 18.7537 65.7494 16.8989C63.9051 15.044 62.8687 12.5285 62.8682 9.90543Z" fill="url(#paint1_radial_8083_81049)"/>
<path d="M62.8682 9.90543C62.8669 7.9474 63.4432 6.03301 64.5241 4.40446C65.605 2.77592 67.1419 1.5064 68.9404 0.756529C70.7389 0.00665941 72.7181 -0.189862 74.6277 0.191829C76.5373 0.57352 78.2913 1.51627 79.668 2.9008C81.0447 4.28533 81.9821 6.04943 82.3616 7.96989C82.7411 9.89035 82.5457 11.8809 81.8001 13.6896C81.0545 15.4984 79.7922 17.044 78.1729 18.1311C76.5536 19.2181 74.65 19.7977 72.7031 19.7965C70.0949 19.796 67.5937 18.7537 65.7494 16.8989C63.9051 15.044 62.8687 12.5285 62.8682 9.90543Z" fill="url(#paint2_radial_8083_81049)"/>
<path d="M70.059 12.3973C70.9603 12.6318 71.873 12.8194 72.7935 12.9593C72.7918 13.0166 72.8023 13.0737 72.8243 13.1266C72.8243 13.137 72.8243 13.137 72.8243 13.1494C71.8258 13.7383 70.9013 14.2569 70.059 14.6495V14.9098C71.0472 14.449 72.0559 13.9304 73.0236 13.4015C73.1476 13.5048 73.2967 13.573 73.4555 13.5992C73.6144 13.6253 73.7774 13.6084 73.9276 13.5502C74.1424 13.4728 74.3268 13.3279 74.4536 13.137C74.659 13.1576 74.8645 13.1783 75.0946 13.1886C78.7927 13.4428 81.0321 12.9552 82.1539 12.6721C82.1765 12.5956 82.197 12.5212 82.2196 12.4489C79.7066 12.9709 77.1254 13.0749 74.5789 12.7568C74.5817 12.6872 74.5741 12.6175 74.5563 12.5502C74.6227 12.508 74.6913 12.4694 74.7617 12.4345C76.533 11.4083 78.2063 10.22 79.7604 8.88467C79.8173 8.95282 79.8879 9.00811 79.9676 9.04692C80.0473 9.08573 80.1342 9.10719 80.2226 9.10989C80.3103 9.1089 80.3965 9.08816 80.4751 9.04918C80.5537 9.0102 80.6226 8.95398 80.6767 8.88467C81.3369 9.47661 81.9484 10.1213 82.5052 10.8125C82.5155 10.7277 82.5155 10.6513 82.5237 10.579C82.0077 9.88757 81.4352 9.24067 80.8123 8.64498C80.8552 8.54455 80.8762 8.43606 80.8739 8.32678C80.8733 8.19567 80.8453 8.06616 80.7917 7.94659L80.9499 7.78749C81.3117 7.41533 81.6546 7.025 81.9772 6.618C81.9607 6.55293 81.9409 6.48879 81.9176 6.42585C81.5108 6.88255 81.0794 7.31642 80.6253 7.72551C80.5733 7.66726 80.51 7.62021 80.4394 7.58719C80.3688 7.55416 80.2923 7.53585 80.2144 7.53335C80.0576 7.54047 79.91 7.60953 79.8035 7.72551C77.9025 6.09371 75.8262 4.6806 73.6133 3.51245C72.4856 2.89905 71.2935 2.41394 70.059 2.06609V2.30784C70.9662 2.57537 71.8488 2.92102 72.697 3.34095C75.1121 4.58045 77.3826 6.08635 79.4666 7.83089C79.5303 7.88667 79.5837 7.928 79.635 7.97965C79.5928 8.09111 79.5719 8.20958 79.5734 8.32885C79.5729 8.41794 79.5833 8.50676 79.6042 8.59333C77.9187 9.90566 76.1569 11.1159 74.3282 12.2175C74.2013 12.1237 74.0533 12.0629 73.8974 12.0406C73.7415 12.0182 73.5824 12.035 73.4345 12.0894C73.2008 12.1644 73.0054 12.3283 72.8901 12.546C72.0477 12.4083 71.1752 12.2457 70.2726 12.0584C70.2051 12.0406 70.1365 12.0275 70.0672 12.0191V12.3973H70.059ZM70.059 1.54333V1.3367C71.9739 0.649647 74.0161 0.396356 76.0396 0.594926C76.1033 0.617655 76.165 0.650714 76.2266 0.66931C74.133 0.512862 72.0304 0.807309 70.059 1.533V1.54333ZM67.799 15.3892C67.736 15.341 67.6669 15.3014 67.5935 15.2714C67.499 14.6391 67.4559 14.0895 67.4148 13.73C67.3737 13.3705 67.3203 12.8002 67.2997 12.0584C67.4086 12.051 67.5135 12.0146 67.6038 11.953C67.6988 11.8903 67.7709 11.7982 67.8093 11.6906C68.5057 11.9427 69.2618 12.1741 70.0692 12.3869V12.0191C69.3233 11.8481 68.5873 11.6356 67.8647 11.3827C67.8597 11.1814 67.793 10.9866 67.6737 10.8249C67.5767 10.6785 67.4427 10.5608 67.2854 10.4839C67.2951 8.70497 67.4782 6.93124 67.8319 5.18817C68.0107 4.29368 68.282 3.42043 68.6413 2.58265C68.8033 2.56752 68.9605 2.51974 69.1036 2.44214C69.2478 2.37341 69.3765 2.27566 69.4816 2.15493L70.0692 2.3161V2.06609C69.911 2.02063 69.7652 1.9793 69.6193 1.94831C69.6558 1.86818 69.6659 1.7784 69.6481 1.6921L70.059 1.533V1.32637C69.8823 1.39043 69.7015 1.45035 69.5227 1.533C69.4436 1.46383 69.342 1.42633 69.2372 1.42762C69.4698 1.0413 69.7456 0.682901 70.059 0.359375L69.7549 0.456488C69.4848 0.768937 69.2363 1.09962 69.0112 1.44622C68.8867 1.46794 68.7662 1.50833 68.6537 1.56606C68.5697 1.61329 68.4887 1.66574 68.4112 1.72309C68.0355 1.66919 67.6566 1.64089 67.2771 1.63838C67.1929 1.70449 67.0984 1.76648 67.0162 1.82847C67.424 1.82048 67.8317 1.84883 68.2345 1.91318C68.1735 1.98095 68.1328 2.0648 68.1174 2.15493C66.7071 2.87928 65.3992 3.78956 64.2282 4.8617C64.1563 5.00014 64.0824 5.12825 64.0105 5.25222C64.7563 4.56417 65.9212 3.58477 68.1483 2.40908C68.2053 2.49327 68.2932 2.55124 68.3927 2.57025C67.8853 3.60337 67.4271 5.01047 67.1498 6.93207C66.9734 8.07954 66.8787 9.23819 66.8662 10.3992C66.7522 10.4106 66.6441 10.4561 66.5558 10.5297C66.4676 10.6033 66.4033 10.7018 66.3711 10.8125C65.1454 10.2839 63.989 9.60595 62.9277 8.79375C62.9154 8.89706 62.9051 9.00038 62.8928 9.09129C63.9535 9.90094 65.1076 10.5788 66.33 11.11C66.3398 11.3044 66.407 11.4915 66.5231 11.6472C66.6235 11.8008 66.7663 11.9214 66.934 11.9944C66.9977 12.9035 67.1128 13.7734 67.2176 14.7838C67.2278 14.9346 67.2484 15.0834 67.271 15.228C67.1996 15.2275 67.129 15.2437 67.0648 15.2752C67.0007 15.3068 66.9447 15.3529 66.9012 15.4098C66.8604 15.4975 66.8438 15.5946 66.8532 15.691C66.8626 15.7873 66.8976 15.8794 66.9546 15.9574C66.2211 16.2012 65.6643 16.3396 65.2945 16.4264C65.3488 16.4782 65.399 16.5341 65.4445 16.5938C66.0156 16.4931 66.5771 16.3438 67.1231 16.1475C67.1615 16.187 67.2035 16.223 67.2484 16.2549C67.3272 16.3058 67.4131 16.3448 67.5031 16.3706C67.7095 17.2118 68.0078 18.0275 68.3927 18.8026C68.514 18.8667 68.6434 18.9183 68.779 18.9824C68.3087 18.1852 67.9773 17.3131 67.799 16.4037C67.8685 16.4065 67.9376 16.3914 67.9998 16.36C68.062 16.3285 68.1152 16.2817 68.1544 16.2239C68.1965 16.1538 68.2187 16.0734 68.2187 15.9915C68.2187 15.9096 68.1965 15.8292 68.1544 15.759C68.7708 15.5173 69.4159 15.2321 70.0672 14.9098V14.6495C69.3982 14.9868 68.7124 15.2896 68.0127 15.5565C67.9511 15.4893 67.8789 15.4327 67.799 15.3892Z" fill="white"/>
<path fill-rule="evenodd" clip-rule="evenodd" d="M28.0072 11.8166V7.97965C28.2437 8.59375 28.3642 9.24682 28.3626 9.90538C28.3646 10.5593 28.244 11.2077 28.0072 11.8166ZM28.0072 6.15309L30.5712 14.8168H33.9652L36.9689 5.14684L32.9031 8.79374L32.334 10.9199H32.3175L30.6945 4.92781H28.0072V6.16756V6.15309ZM53.1318 7.45276H50.3767V4.91748H58.9214V7.45276H56.1704V14.8168H53.1318V7.45276ZM41.3512 4.91748H49.4953V7.45276H44.3878V8.6925H49.0331V11.0439H44.3878V12.2836H49.6535V14.8168H41.3512V4.91748ZM37.5976 4.91748H40.6342V14.8168H37.5976V4.91748ZM28.0154 4.91748V6.15723L27.6476 4.91748H28.0154ZM28.0154 7.97965C27.631 7.02451 26.9713 6.20683 26.1212 5.6317C25.2711 5.05657 24.2693 4.75027 23.2448 4.75218V7.51474C23.5619 7.50535 23.8776 7.56005 24.1733 7.67561C24.469 7.79116 24.7386 7.96521 24.9662 8.18746C25.1938 8.40971 25.3747 8.67563 25.4983 8.96947C25.6218 9.26332 25.6855 9.57911 25.6855 9.89815C25.6855 10.2172 25.6218 10.533 25.4983 10.8268C25.3747 11.1207 25.1938 11.3866 24.9662 11.6088C24.7386 11.8311 24.469 12.0051 24.1733 12.1207C23.8776 12.2362 23.5619 12.2909 23.2448 12.2815V15.0503C24.2687 15.0501 25.2691 14.7421 26.1177 14.1659C26.9662 13.5897 27.6242 12.7716 28.0072 11.8166L28.0154 7.97965ZM23.2448 4.75218V7.51474C22.9277 7.50535 22.612 7.56005 22.3163 7.67561C22.0206 7.79116 21.751 7.96521 21.5234 8.18746C21.2958 8.40971 21.1149 8.67563 20.9913 8.96947C20.8677 9.26332 20.8041 9.57911 20.8041 9.89815C20.8041 10.2172 20.8677 10.533 20.9913 10.8268C21.1149 11.1207 21.2958 11.3866 21.5234 11.6088C21.751 11.8311 22.0206 12.0051 22.3163 12.1207C22.612 12.2362 22.9277 12.2909 23.2448 12.2815V15.0503C22.2389 15.0512 21.2549 14.755 20.4148 14.1986C19.5748 13.6421 18.9157 12.8498 18.5194 11.92V7.8722C18.9167 6.94355 19.5761 6.15255 20.4161 5.59722C21.2561 5.04188 22.2396 4.74663 23.2448 4.74805V4.75218ZM18.5194 14.821H18.9303L18.5194 13.6928V14.821ZM18.5194 7.87633V11.92C18.2496 11.2829 18.1098 10.5978 18.1085 9.90538C18.1088 9.20683 18.2485 8.51544 18.5194 7.8722V7.87633ZM18.5194 13.6928L15.3534 4.91748H13.8515V8.29785L13.87 8.23586H13.8926L14.774 11.2774H13.8515V13.4014H15.3863L15.7972 14.8168H18.5276L18.5194 13.6928ZM8.90016 10.8889C8.98913 11.1863 9.03073 11.4959 9.02343 11.8063C9.02843 12.1105 8.98686 12.4137 8.90016 12.7051V10.8889ZM13.8515 4.91748H12.3887L8.90016 14.4635V14.8189H11.8114L12.2531 13.4035H13.8515V11.2774H12.9147L13.8515 8.29785V4.91748ZM4.34941 4.91748H5.3931C7.97768 4.91748 8.53446 6.38451 8.53446 7.39697C8.53446 8.40942 8.04959 8.94045 7.32435 9.34336C7.69251 9.45137 8.0287 9.64857 8.30344 9.91768C8.57818 10.1868 8.78307 10.5196 8.90016 10.8868V12.7031C8.47077 14.0978 7.0285 14.8148 5.58006 14.8148H4.34735V12.4613H4.81167C5.44241 12.4613 5.99507 12.2815 5.99507 11.5212C5.99507 10.9302 5.64992 10.61 4.92673 10.61H4.34941V8.77101H4.63293C5.26367 8.77101 5.66019 8.59332 5.66019 7.94452C5.66019 7.44862 5.24929 7.26679 4.63293 7.26679H4.34941V4.91748ZM8.90016 14.4635L8.76251 14.8189H8.90016V14.4635ZM0 4.91748H4.34941V7.27093H3.02836V8.77101H4.34941V10.61H3.02836V12.4696H4.34941V14.8251H0V4.91748Z" fill="#0079C0"/>
<path fill-rule="evenodd" clip-rule="evenodd" d="M33.9221 4.91797H37.0429L33.1989 7.67433L33.9221 4.91797Z" fill="#A27300"/>
</g>
<defs>
<radialGradient id="paint0_radial_8083_81049" cx="0" cy="0" r="1" gradientUnits="userSpaceOnUse" gradientTransform="translate(70.3055 7.3744) scale(17.4038 17.5031)">
<stop stop-color="#F6EFE4"/>
<stop offset="0.25" stop-color="#D5B684"/>
<stop offset="0.69" stop-color="#A27300"/>
<stop offset="1" stop-color="#A27300"/>
</radialGradient>
<radialGradient id="paint1_radial_8083_81049" cx="0" cy="0" r="1" gradientUnits="userSpaceOnUse" gradientTransform="translate(70.5973 7.52099) scale(17.1244 17.2221)">
<stop stop-color="#231F20"/>
<stop offset="0.39" stop-color="#231F20"/>
<stop offset="0.79" stop-color="#231F20"/>
<stop offset="1" stop-color="#231F20"/>
</radialGradient>
<radialGradient id="paint2_radial_8083_81049" cx="0" cy="0" r="1" gradientUnits="userSpaceOnUse" gradientTransform="translate(70.7431 7.08088) scale(17.2723 17.3708)">
<stop stop-color="white"/>
<stop offset="0.02" stop-color="#FFEEE0"/>
<stop offset="0.44" stop-color="#BB8C0B"/>
<stop offset="0.68" stop-color="#755B25"/>
<stop offset="1" stop-color="#BB8C0B"/>
</radialGradient>
<clipPath id="clip0_8083_81049">
<rect width="146" height="19.7966" fill="white"/>
</clipPath>
</defs>
</svg>
