<svg width="20" height="21" viewBox="0 0 20 21" fill="none" xmlns="http://www.w3.org/2000/svg">
<g clip-path="url(#clip0_9656_785)">
<path opacity="0.3" d="M10.0003 18.8327C14.6027 18.8327 18.3337 15.1017 18.3337 10.4993C18.3337 5.89698 14.6027 2.16602 10.0003 2.16602C5.39795 2.16602 1.66699 5.89698 1.66699 10.4993C1.66699 15.1017 5.39795 18.8327 10.0003 18.8327Z" fill="#0158A9"/>
<path d="M10.8337 9.66732C10.8337 9.20708 10.4606 8.83398 10.0003 8.83398C9.54009 8.83398 9.16699 9.20708 9.16699 9.66732V13.834C9.16699 14.2942 9.54009 14.6673 10.0003 14.6673C10.4606 14.6673 10.8337 14.2942 10.8337 13.834V9.66732Z" fill="#0158A9"/>
<path d="M10.8337 7.16732C10.8337 6.70708 10.4606 6.33398 10.0003 6.33398C9.54009 6.33398 9.16699 6.70708 9.16699 7.16732C9.16699 7.62755 9.54009 8.00065 10.0003 8.00065C10.4606 8.00065 10.8337 7.62755 10.8337 7.16732Z" fill="#0158A9"/>
</g>
<defs>
<clipPath id="clip0_9656_785">
<rect width="20" height="20" fill="white" transform="translate(0 0.5)"/>
</clipPath>
</defs>
</svg>
