<svg width="40" height="41" viewBox="0 0 40 41" fill="none" xmlns="http://www.w3.org/2000/svg">
<path opacity="0.3" d="M29.4667 8.5H14.5334C14.418 8.5 14.3057 8.53743 14.2134 8.60667C13.9777 8.7834 13.93 9.11769 14.1067 9.35333L19.8667 17.0333V24.5L23.3615 26.2474C23.4356 26.2844 23.5172 26.3037 23.6 26.3037C23.8946 26.3037 24.1333 26.0649 24.1333 25.7703V19.4252C21.785 19.0148 20 16.9658 20 14.5C20 11.7386 22.2386 9.5 25 9.5C26.4242 9.5 27.7094 10.0955 28.6201 11.051L29.8933 9.35333C29.9626 9.26101 30 9.14873 30 9.03333C30 8.73878 29.7612 8.5 29.4667 8.5Z" fill="#121826"/>
<circle cx="25" cy="14.5" r="4" fill="#DB0D0D"/>
</svg>
