<svg width="22" height="22" viewBox="0 0 22 22" fill="none" xmlns="http://www.w3.org/2000/svg">
<g clip-path="url(#clip0_8976_10746)">
<path d="M14.6625 5.49935H8.24984C6.73105 5.49935 5.49984 6.73057 5.49984 8.24935V14.662C4.30987 14.6034 3.6665 13.9058 3.6665 12.666V5.66602C3.6665 4.36957 4.37006 3.66602 5.6665 3.66602H12.6665C13.9063 3.66602 14.6038 4.30938 14.6625 5.49935Z" fill="#1AA260"/>
<path opacity="0.3" fill-rule="evenodd" clip-rule="evenodd" d="M9.3335 7.33398H16.3335C17.6299 7.33398 18.3335 8.03754 18.3335 9.33398V16.334C18.3335 17.6304 17.6299 18.334 16.3335 18.334H9.3335C8.03705 18.334 7.3335 17.6304 7.3335 16.334V9.33398C7.3335 8.03754 8.03705 7.33398 9.3335 7.33398Z" fill="#1AA260"/>
</g>
<defs>
<clipPath id="clip0_8976_10746">
<rect width="22" height="22" fill="white"/>
</clipPath>
</defs>
</svg>
