<svg width="61" height="60" viewBox="0 0 61 60" fill="none" xmlns="http://www.w3.org/2000/svg">
<g clip-path="url(#clip0_8976_13693)">
<path opacity="0.3" d="M30.5 55C44.3071 55 55.5 43.8071 55.5 30C55.5 16.1929 44.3071 5 30.5 5C16.6929 5 5.5 16.1929 5.5 30C5.5 43.8071 16.6929 55 30.5 55Z" fill="#F47920"/>
<path d="M33 27.5C33 26.1193 31.8807 25 30.5 25C29.1193 25 28 26.1193 28 27.5V40C28 41.3807 29.1193 42.5 30.5 42.5C31.8807 42.5 33 41.3807 33 40V27.5Z" fill="#F47920"/>
<path d="M33 20C33 18.6193 31.8807 17.5 30.5 17.5C29.1193 17.5 28 18.6193 28 20C28 21.3807 29.1193 22.5 30.5 22.5C31.8807 22.5 33 21.3807 33 20Z" fill="#F47920"/>
</g>
<defs>
<clipPath id="clip0_8976_13693">
<rect width="60" height="60" fill="white" transform="translate(0.5)"/>
</clipPath>
</defs>
</svg>
