<svg width="24" height="24" viewBox="0 0 24 24" fill="none" xmlns="http://www.w3.org/2000/svg">
<path opacity="0.3" d="M21.2326 10.2742C21.6521 10.2742 22 9.92323 22 9.5V7C22 4.49932 22 4 19.0004 4L10.7209 4C10.7209 4 10.373 4 9.95349 4C9.53395 4 9.18605 4 9.18605 4L4.99966 4C2.00034 4 2 4.49952 2 7V9.41935C2 9.84258 2.34791 10.1935 2.76744 10.1935C3.74977 10.1935 4.55814 11.009 4.55814 12C4.55814 12.991 3.74977 13.8065 2.76744 13.8065C2.34791 13.8065 2 14.1574 2 14.5806L2.00006 17C2.00006 20 1.99967 20 4.99994 20H9.18605C9.18605 20.0241 9.53395 20 9.95349 20C10.373 20 10.7209 20 10.7209 20H19.0004C22 20 22 20 22 16.9032C22 16.6775 22 15.4839 22 14.5806C22 14 21.5 13.8871 21.2326 13.8871C20.2502 13.8871 19.4419 13.0716 19.4419 12.0806C19.4419 11.0897 20.2502 10.2742 21.2326 10.2742Z" fill="#1AA260"/>
<path fill-rule="evenodd" clip-rule="evenodd" d="M7.75371 16.1905C7.96482 16.4015 8.23221 16.5 8.49961 16.5C8.76701 16.5 9.04848 16.4015 9.2455 16.1905L16.1416 9.29719C16.5497 8.88922 16.5497 8.21395 16.1416 7.80598C15.7335 7.39801 15.058 7.39801 14.6498 7.80598L7.75371 14.6993C7.34558 15.1073 7.34558 15.7825 7.75371 16.1905ZM8.09961 10.6C7.25961 10.6 6.59961 9.925 6.59961 9.1C6.59961 8.275 7.27461 7.6 8.09961 7.6C8.92461 7.6 9.59961 8.275 9.59961 9.1C9.59961 9.925 8.93961 10.6 8.09961 10.6ZM15.8996 16.4C15.0596 16.4 14.3996 15.725 14.3996 14.9C14.3996 14.075 15.0746 13.4 15.8996 13.4C16.7246 13.4 17.3996 14.075 17.3996 14.9C17.3996 15.725 16.7396 16.4 15.8996 16.4Z" fill="#1AA260"/>
</svg>
