<svg width="40" height="40" viewBox="0 0 40 40" fill="none" xmlns="http://www.w3.org/2000/svg">
<g clip-path="url(#clip0_1433_5834)">
<path opacity="0.3" fill-rule="evenodd" clip-rule="evenodd" d="M8.83325 3.33331C5.79569 3.33331 3.33325 5.79575 3.33325 8.83331V27.8333C3.33325 30.8709 5.79568 33.3333 8.83325 33.3333H18.9127C17.2715 30.7168 17.438 28.1002 17.4896 27.2886C17.4955 27.1955 17.4999 27.1262 17.4999 27.0833C17.4999 21.9643 22.8333 17.5 27.9166 17.5C28.6363 17.5 29.1666 17.5 29.9999 17.6459V8.83331C29.9999 5.79575 27.5375 3.33331 24.4999 3.33331H8.83325ZM7.66595 11.6667C7.66595 10.7462 8.41214 9.99999 9.33261 9.99999H23.9993C24.9198 9.99999 25.6659 10.7462 25.6659 11.6667C25.6659 12.5871 24.9198 13.3333 23.9993 13.3333H9.33262C8.41214 13.3333 7.66595 12.5871 7.66595 11.6667ZM9.33261 16.6667C8.41214 16.6667 7.66595 17.4129 7.66595 18.3333C7.66595 19.2538 8.41214 20 9.33261 20H16.9993C17.9198 20 18.6659 19.2538 18.6659 18.3333C18.6659 17.4129 17.9198 16.6667 16.9993 16.6667H9.33261Z" fill="#121826"/>
<path fill-rule="evenodd" clip-rule="evenodd" d="M28.7761 36.6667C33.1483 36.6667 36.6927 33.1223 36.6927 28.75C36.6927 24.3777 33.1483 20.8333 28.7761 20.8333C24.4038 20.8333 20.8594 24.3777 20.8594 28.75C20.8594 33.1223 24.4038 36.6667 28.7761 36.6667ZM28.0833 23.75C28.6356 23.75 29.0833 24.1977 29.0833 24.75V28.5H32.75C33.3023 28.5 33.75 28.9477 33.75 29.5C33.75 30.0523 33.3023 30.5 32.75 30.5H29.0833V32.75C29.0833 33.3023 28.6356 33.75 28.0833 33.75C27.531 33.75 27.0833 33.3023 27.0833 32.75V30.5H24.75C24.1977 30.5 23.75 30.0523 23.75 29.5C23.75 28.9477 24.1977 28.5 24.75 28.5H27.0833V24.75C27.0833 24.1977 27.531 23.75 28.0833 23.75Z" fill="#121826"/>
</g>
<defs>
<clipPath id="clip0_1433_5834">
<rect width="40" height="40" fill="white"/>
</clipPath>
</defs>
</svg>
