<svg width="24" height="24" viewBox="0 0 24 24" fill="none" xmlns="http://www.w3.org/2000/svg">
<path d="M23 12C23 18.0752 18.0752 23 12 23C5.92479 23 1 18.0752 1 12C1 5.92479 5.92479 1 12 1C18.0752 1 23 5.92479 23 12Z" fill="#FFD460"/>
<path d="M23 11.9997C23 11.6078 22.9792 11.2207 22.9391 10.8394L17.1423 5.04248L6.85767 18.957L10.8397 22.9388C11.221 22.9789 11.6081 22.9997 12 22.9997C18.0752 22.9997 23 18.0749 23 11.9997Z" fill="#FFBE11"/>
<path d="M6.85767 5.04248V18.957L12 13.8147L12.9074 9.42865L12 5.04248H6.85767Z" fill="#FF7855"/>
<path d="M12 5.04248V13.8147L17.1423 18.957V5.04248H12Z" fill="#FF562B"/>
</svg>
