<svg width="40" height="40" viewBox="0 0 40 40" fill="none" xmlns="http://www.w3.org/2000/svg">
<g clip-path="url(#clip0_8976_6499)">
<path fill-rule="evenodd" clip-rule="evenodd" d="M9.99992 5L10.7503 12.5041C10.7974 12.9749 11.1935 13.3333 11.6666 13.3333C12.1397 13.3333 12.5358 12.9749 12.5828 12.5041L13.3333 5H14.9999L15.7503 12.5041C15.7974 12.9749 16.1935 13.3333 16.6666 13.3333C17.1397 13.3333 17.5358 12.9749 17.5828 12.5041L18.3333 5H19.9999V12.5C19.9999 15.7217 17.3882 18.3333 14.1666 18.3333C10.9449 18.3333 8.33325 15.7217 8.33325 12.5V5H9.99992Z" fill="#121826"/>
<path opacity="0.3" fill-rule="evenodd" clip-rule="evenodd" d="M14.1667 21.666C15.1018 21.666 15.874 22.3965 15.9258 23.3301L16.528 34.1699C16.6005 35.474 15.602 36.5899 14.2979 36.6624C14.2542 36.6648 14.2105 36.666 14.1667 36.666C12.8606 36.666 11.8018 35.6072 11.8018 34.3011C11.8018 34.2573 11.803 34.2136 11.8054 34.1699L12.4076 23.3301C12.4595 22.3965 13.2317 21.666 14.1667 21.666Z" fill="#121826"/>
<path opacity="0.3" fill-rule="evenodd" clip-rule="evenodd" d="M29.1667 25C30.1057 25 30.8852 25.7257 30.9521 26.6624L31.4885 34.173C31.5801 35.4554 30.6149 36.5692 29.3325 36.6608C29.2773 36.6647 29.222 36.6667 29.1667 36.6667C27.8811 36.6667 26.8389 35.6245 26.8389 34.3389C26.8389 34.2835 26.8408 34.2282 26.8448 34.173L27.3813 26.6624C27.4482 25.7257 28.2276 25 29.1667 25Z" fill="#121826"/>
<path fill-rule="evenodd" clip-rule="evenodd" d="M31.6667 5V21.6667H25V11.6667C25 7.98477 27.9848 5 31.6667 5Z" fill="#121826"/>
</g>
<defs>
<clipPath id="clip0_8976_6499">
<rect width="40" height="40" fill="white"/>
</clipPath>
</defs>
</svg>
