<svg width="25" height="24" viewBox="0 0 25 24" fill="none" xmlns="http://www.w3.org/2000/svg">
<g clip-path="url(#clip0_8773_83327)">
<path opacity="0.3" fill-rule="evenodd" clip-rule="evenodd" d="M12.5 21C7.52944 21 3.5 16.9706 3.5 12C3.5 7.02944 7.52944 3 12.5 3C17.4706 3 21.5 7.02944 21.5 12C21.5 16.9706 17.4706 21 12.5 21Z" fill="#121826"/>
<path fill-rule="evenodd" clip-rule="evenodd" d="M12.4631 7.5H12.5476C12.8044 7.5 13.0195 7.69465 13.0451 7.95025L13.5001 12.5L16.7481 14.356C16.9039 14.4451 17.0001 14.6107 17.0001 14.7902V15C17.0001 15.2109 16.8291 15.3819 16.6182 15.3819C16.5842 15.3819 16.5504 15.3774 16.5177 15.3684L11.8987 14.1087C11.6674 14.0456 11.5134 13.8271 11.5318 13.588L11.9646 7.96165C11.9846 7.70115 12.2018 7.5 12.4631 7.5Z" fill="#121826"/>
</g>
<defs>
<clipPath id="clip0_8773_83327">
<rect width="24" height="24" fill="white" transform="translate(0.5)"/>
</clipPath>
</defs>
</svg>
