<svg width="16" height="16" viewBox="0 0 16 16" fill="none" xmlns="http://www.w3.org/2000/svg">
<rect width="16" height="16" fill="white"/>
<path d="M8 2C6.81331 2 5.65328 2.35189 4.66658 3.01118C3.67989 3.67047 2.91085 4.60754 2.45673 5.7039C2.0026 6.80025 1.88378 8.00665 2.11529 9.17054C2.3468 10.3344 2.91825 11.4035 3.75736 12.2426C4.59648 13.0818 5.66557 13.6532 6.82946 13.8847C7.99335 14.1162 9.19975 13.9974 10.2961 13.5433C11.3925 13.0891 12.3295 12.3201 12.9888 11.3334C13.6481 10.3467 14 9.18669 14 8C13.9982 6.40925 13.3655 4.88417 12.2407 3.75934C11.1158 2.63451 9.59075 2.00179 8 2ZM8 13.52C6.90825 13.52 5.84101 13.1963 4.93325 12.5897C4.0255 11.9832 3.31798 11.1211 2.90019 10.1124C2.48239 9.10376 2.37308 7.99388 2.58607 6.9231C2.79906 5.85233 3.32479 4.86876 4.09677 4.09677C4.86876 3.32478 5.85233 2.79906 6.9231 2.58607C7.99388 2.37307 9.10377 2.48239 10.1124 2.90018C11.1211 3.31798 11.9832 4.02549 12.5897 4.93325C13.1963 5.84101 13.52 6.90825 13.52 8C13.5183 9.46348 12.9362 10.8665 11.9014 11.9014C10.8666 12.9362 9.46349 13.5183 8 13.52ZM8.72 10.88C8.72 10.9436 8.69471 11.0047 8.6497 11.0497C8.6047 11.0947 8.54365 11.12 8.48 11.12H8C7.93635 11.12 7.87531 11.0947 7.8303 11.0497C7.78529 11.0047 7.76 10.9436 7.76 10.88V7.76H7.52C7.45635 7.76 7.3953 7.73471 7.3503 7.6897C7.30529 7.6447 7.28 7.58365 7.28 7.52C7.28 7.45635 7.30529 7.3953 7.3503 7.35029C7.3953 7.30528 7.45635 7.28 7.52 7.28H8C8.06365 7.28 8.1247 7.30529 8.1697 7.3503C8.21471 7.3953 8.24 7.45635 8.24 7.52V10.64H8.48C8.54365 10.64 8.6047 10.6653 8.6497 10.7103C8.69471 10.7553 8.72 10.8163 8.72 10.88ZM7.40003 5.36002C7.40003 5.26509 7.42818 5.17228 7.48093 5.09335C7.53367 5.01441 7.60863 4.95289 7.69634 4.91656C7.78405 4.88023 7.88056 4.87072 7.97367 4.88924C8.06679 4.90777 8.15231 4.95348 8.21944 5.02061C8.28657 5.08774 8.33229 5.17327 8.35081 5.26638C8.36933 5.35949 8.35982 5.456 8.32349 5.54371C8.28716 5.63142 8.22564 5.70638 8.1467 5.75913C8.06777 5.81187 7.97497 5.84002 7.88003 5.84002C7.817 5.84002 7.75458 5.82761 7.69634 5.80349C7.6381 5.77936 7.58519 5.74401 7.54062 5.69944C7.49604 5.65486 7.46069 5.60195 7.43657 5.54371C7.41244 5.48547 7.40003 5.42306 7.40003 5.36002Z" fill="#1AA260" stroke="#1AA260" stroke-width="0.7"/>
</svg>
