<svg width="40" height="40" viewBox="0 0 40 40" fill="none" xmlns="http://www.w3.org/2000/svg">
<rect width="40" height="40" rx="20" fill="white"/>
<g clip-path="url(#clip0_625_3892)">
<path opacity="0.3" d="M27.5 18.75C28.1904 18.75 28.75 19.3096 28.75 20C28.75 20.6904 28.1904 21.25 27.5 21.25H12.5C11.8096 21.25 11.25 20.6904 11.25 20C11.25 19.3096 11.8096 18.75 12.5 18.75H27.5Z" fill="#121826"/>
<path d="M20.8839 26.6161C21.372 27.1043 21.372 27.8957 20.8839 28.3839C20.3957 28.872 19.6043 28.872 19.1161 28.3839L11.6161 20.8839C11.1429 20.4107 11.1263 19.6487 11.5786 19.1553L18.4536 11.6553C18.92 11.1464 19.7108 11.1121 20.2197 11.5786C20.7286 12.045 20.7629 12.8358 20.2964 13.3447L14.2302 19.9624L20.8839 26.6161Z" fill="#121826"/>
</g>
<defs>
<clipPath id="clip0_625_3892">
<rect width="30" height="30" fill="white" transform="translate(5 5)"/>
</clipPath>
</defs>
</svg>
