<svg width="21" height="20" viewBox="0 0 21 20" fill="none" xmlns="http://www.w3.org/2000/svg">
<g id="Icons / Code / Info circle">
<path id="Oval 5" opacity="0.3" d="M10.148 18.3333C14.8185 18.3333 18.6046 14.6023 18.6046 9.99996C18.6046 5.39759 14.8185 1.66663 10.148 1.66663C5.47756 1.66663 1.69141 5.39759 1.69141 9.99996C1.69141 14.6023 5.47756 18.3333 10.148 18.3333Z" fill="#F42020"/>
<path id="Rectangle 9" d="M10.9936 9.16671C10.9936 8.70647 10.615 8.33337 10.1479 8.33337C9.68086 8.33337 9.30225 8.70647 9.30225 9.16671V13.3334C9.30225 13.7936 9.68086 14.1667 10.1479 14.1667C10.615 14.1667 10.9936 13.7936 10.9936 13.3334V9.16671Z" fill="#DB0D0D"/>
<path id="Rectangle 9 Copy" d="M10.9936 6.66671C10.9936 6.20647 10.615 5.83337 10.1479 5.83337C9.68086 5.83337 9.30225 6.20647 9.30225 6.66671C9.30225 7.12694 9.68086 7.50004 10.1479 7.50004C10.615 7.50004 10.9936 7.12694 10.9936 6.66671Z" fill="#DB0D0D"/>
</g>
</svg>
