<svg width="20" height="21" viewBox="0 0 20 21" fill="none" xmlns="http://www.w3.org/2000/svg">
<g id="Group 90338">
<path id="Vector" d="M20 3.99988V6.41997C20 8.00006 18.9998 8.99996 17.42 8.99996H14V2.00999C14 0.899996 14.9099 0 16.0199 0C17.0777 0.00389169 18.0908 0.427187 18.8369 1.17703C19.5831 1.92688 20.0013 2.94206 20 3.99988Z" fill="#121826"/>
<path id="Vector_2" opacity="0.3" d="M5.00007 0H3.99988C0.999895 0 0 1.79009 0 3.99988V18.9998C0 19.8299 0.939895 20.3 1.59989 19.7999L3.30988 18.5198C3.5049 18.3743 3.74601 18.3042 3.98865 18.3227C4.23129 18.3411 4.45906 18.4467 4.62988 18.62L6.29007 20.2898C6.47883 20.4772 6.73403 20.5824 7.00002 20.5824C7.266 20.5824 7.5212 20.4772 7.70996 20.2898L9.38995 18.6098C9.55904 18.44 9.78397 18.3374 10.023 18.3208C10.262 18.3043 10.499 18.375 10.6898 18.5198L12.3998 19.7999C13.0598 20.2898 14 19.82 14 18.9998V2.00009C14.0015 1.47015 14.2127 0.962335 14.5874 0.58758C14.9621 0.212824 15.4699 0.0015831 15.9998 0L5.00007 0ZM9.24985 11.75H4.74988C4.55096 11.75 4.3602 11.671 4.21955 11.5304C4.0789 11.3897 3.99988 11.199 3.99988 11C3.99988 10.8011 4.0789 10.6104 4.21955 10.4697C4.3602 10.3291 4.55096 10.25 4.74988 10.25H9.24985C9.44876 10.25 9.63953 10.3291 9.78018 10.4697C9.92083 10.6104 9.99985 10.8011 9.99985 11C9.99985 11.199 9.92083 11.3897 9.78018 11.5304C9.63953 11.671 9.44876 11.75 9.24985 11.75ZM9.99985 7.74986H3.99988C3.80097 7.74986 3.6102 7.67084 3.46955 7.53019C3.3289 7.38954 3.24988 7.19878 3.24988 6.99987C3.24988 6.80095 3.3289 6.61019 3.46955 6.46954C3.6102 6.32889 3.80097 6.24987 3.99988 6.24987H9.99985C10.1988 6.24987 10.3895 6.32889 10.5302 6.46954C10.6708 6.61019 10.7498 6.80095 10.7498 6.99987C10.7498 7.19878 10.6708 7.38954 10.5302 7.53019C10.3895 7.67084 10.1988 7.74986 9.99985 7.74986Z" fill="#121826"/>
</g>
</svg>
