<svg width="40" height="40" viewBox="0 0 40 40" fill="none" xmlns="http://www.w3.org/2000/svg">
<path opacity="0.3" d="M28.7524 16.7927C28.2992 14.8262 27.1809 13.0765 25.5866 11.8394C23.9924 10.6022 22.0198 9.95342 20.0024 10.0027C17.9864 9.95292 16.0149 10.6003 14.4208 11.8355C12.8267 13.0707 11.7076 14.8181 11.2524 16.7827C10.0724 22.0227 13.2524 26.4527 16.1724 29.2427C17.1999 30.2361 18.5732 30.7915 20.0024 30.7915C21.4316 30.7915 22.8049 30.2361 23.8324 29.2427C26.7324 26.4527 29.9324 22.0027 28.7524 16.7927Z" fill="#121826"/>
<path d="M20.0025 21.8824C19.3692 21.8844 18.7495 21.6984 18.2219 21.348C17.6944 20.9976 17.2827 20.4985 17.0389 19.9139C16.7952 19.3294 16.7304 18.6857 16.8528 18.0643C16.9751 17.4429 17.2791 16.8718 17.7262 16.4232C18.1733 15.9747 18.7435 15.6689 19.3645 15.5446C19.9855 15.4204 20.6294 15.4831 21.2147 15.725C21.8001 15.967 22.3004 16.3771 22.6525 16.9035C23.0045 17.43 23.1925 18.0491 23.1925 18.6824C23.1925 19.5294 22.8567 20.3418 22.2588 20.9416C21.6608 21.5415 20.8494 21.8798 20.0025 21.8824Z" fill="#121826"/>
</svg>
