<svg width="24" height="24" viewBox="0 0 24 24" fill="none" xmlns="http://www.w3.org/2000/svg">
<g id="Cate/Alarm/mix">
<path id="Rectangle 2" opacity="0.3" d="M5.99994 8C5.99994 4.68629 8.68623 2 11.9999 2C15.3136 2 17.9999 4.68629 17.9999 8V9.83095C17.9999 11.2503 18.3857 12.6429 19.1159 13.8599L19.6693 14.7823C20.0364 15.3941 20.2199 15.7 20.2325 15.9497C20.252 16.3366 20.0462 16.6999 19.7045 16.8823C19.4838 17 19.1271 17 18.4137 17H5.58624C4.8728 17 4.51608 17 4.29543 16.8823C3.95367 16.6999 3.74797 16.3366 3.76744 15.9497C3.78 15.7 3.96353 15.3941 4.33059 14.7823L4.884 13.8599C5.61421 12.6429 5.99994 11.2503 5.99994 9.83098V8Z" fill="#121826"/>
<path id="Ellipse 45" d="M14.35 18C14.4328 18 14.5007 18.0673 14.493 18.1498C14.4484 18.6254 14.1923 19.0746 13.7678 19.4142C13.2989 19.7893 12.663 20 12 20C11.337 20 10.7011 19.7893 10.2322 19.4142C9.80772 19.0746 9.55165 18.6254 9.50702 18.1498C9.49928 18.0673 9.56716 18 9.65 18L12 18L14.35 18Z" fill="#121826"/>
</g>
</svg>
