<svg width="19" height="19" viewBox="0 0 19 19" fill="none" xmlns="http://www.w3.org/2000/svg">
<g id="vuesax/linear/call-calling">
<g id="call-calling">
<g id="call-calling_2">
<path id="Vector" opacity="0.3" d="M17.973 15.697C17.973 16.021 17.901 16.354 17.748 16.678C17.595 17.002 17.397 17.308 17.136 17.596C16.695 18.082 16.209 18.433 15.66 18.658C15.12 18.883 14.535 19 13.905 19C12.987 19 12.006 18.784 10.971 18.343C9.936 17.902 8.901 17.308 7.875 16.561C6.84 15.805 5.859 14.968 4.923 14.041C3.996 13.105 3.159 12.124 2.412 11.098C1.674 10.072 1.08 9.046 0.648 8.029C0.216 7.003 0 6.022 0 5.086C0 4.474 0.108 3.889 0.324 3.349C0.54 2.8 0.882 2.296 1.359 1.846C1.935 1.279 2.565 1 3.231 1C3.483 1 3.735 1.054 3.96 1.162C4.194 1.27 4.401 1.432 4.563 1.666L6.651 4.609C6.813 4.834 6.93 5.041 7.011 5.239C7.092 5.428 7.137 5.617 7.137 5.788C7.137 6.004 7.074 6.22 6.948 6.427C6.831 6.634 6.66 6.85 6.444 7.066L5.76 7.777C5.661 7.876 5.616 7.993 5.616 8.137C5.616 8.209 5.625 8.272 5.643 8.344C5.67 8.416 5.697 8.47 5.715 8.524C5.877 8.821 6.156 9.208 6.552 9.676C6.957 10.144 7.389 10.621 7.857 11.098C8.343 11.575 8.811 12.016 9.288 12.421C9.756 12.817 10.143 13.087 10.449 13.249C10.494 13.267 10.548 13.294 10.611 13.321C10.683 13.348 10.755 13.357 10.836 13.357C10.989 13.357 11.106 13.303 11.205 13.204L11.889 12.529C12.114 12.304 12.33 12.133 12.537 12.025C12.744 11.899 12.951 11.836 13.176 11.836C13.347 11.836 13.527 11.872 13.725 11.953C13.923 12.034 14.13 12.151 14.355 12.304L17.334 14.419C17.568 14.581 17.73 14.77 17.829 14.995C17.919 15.22 17.973 15.445 17.973 15.697Z" fill="#121826"/>
<g id="Vector_2">
<path fill-rule="evenodd" clip-rule="evenodd" d="M10.95 4.15C10.95 3.73579 11.2857 3.4 11.7 3.4C12.7576 3.4 13.7074 4.05793 14.346 4.74611C14.7053 5.13125 15.0091 5.56299 15.2267 5.98621C15.4367 6.39457 15.6 6.86018 15.6 7.3C15.6 7.71421 15.2642 8.05 14.85 8.05C14.4357 8.05 14.1 7.71421 14.1 7.3C14.1 7.19982 14.0517 6.98143 13.8927 6.67204C13.7414 6.37783 13.519 6.05839 13.2487 5.76874L13.2471 5.76704C12.7337 5.21353 12.1538 4.9 11.7 4.9C11.2857 4.9 10.95 4.56421 10.95 4.15Z" fill="#121826"/>
<path fill-rule="evenodd" clip-rule="evenodd" d="M10.95 1C10.95 0.585786 11.2857 0.25 11.7 0.25C15.5972 0.25 18.75 3.40279 18.75 7.3C18.75 7.71421 18.4142 8.05 18 8.05C17.5857 8.05 17.25 7.71421 17.25 7.3C17.25 4.23121 14.7687 1.75 11.7 1.75C11.2857 1.75 10.95 1.41421 10.95 1Z" fill="#121826"/>
</g>
</g>
</g>
</g>
</svg>
