<svg width="24" height="24" viewBox="0 0 24 24" fill="none" xmlns="http://www.w3.org/2000/svg">
<g id="Group 90349">
<path id="Vector" fill-rule="evenodd" clip-rule="evenodd" d="M10.9608 0.824951H12.955C15.6939 0.824951 17.2944 1.22723 18.7152 1.98899C20.136 2.75075 21.2573 3.86344 22.0104 5.28427C22.7722 6.70508 23.1745 8.30563 23.1745 11.0445V13.0303C23.1745 15.7692 22.7722 17.3697 22.0104 18.7905C21.2487 20.2113 20.136 21.3326 18.7152 22.0858C17.2944 22.8476 15.6939 23.2499 12.955 23.2499H10.9693C8.23045 23.2499 6.62991 22.8476 5.20911 22.0858C3.78833 21.324 2.6671 20.2113 1.9139 18.7905C1.15215 17.3697 0.749878 15.7692 0.749878 13.0303V11.0445C0.749878 8.30563 1.15215 6.70508 1.9139 5.28427C2.67566 3.86344 3.78833 2.7422 5.20911 1.98899C6.62138 1.22723 8.23045 0.824951 10.9608 0.824951Z" fill="#0068FF"/>
<path id="Vector_2" opacity="0.12" fill-rule="evenodd" clip-rule="evenodd" d="M23.174 12.7027V13.0304C23.174 15.7693 22.7718 17.3698 22.01 18.7907C21.2483 20.2115 20.1356 21.3327 18.7148 22.0859C17.294 22.8477 15.6934 23.25 12.9545 23.25H10.9689C8.72778 23.25 7.24883 22.9806 6.00687 22.4654L3.95935 20.3569L23.174 12.7027Z" fill="#001A33"/>
<path id="Vector_3" fill-rule="evenodd" clip-rule="evenodd" d="M4.18704 20.4303C5.23581 20.5463 6.54703 20.2472 7.47805 19.7952C11.5208 22.0298 17.8404 21.923 21.6658 19.475C21.8141 19.2524 21.9527 19.021 22.0814 18.781C22.8459 17.355 23.2496 15.7487 23.2496 12.9998V11.0068C23.2496 8.25791 22.8459 6.65154 22.0814 5.22555C21.3254 3.79956 20.2001 2.68282 18.7741 1.91828C17.3481 1.15374 15.7418 0.75 12.9929 0.75H10.9914C8.65021 0.75 7.1304 1.04472 5.85345 1.60736C5.78365 1.66986 5.71516 1.73344 5.64811 1.79808C1.90175 5.40957 1.61696 13.238 4.79375 17.4906C4.7973 17.4969 4.80122 17.5032 4.80553 17.5096C5.29518 18.2312 4.82271 19.494 4.08396 20.2327C3.96369 20.3444 4.00664 20.4132 4.18704 20.4303Z" fill="white"/>
<path id="Vector_4" d="M9.95894 8.42535H5.56819V9.36686H8.61517L5.61095 13.0901C5.51681 13.227 5.44836 13.3554 5.44836 13.6464V13.8861H9.59088C9.79631 13.8861 9.96752 13.7149 9.96752 13.5095V13.0045H6.76645L9.59088 9.46099C9.63369 9.40966 9.71071 9.31552 9.74498 9.27272L9.76209 9.24703C9.92472 9.00738 9.95894 8.80195 9.95894 8.55376V8.42535Z" fill="#0068FF"/>
<path id="Vector_5" d="M15.548 13.8861H16.1728V8.42535H15.2313V13.5694C15.2313 13.7406 15.3683 13.8861 15.548 13.8861Z" fill="#0068FF"/>
<path id="Vector_6" d="M12.3291 9.64093C11.1479 9.64093 10.1893 10.5995 10.1893 11.7807C10.1893 12.9619 11.1479 13.9205 12.3291 13.9205C13.5102 13.9205 14.4688 12.9619 14.4688 11.7807C14.4774 10.5995 13.5188 9.64093 12.3291 9.64093ZM12.3291 13.0389C11.6358 13.0389 11.0709 12.474 11.0709 11.7807C11.0709 11.0874 11.6358 10.5225 12.3291 10.5225C13.0223 10.5225 13.5873 11.0874 13.5873 11.7807C13.5873 12.474 13.0309 13.0389 12.3291 13.0389Z" fill="#0068FF"/>
<path id="Vector_7" d="M18.9541 9.60669C17.7644 9.60669 16.7972 10.5739 16.7972 11.7636C16.7972 12.9533 17.7644 13.9205 18.9541 13.9205C20.1438 13.9205 21.111 12.9533 21.111 11.7636C21.111 10.5739 20.1438 9.60669 18.9541 9.60669ZM18.9541 13.0389C18.2523 13.0389 17.6874 12.474 17.6874 11.7722C17.6874 11.0703 18.2523 10.5054 18.9541 10.5054C19.6559 10.5054 20.2209 11.0703 20.2209 11.7722C20.2209 12.474 19.6559 13.0389 18.9541 13.0389Z" fill="#0068FF"/>
<path id="Vector_8" d="M13.9739 13.886H14.4789V9.7605H13.5973V13.518C13.5973 13.7148 13.7684 13.886 13.9739 13.886Z" fill="#0068FF"/>
</g>
</svg>
