<svg width="25" height="24" viewBox="0 0 25 24" fill="none" xmlns="http://www.w3.org/2000/svg">
<path d="M22.7375 4.72502L12.6125 0.975024C12.5375 0.937524 12.425 0.937524 12.35 0.975024L2.225 4.72502C2.1125 4.76252 2 4.91252 2 5.06252C2 5.21252 2.1125 5.36252 2.2625 5.40002L5.75 6.71252V8.81252C5.75 8.88752 5.75 8.92502 5.7875 9.00002C5.825 9.03752 6.0125 9.41252 6.5 9.86252C6.5 9.90002 6.4625 9.93752 6.4625 9.97503V10.0125C5.4125 10.2 4.5875 11.1 4.5875 12.225C4.5875 13.35 5.4125 14.25 6.4625 14.4375V14.55C6.4625 14.5875 6.7625 16.4625 8.15 17.9625C6.1625 18.9375 4.55 20.5875 3.6125 22.6125C3.575 22.725 3.575 22.875 3.65 22.9875C3.725 23.1 3.8375 23.175 3.95 23.175H20.975C21.0875 23.175 21.2375 23.1 21.275 22.9875C21.3125 22.875 21.35 22.7625 21.3125 22.6125C20.375 20.5875 18.7625 18.975 16.775 17.9625C18.125 16.4625 18.4625 14.5875 18.4625 14.55V14.4375C19.5125 14.25 20.3375 13.35 20.3375 12.225C20.3375 11.1 19.5125 10.2 18.4625 10.0125V9.97503C18.4625 9.93752 18.4625 9.90002 18.425 9.86252C18.9125 9.41252 19.1375 9.07502 19.1375 9.00002C19.175 8.92502 19.175 8.88752 19.175 8.81252V6.71252L20.675 6.15002V9.26252C20.225 9.41253 19.925 9.82502 19.925 10.3125C19.925 10.95 20.4125 11.4375 21.05 11.4375C21.6875 11.4375 22.175 10.95 22.175 10.3125C22.175 9.82502 21.875 9.41253 21.425 9.26252V5.88752L22.6625 5.43752C22.8125 5.40002 22.925 5.25002 22.925 5.10002C22.925 4.95002 22.8875 4.76252 22.7375 4.72502ZM21.125 10.6875C20.9 10.6875 20.75 10.5375 20.75 10.3125C20.75 10.0875 20.9 9.93752 21.125 9.93752C21.35 9.93752 21.5 10.0875 21.5 10.3125C21.5 10.5375 21.35 10.6875 21.125 10.6875ZM7.25 10.425C7.7 10.725 8.225 11.025 8.9 11.25C8.6375 11.5875 8.075 12.0375 7.25 12.15V10.425ZM5.375 12.1875C5.375 11.475 5.8625 10.9125 6.5 10.725V13.6125C5.8625 13.4625 5.375 12.9 5.375 12.1875ZM8.75 18.45C9.35 18.9375 10.1 19.35 11.0375 19.5375L12.575 22.3125H4.55C5.525 20.5875 6.9875 19.2375 8.75 18.45ZM12.0125 19.6875H12.9875L12.5 20.5125L12.0125 19.6875ZM20.4125 22.3125H13.475L12.875 21.2625L13.925 19.5375C14.8625 19.35 15.6125 18.9375 16.2125 18.45C18.0125 19.2375 19.475 20.5875 20.4125 22.3125ZM17.75 14.4C17.675 14.8125 16.8875 18.9375 12.5 18.9375C8.15 18.9375 7.325 14.8125 7.25 14.4V12.9C8.6375 12.75 9.3875 11.8875 9.6875 11.475C10.025 11.55 10.3625 11.625 10.7375 11.7C10.925 12 12.05 13.5 13.925 13.8375C14.1875 13.875 14.45 13.9125 14.7125 13.9125H14.75V14.1C14.75 14.325 14.9 14.475 15.125 14.475C15.35 14.475 15.5 14.325 15.5 14.1V13.8375C16.25 13.725 17 13.3875 17.75 12.9375V14.4ZM17.75 12C16.475 12.9375 15.2 13.3125 14.075 13.0875C13.025 12.9 12.2375 12.2625 11.7875 11.775C12.0125 11.775 12.275 11.8125 12.5 11.8125C15.05 11.8125 16.7 11.1375 17.75 10.425V12ZM19.625 12.1875C19.625 12.9 19.1375 13.4625 18.5 13.65V10.7625C19.1375 10.9125 19.625 11.475 19.625 12.1875ZM18.5 8.70002C18.2 9.11252 16.6625 11.0625 12.5 11.0625C8.3375 11.0625 6.8 9.11252 6.5 8.70002V6.97502L12.3875 9.15002C12.425 9.15002 12.4625 9.18752 12.5 9.18752C12.5375 9.18752 12.575 9.18752 12.6125 9.15002L18.5 6.97502V8.70002ZM12.5 8.40002L3.4625 5.06252L12.5 1.72502L21.5375 5.06252L12.5 8.40002Z" fill="#B6C8E2"/>
<path d="M9.875 12.9375C9.65 12.9375 9.5 13.0875 9.5 13.3125V14.0625C9.5 14.2875 9.65 14.4375 9.875 14.4375C10.1 14.4375 10.25 14.2875 10.25 14.0625V13.3125C10.25 13.0875 10.1 12.9375 9.875 12.9375ZM14.4875 16.35C14.3 16.275 14.075 16.3875 14 16.575C14 16.575 13.7 17.4375 12.4625 17.4375C11.2625 17.4375 10.9625 16.6125 10.925 16.575C10.85 16.3875 10.6625 16.275 10.4375 16.35C10.25 16.425 10.1375 16.6125 10.2125 16.8375C10.25 16.9125 10.7 18.225 12.425 18.225C14.15 18.225 14.6375 16.9125 14.6375 16.8375C14.7875 16.6125 14.675 16.3875 14.4875 16.35Z" fill="#B6C8E2"/>
</svg>
