<svg width="25" height="24" viewBox="0 0 25 24" fill="none" xmlns="http://www.w3.org/2000/svg">
<path d="M5.09375 16.875C4.46332 16.875 3.84705 16.6881 3.32287 16.3378C2.79869 15.9876 2.39014 15.4897 2.14889 14.9073C1.90763 14.3249 1.84451 13.684 1.9675 13.0657C2.09049 12.4473 2.39407 11.8794 2.83985 11.4336C3.28563 10.9878 3.85359 10.6842 4.4719 10.5612C5.09022 10.4383 5.73112 10.5014 6.31355 10.7426C6.89599 10.9839 7.39381 11.3924 7.74406 11.9166C8.09431 12.4408 8.28125 13.0571 8.28125 13.6875C8.28026 14.5326 7.94412 15.3428 7.34656 15.9403C6.749 16.5379 5.93882 16.874 5.09375 16.875ZM5.09375 11.625C4.68583 11.625 4.28706 11.746 3.94789 11.9726C3.60871 12.1992 3.34436 12.5213 3.18825 12.8982C3.03214 13.2751 2.9913 13.6898 3.07088 14.0899C3.15046 14.49 3.3469 14.8575 3.63534 15.1459C3.92379 15.4344 4.29129 15.6308 4.69138 15.7104C5.09146 15.79 5.50616 15.7491 5.88304 15.593C6.25991 15.4369 6.58203 15.1725 6.80866 14.8334C7.03529 14.4942 7.15625 14.0954 7.15625 13.6875C7.15526 13.1408 6.93764 12.6168 6.55106 12.2302C6.16448 11.8436 5.64046 11.626 5.09375 11.625Z" fill="#B6C8E2"/>
<path d="M7.90625 21.375H2.28125C2.13207 21.375 1.98899 21.3157 1.8835 21.2102C1.77801 21.1048 1.71875 20.9617 1.71875 20.8125V18.1875C1.71974 17.5413 1.97687 16.9219 2.43377 16.465C2.89068 16.0081 3.51009 15.751 4.15625 15.75H6.03125C6.67741 15.751 7.29682 16.0081 7.75373 16.465C8.21063 16.9219 8.46776 17.5413 8.46875 18.1875V20.8125C8.46875 20.9617 8.40949 21.1048 8.304 21.2102C8.19851 21.3157 8.05543 21.375 7.90625 21.375ZM2.84375 20.25H7.34375V18.1875C7.34375 17.8394 7.20547 17.5056 6.95933 17.2594C6.71319 17.0133 6.37935 16.875 6.03125 16.875H4.15625C3.80815 16.875 3.47431 17.0133 3.22817 17.2594C2.98203 17.5056 2.84375 17.8394 2.84375 18.1875V20.25Z" fill="#B6C8E2"/>
<path d="M8.09375 19.125C7.98549 19.1252 7.87947 19.0942 7.7884 19.0357C7.69734 18.9771 7.6251 18.8935 7.58036 18.795C7.53563 18.6964 7.52029 18.587 7.53619 18.4799C7.55208 18.3728 7.59855 18.2726 7.67 18.1912L12.92 12.1912C13.0195 12.0789 13.1595 12.0106 13.3093 12.0014C13.4591 11.9923 13.6064 12.043 13.7188 12.1425C13.8311 12.242 13.8994 12.382 13.9086 12.5318C13.9177 12.6816 13.867 12.8289 13.7675 12.9412L8.5175 18.9412C8.46405 19.0003 8.39858 19.0473 8.3255 19.079C8.25242 19.1107 8.1734 19.1263 8.09375 19.125ZM22.7188 3.75H4.34375C4.19457 3.75 4.05149 3.69074 3.946 3.58525C3.84051 3.47976 3.78125 3.33668 3.78125 3.1875C3.78125 3.03832 3.84051 2.89524 3.946 2.78975C4.05149 2.68426 4.19457 2.625 4.34375 2.625H22.7188C22.8679 2.625 23.011 2.68426 23.1165 2.78975C23.222 2.89524 23.2812 3.03832 23.2812 3.1875C23.2812 3.33668 23.222 3.47976 23.1165 3.58525C23.011 3.69074 22.8679 3.75 22.7188 3.75ZM22.7188 15.375H14.8438C14.6946 15.375 14.5515 15.3157 14.446 15.2102C14.3405 15.1048 14.2812 14.9617 14.2812 14.8125C14.2812 14.6633 14.3405 14.5202 14.446 14.4148C14.5515 14.3093 14.6946 14.25 14.8438 14.25H22.7188C22.8679 14.25 23.011 14.3093 23.1165 14.4148C23.222 14.5202 23.2812 14.6633 23.2812 14.8125C23.2812 14.9617 23.222 15.1048 23.1165 15.2102C23.011 15.3157 22.8679 15.375 22.7188 15.375Z" fill="#B6C8E2"/>
<path d="M21.2188 15.375C21.0696 15.375 20.9265 15.3157 20.821 15.2102C20.7155 15.1048 20.6562 14.9617 20.6562 14.8125V3.1875C20.6562 3.03832 20.7155 2.89524 20.821 2.78975C20.9265 2.68426 21.0696 2.625 21.2188 2.625C21.3679 2.625 21.511 2.68426 21.6165 2.78975C21.722 2.89524 21.7812 3.03832 21.7812 3.1875V14.8125C21.7812 14.9617 21.722 15.1048 21.6165 15.2102C21.511 15.3157 21.3679 15.375 21.2188 15.375ZM5.84375 9C5.69457 9 5.55149 8.94074 5.446 8.83525C5.34051 8.72976 5.28125 8.58668 5.28125 8.4375V3.1875C5.28125 3.03832 5.34051 2.89524 5.446 2.78975C5.55149 2.68426 5.69457 2.625 5.84375 2.625C5.99293 2.625 6.13601 2.68426 6.2415 2.78975C6.34699 2.89524 6.40625 3.03832 6.40625 3.1875V8.4375C6.40625 8.58668 6.34699 8.72976 6.2415 8.83525C6.13601 8.94074 5.99293 9 5.84375 9ZM14.0938 7.125H9.96875C9.81957 7.125 9.67649 7.06574 9.571 6.96025C9.46551 6.85476 9.40625 6.71168 9.40625 6.5625C9.40625 6.41332 9.46551 6.27024 9.571 6.16475C9.67649 6.05926 9.81957 6 9.96875 6H14.0938C14.2429 6 14.386 6.05926 14.4915 6.16475C14.597 6.27024 14.6562 6.41332 14.6562 6.5625C14.6562 6.71168 14.597 6.85476 14.4915 6.96025C14.386 7.06574 14.2429 7.125 14.0938 7.125ZM16.7188 10.125H9.96875C9.81957 10.125 9.67649 10.0657 9.571 9.96025C9.46551 9.85476 9.40625 9.71168 9.40625 9.5625C9.40625 9.41332 9.46551 9.27024 9.571 9.16475C9.67649 9.05926 9.81957 9 9.96875 9H16.7188C16.8679 9 17.011 9.05926 17.1165 9.16475C17.222 9.27024 17.2812 9.41332 17.2812 9.5625C17.2812 9.71168 17.222 9.85476 17.1165 9.96025C17.011 10.0657 16.8679 10.125 16.7188 10.125Z" fill="#B6C8E2"/>
</svg>
