<svg width="25" height="24" viewBox="0 0 25 24" fill="none" xmlns="http://www.w3.org/2000/svg">
<path fill-rule="evenodd" clip-rule="evenodd" d="M3.50013 1.5C2.67764 1.5 2.00015 2.17749 2.00015 2.99998L1.99815 16.0018C1.99815 16.6693 2.99913 16.6693 2.99913 16.0018L3.00013 2.99998C3.00013 2.71448 3.21463 2.49999 3.50013 2.49999H17.5C17.7854 2.49999 17.9999 2.71448 17.9999 2.99998V11.9999C17.9899 12.6759 19.0099 12.6759 18.9999 11.9999V2.99998C18.9999 2.17749 18.3224 1.5 17.5 1.5H3.50013ZM6.50009 5.49995C6.36748 5.49995 6.24031 5.55263 6.14654 5.64639C6.05277 5.74016 6.0001 5.86734 6.0001 5.99994C6.0001 6.13255 6.05277 6.25973 6.14654 6.35349C6.24031 6.44726 6.36748 6.49994 6.50009 6.49994C6.6327 6.49994 6.75987 6.44726 6.85364 6.35349C6.94741 6.25973 7.00008 6.13255 7.00008 5.99994C7.00008 5.86734 6.94741 5.74016 6.85364 5.64639C6.75987 5.55263 6.6327 5.49995 6.50009 5.49995ZM8.45007 5.50095C7.79857 5.54595 7.84507 6.51794 8.49807 6.50094H14.5C15.1525 6.48694 15.1525 5.51495 14.5 5.50095H8.49807C8.48207 5.50019 8.46606 5.50019 8.45007 5.50095ZM6.50009 8.49991C6.36748 8.49991 6.24031 8.55259 6.14654 8.64636C6.05277 8.74012 6.0001 8.8673 6.0001 8.99991C6.0001 9.13251 6.05277 9.25969 6.14654 9.35345C6.24031 9.44722 6.36748 9.4999 6.50009 9.4999C6.6327 9.4999 6.75987 9.44722 6.85364 9.35345C6.94741 9.25969 7.00008 9.13251 7.00008 8.99991C7.00008 8.8673 6.94741 8.74012 6.85364 8.64636C6.75987 8.55259 6.6327 8.49991 6.50009 8.49991ZM14.555 8.49991C14.5365 8.49991 14.518 8.49991 14.5 8.50191H8.49807C8.48207 8.50116 8.46606 8.50116 8.45007 8.50191C7.83707 8.57791 7.88007 9.4809 8.49807 9.4979H14.5C15.1865 9.5584 15.244 8.51441 14.555 8.49991ZM8.49807 11.4989C7.84557 11.5129 7.84557 12.4849 8.49807 12.4989H14.5C15.181 12.5139 15.181 11.4839 14.5 11.4989H8.49807ZM6.50009 11.4999C6.36748 11.4999 6.24031 11.5526 6.14654 11.6463C6.05277 11.7401 6.0001 11.8673 6.0001 11.9999C6.0001 12.1325 6.05277 12.2596 6.14654 12.3534C6.24031 12.4472 6.36748 12.4999 6.50009 12.4999C6.6327 12.4999 6.75987 12.4472 6.85364 12.3534C6.94741 12.2596 7.00008 12.1325 7.00008 11.9999C7.00008 11.8673 6.94741 11.7401 6.85364 11.6463C6.75987 11.5526 6.6327 11.4999 6.50009 11.4999ZM6.50009 14.4998C6.36748 14.4998 6.24031 14.5525 6.14654 14.6463C6.05277 14.74 6.0001 14.8672 6.0001 14.9998C6.0001 15.1324 6.05277 15.2596 6.14654 15.3534C6.24031 15.4471 6.36748 15.4998 6.50009 15.4998C6.6327 15.4998 6.75987 15.4471 6.85364 15.3534C6.94741 15.2596 7.00008 15.1324 7.00008 14.9998C7.00008 14.8672 6.94741 14.74 6.85364 14.6463C6.75987 14.5525 6.6327 14.4998 6.50009 14.4998ZM8.49807 14.4998C7.81707 14.4848 7.81707 15.5148 8.49807 15.4998H13.499C14.18 15.5148 14.18 14.4848 13.499 14.4998H8.49807ZM6.50009 17.4998C6.36748 17.4998 6.24031 17.5525 6.14654 17.6462C6.05277 17.74 6.0001 17.8672 6.0001 17.9998C6.0001 18.1324 6.05277 18.2596 6.14654 18.3533C6.24031 18.4471 6.36748 18.4998 6.50009 18.4998C6.6327 18.4998 6.75987 18.4471 6.85364 18.3533C6.94741 18.2596 7.00008 18.1324 7.00008 17.9998C7.00008 17.8672 6.94741 17.74 6.85364 17.6462C6.75987 17.5525 6.6327 17.4998 6.50009 17.4998ZM8.45007 17.4998C7.78307 17.5318 7.83057 18.5328 8.49807 18.5008H12.499C13.1665 18.5008 13.1665 17.4998 12.499 17.4998H8.49807C8.48207 17.499 8.46606 17.499 8.45007 17.4998ZM2.49314 17.9908C2.42705 17.9914 2.36175 18.0052 2.30101 18.0312C2.24026 18.0573 2.18529 18.0951 2.13925 18.1425C2.09322 18.19 2.05705 18.246 2.03283 18.3075C2.00861 18.369 1.99682 18.4347 1.99815 18.5008L2.00015 20.9998C2.00015 21.8222 2.67764 22.4997 3.50013 22.4997H13.5C14.176 22.5097 14.176 21.4897 13.5 21.4997H3.50013C3.21463 21.4997 3.00013 21.2852 3.00013 20.9998L2.99913 18.5008C3.00048 18.4338 2.98834 18.3672 2.96344 18.305C2.93854 18.2427 2.90138 18.1862 2.85418 18.1386C2.80698 18.091 2.75069 18.0534 2.68867 18.028C2.62665 18.0026 2.56015 17.99 2.49314 17.9908ZM18.5009 13.4988C16.0215 13.4988 14.002 15.5193 14.002 17.9988C14.002 20.4783 16.022 22.5017 18.5009 22.5017C20.9804 22.5017 22.9999 20.4783 22.9999 17.9988C22.9999 15.5193 20.9799 13.4988 18.5009 13.4988ZM18.5009 14.4998C18.9607 14.4988 19.4162 14.5886 19.8412 14.764C20.2662 14.9395 20.6523 15.1972 20.9774 15.5223C21.3025 15.8474 21.5602 16.2336 21.7357 16.6586C21.9112 17.0835 22.0009 17.539 21.9999 17.9988C22.001 18.4587 21.9113 18.9144 21.7359 19.3396C21.5605 19.7647 21.3028 20.1511 20.9778 20.4765C20.6527 20.8019 20.2665 21.0598 19.8415 21.2356C19.4164 21.4114 18.9609 21.5015 18.5009 21.5007C18.041 21.5015 17.5854 21.4114 17.1604 21.2356C16.7354 21.0598 16.3492 20.8019 16.0241 20.4765C15.699 20.1511 15.4414 19.7647 15.266 19.3396C15.0906 18.9144 15.0009 18.4587 15.002 17.9988C15.0009 17.539 15.0907 17.0835 15.2662 16.6586C15.4416 16.2336 15.6993 15.8474 16.0245 15.5223C16.3496 15.1972 16.7357 14.9395 17.1607 14.764C17.5857 14.5886 18.0412 14.4988 18.5009 14.4998ZM20.0799 16.4373C19.9504 16.4415 19.8277 16.4958 19.7374 16.5888L17.9694 18.3563L17.2645 17.6483C17.2181 17.6012 17.1629 17.5637 17.102 17.538C17.041 17.5123 16.9756 17.4989 16.9095 17.4986C16.8434 17.4983 16.7779 17.5111 16.7167 17.5362C16.6556 17.5614 16.6 17.5984 16.5532 17.6451C16.5065 17.6918 16.4694 17.7473 16.4442 17.8084C16.4189 17.8695 16.406 17.935 16.4063 18.0011C16.4065 18.0673 16.4198 18.1327 16.4454 18.1936C16.471 18.2546 16.5084 18.3099 16.5555 18.3563L17.6154 19.4158C17.6619 19.4623 17.717 19.4991 17.7777 19.5243C17.8384 19.5495 17.9035 19.5624 17.9692 19.5624C18.0349 19.5624 18.1 19.5495 18.1607 19.5243C18.2214 19.4991 18.2765 19.4623 18.3229 19.4158L20.4464 17.2968C20.5193 17.2265 20.5692 17.1356 20.5893 17.0364C20.6095 16.9371 20.599 16.834 20.5592 16.7408C20.5195 16.6476 20.4524 16.5687 20.3668 16.5145C20.2812 16.4603 20.1812 16.4334 20.0799 16.4373Z" fill="#FFB057"/>
</svg>
