<svg width="26" height="25" viewBox="0 0 26 25" fill="none" xmlns="http://www.w3.org/2000/svg">
<g clip-path="url(#clip0_67_538)">
<path d="M13.3001 0.493896C6.70047 0.493896 1.35059 5.80154 1.35059 12.349C1.35067 13.9059 1.65983 15.4474 2.26042 16.8857C2.86102 18.324 3.74128 19.6309 4.85095 20.7317C5.96061 21.8325 7.27796 22.7057 8.72777 23.3014C10.1776 23.8971 11.7315 24.2036 13.3007 24.2036C14.8699 24.2035 16.4238 23.8967 17.8735 23.3009C19.3232 22.705 20.6405 21.8317 21.7501 20.7308C22.8596 19.6299 23.7397 18.323 24.3402 16.8846C24.9406 15.4462 25.2496 13.9046 25.2495 12.3478C25.2495 5.80154 19.8984 0.493896 13.3001 0.493896ZM13.3001 21.7331C12.0578 21.7331 10.8276 21.4904 9.67987 21.0187C8.53213 20.547 7.48927 19.8557 6.61083 18.9842C5.73239 18.1127 5.03557 17.0781 4.56016 15.9394C4.08475 14.8007 3.84006 13.5803 3.84006 12.3478C3.84006 11.1153 4.08475 9.89487 4.56016 8.75619C5.03557 7.61751 5.73239 6.58288 6.61083 5.71138C7.48927 4.83987 8.53213 4.14855 9.67987 3.6769C10.8276 3.20524 12.0578 2.96248 13.3001 2.96248C15.809 2.96248 18.2152 3.95129 19.9893 5.71138C21.7634 7.47146 22.7601 9.85866 22.7601 12.3478C22.7601 14.8369 21.7634 17.2241 19.9893 18.9842C18.2152 20.7443 15.809 21.7331 13.3001 21.7331ZM16.4119 7.71935C15.3813 7.71935 14.5448 8.68629 14.5448 9.87921C14.5448 11.0721 15.3813 12.0403 16.4119 12.0403C17.4438 12.0403 18.279 11.0734 18.279 9.87921C18.279 8.68505 17.4438 7.71935 16.4119 7.71935ZM10.1895 12.0403C11.2201 12.0403 12.0553 11.0734 12.0553 9.87921C12.0553 8.68505 11.2189 7.71812 10.1882 7.71812C9.15758 7.71812 8.32111 8.68505 8.32111 9.87921C8.32111 11.0734 9.15758 12.0403 10.1895 12.0403ZM17.0343 15.1276H9.56585C9.31826 15.1276 9.0808 15.2252 8.90573 15.3989C8.73065 15.5725 8.6323 15.8081 8.6323 16.0538C8.6323 16.2994 8.73065 16.535 8.90573 16.7087C9.0808 16.8824 9.31826 16.9799 9.56585 16.9799H17.0343C17.2819 16.9799 17.5193 16.8824 17.6944 16.7087C17.8695 16.535 17.9678 16.2994 17.9678 16.0538C17.9678 15.8081 17.8695 15.5725 17.6944 15.3989C17.5193 15.2252 17.2819 15.1276 17.0343 15.1276Z" fill="#B6C8E2"/>
</g>
<defs>
<clipPath id="clip0_67_538">
<rect width="24.8947" height="24.6982" fill="white" transform="translate(0.852539)"/>
</clipPath>
</defs>
</svg>
