<svg width="26" height="25" viewBox="0 0 26 25" fill="none" xmlns="http://www.w3.org/2000/svg">
<g clip-path="url(#clip0_67_535)">
<path d="M13.1526 0.493896C6.553 0.493896 1.20312 5.80154 1.20312 12.349C1.20321 13.9059 1.51237 15.4474 2.11296 16.8857C2.71356 18.324 3.59382 19.6309 4.70349 20.7317C5.81315 21.8325 7.1305 22.7057 8.58031 23.3014C10.0301 23.8971 11.584 24.2036 13.1532 24.2036C14.7224 24.2035 16.2763 23.8967 17.726 23.3009C19.1758 22.705 20.493 21.8317 21.6026 20.7308C22.7121 19.6299 23.5923 18.323 24.1927 16.8846C24.7932 15.4462 25.1022 13.9046 25.1021 12.3478C25.1021 5.80154 19.7509 0.493896 13.1526 0.493896ZM13.1526 21.7331C11.9012 21.7474 10.6595 21.5151 9.49923 21.0499C8.33897 20.5847 7.28329 19.8957 6.39333 19.0228C5.50337 18.1499 4.79682 17.1106 4.3146 15.9649C3.83239 14.8192 3.58409 13.59 3.58409 12.3484C3.58409 11.1069 3.83239 9.87764 4.3146 8.73196C4.79682 7.58628 5.50337 6.5469 6.39333 5.67404C7.28329 4.80118 8.33897 4.11217 9.49923 3.64694C10.6595 3.1817 11.9012 2.94947 13.1526 2.96372C14.404 2.94947 15.6457 3.1817 16.806 3.64694C17.9662 4.11217 19.0219 4.80118 19.9119 5.67404C20.8018 6.5469 21.5084 7.58628 21.9906 8.73196C22.4728 9.87764 22.7211 11.1069 22.7211 12.3484C22.7211 13.59 22.4728 14.8192 21.9906 15.9649C21.5084 17.1106 20.8018 18.1499 19.9119 19.0228C19.0219 19.8957 17.9662 20.5847 16.806 21.0499C15.6457 21.5151 14.404 21.7474 13.1526 21.7331ZM10.042 12.0403C11.0726 12.0403 11.9079 11.0734 11.9079 9.87921C11.9079 8.68505 11.0714 7.71812 10.0408 7.71812C9.01011 7.71812 8.17365 8.68505 8.17365 9.87921C8.17365 11.0734 9.01011 12.0403 10.042 12.0403ZM16.2644 12.0403C17.2963 12.0403 18.1315 11.0734 18.1315 9.87921C18.1315 8.68505 17.2951 7.71812 16.2644 7.71812C15.2338 7.71812 14.3973 8.68629 14.3973 9.87921C14.3973 11.0721 15.2338 12.0403 16.2644 12.0403ZM18.556 13.9989C18.3363 13.8889 18.0819 13.8687 17.8474 13.9426C17.6129 14.0164 17.4168 14.1785 17.3013 14.394C17.259 14.4755 16.2196 16.3613 13.1538 16.3613C10.103 16.3613 9.05742 14.4928 9.00514 14.3953C8.89322 14.176 8.6981 14.0098 8.46268 13.9333C8.22726 13.8567 7.97084 13.8761 7.74982 13.9871C7.5288 14.0982 7.36129 14.2918 7.28414 14.5253C7.20699 14.7589 7.22652 15.0133 7.33843 15.2325C7.40067 15.3548 8.89187 18.2136 13.1538 18.2136C17.4171 18.2136 18.9058 15.3536 18.9668 15.2313C19.0764 15.0137 19.0948 14.7619 19.0178 14.531C18.9408 14.3 18.7748 14.1087 18.556 13.9989Z" fill="#229A89"/>
</g>
<defs>
<clipPath id="clip0_67_535">
<rect width="24.8947" height="24.6982" fill="white" transform="translate(0.705078)"/>
</clipPath>
</defs>
</svg>
