<svg width="25" height="25" viewBox="0 0 25 25" fill="none" xmlns="http://www.w3.org/2000/svg">
<g clip-path="url(#clip0_67_541)">
<path d="M12.4488 0.493896C5.84793 0.493896 0.498047 5.80154 0.498047 12.349C0.497883 13.9061 0.806886 15.4479 1.40741 16.8865C2.00793 18.325 2.88821 19.6321 3.99797 20.7331C5.10773 21.8341 6.42523 22.7074 7.87523 23.3032C9.32523 23.899 10.8793 24.2056 12.4488 24.2054C19.0471 24.2054 24.3982 18.8978 24.3982 12.349C24.397 5.80154 19.0459 0.493896 12.4488 0.493896ZM12.4475 21.7331C11.2052 21.7331 9.97507 21.4904 8.82733 21.0187C7.67959 20.547 6.63673 19.8557 5.75829 18.9842C4.87985 18.1127 4.18303 17.0781 3.70762 15.9394C3.23221 14.8007 2.98752 13.5803 2.98752 12.3478C2.98752 11.1153 3.23221 9.89487 3.70762 8.75619C4.18303 7.61751 4.87985 6.58288 5.75829 5.71138C6.63673 4.83987 7.67959 4.14855 8.82733 3.6769C9.97507 3.20524 11.2052 2.96248 12.4475 2.96248C14.9565 2.96248 17.3627 3.95129 19.1367 5.71138C20.9108 7.47146 21.9075 9.85866 21.9075 12.3478C21.9075 14.8369 20.9108 17.2241 19.1367 18.9842C17.3627 20.7443 14.9565 21.7331 12.4475 21.7331ZM15.5606 12.0403C16.5912 12.0403 17.4277 11.0734 17.4277 9.87921C17.4277 8.68505 16.5912 7.71812 15.5606 7.71812C14.53 7.71812 13.6935 8.68505 13.6935 9.87921C13.6935 11.0734 14.5287 12.0403 15.5606 12.0403ZM9.33692 12.0403C10.3676 12.0403 11.204 11.0734 11.204 9.87921C11.204 8.68505 10.3676 7.71812 9.33692 7.71812C8.30628 7.71812 7.46982 8.68505 7.46982 9.87921C7.46982 11.0734 8.30504 12.0403 9.33692 12.0403ZM12.45 13.8927C8.18803 13.8927 6.69684 16.7515 6.6346 16.8737C6.52368 17.0935 6.50529 17.348 6.58349 17.5812C6.66169 17.8144 6.83007 18.0072 7.05159 18.1173C7.2731 18.2273 7.5296 18.2456 7.76467 18.168C7.99974 18.0904 8.19411 17.9234 8.30504 17.7036C8.31499 17.6826 9.32821 15.745 12.45 15.745C15.5158 15.745 16.5552 17.6307 16.5925 17.7024C16.6467 17.8121 16.7222 17.9102 16.8148 17.9909C16.9073 18.0716 17.0151 18.1333 17.1318 18.1724C17.2485 18.2116 17.3718 18.2275 17.4948 18.2191C17.6177 18.2108 17.7377 18.1784 17.848 18.1238C17.9582 18.0692 18.0564 17.9935 18.137 17.901C18.2176 17.8086 18.279 17.7012 18.3176 17.5851C18.3561 17.469 18.3712 17.3465 18.3618 17.2246C18.3524 17.1027 18.3188 16.9839 18.2629 16.875C18.2019 16.7527 16.712 13.8927 12.45 13.8927Z" fill="#B6C8E2"/>
</g>
<defs>
<clipPath id="clip0_67_541">
<rect width="24.8947" height="24.6982" fill="white"/>
</clipPath>
</defs>
</svg>
