<svg width="40" height="40" viewBox="0 0 40 40" fill="none" xmlns="http://www.w3.org/2000/svg">
<g clip-path="url(#clip0_8459_13423)">
<path d="M36.0417 6.25H3.95841C2.69478 6.25 1.66675 7.27803 1.66675 8.54167V31.4583C1.66675 32.722 2.69478 33.75 3.95841 33.75H36.0417C37.3054 33.75 38.3334 32.722 38.3334 31.4583V8.54167C38.3334 7.27803 37.3054 6.25 36.0417 6.25Z" fill="#FFDE17"/>
<path d="M38.3334 8.54167V31.4583C38.3334 32.7223 37.305 33.75 36.0417 33.75H32.6042C33.8675 33.75 34.8959 32.7223 34.8959 31.4583V8.54167C34.8959 7.27767 33.8675 6.25 32.6042 6.25H36.0417C37.305 6.25 38.3334 7.27767 38.3334 8.54167Z" fill="#FFD500"/>
<path d="M37.7605 10.834H2.23966C1.92327 10.834 1.66675 11.0905 1.66675 11.4069V15.9902C1.66675 16.3066 1.92327 16.5632 2.23966 16.5632H37.7605C38.0769 16.5632 38.3334 16.3066 38.3334 15.9902V11.4069C38.3334 11.0905 38.0769 10.834 37.7605 10.834Z" fill="#595965"/>
<path d="M38.3334 11.4069V15.9902C38.3334 16.3068 38.077 16.5632 37.7605 16.5632H34.323C34.6395 16.5632 34.8959 16.3068 34.8959 15.9902V11.4069C34.8959 11.0904 34.6395 10.834 34.323 10.834H37.7605C38.077 10.834 38.3334 11.0904 38.3334 11.4069Z" fill="#44454E"/>
<path d="M34.8958 30.3118H5.10417C4.78777 30.3118 4.53125 30.0553 4.53125 29.7389C4.53125 29.4225 4.78777 29.166 5.10417 29.166H34.8958C35.2122 29.166 35.4688 29.4225 35.4688 29.7389C35.4688 30.0553 35.2122 30.3118 34.8958 30.3118Z" fill="#353535" fill-opacity="0.85"/>
<path d="M32.3895 25.7292H29.3817C28.6314 25.7292 28.021 25.1188 28.021 24.3685V21.3607C28.021 20.6104 28.6314 20 29.3817 20H32.3895C33.1398 20 33.7502 20.6104 33.7502 21.3607V24.3685C33.7502 25.1188 33.1398 25.7292 32.3895 25.7292Z" fill="#EE3124"/>
<path d="M32.3894 20H30.6707C31.4212 20 32.0313 20.6102 32.0313 21.3607V24.3685C32.0313 25.119 31.4212 25.7292 30.6707 25.7292H32.3894C33.1399 25.7292 33.7501 25.119 33.7501 24.3685V21.3607C33.7501 20.6102 33.1399 20 32.3894 20Z" fill="#FFDE17"/>
<path d="M6.99273 25C7.20741 25 7.29487 24.9105 7.40618 24.6488L7.70832 23.9118H10.3401L10.6422 24.6419C10.7535 24.9036 10.8251 25 11.0636 25C11.2624 25 11.3816 24.8967 11.3816 24.759C11.3816 24.6281 11.3101 24.4766 11.2703 24.3871L9.56087 20.4201C9.43366 20.1171 9.27464 20 9.02816 20C8.77374 20 8.62267 20.1171 8.4875 20.4201L6.86552 24.1942C6.75421 24.4421 6.66675 24.6281 6.66675 24.759C6.66675 24.8967 6.78601 25 6.99273 25ZM7.93889 23.354L9.02021 20.7576H9.03611L10.1174 23.354H7.93889Z" fill="#0F3D91"/>
<path d="M14.1061 25C14.3208 25 14.4559 24.8623 14.4559 24.6488V20.6198H15.4975C15.6963 20.6198 15.8553 20.5028 15.8553 20.3375C15.8553 20.1722 15.6963 20.0551 15.4975 20.0551H12.7067C12.508 20.0551 12.3489 20.1722 12.3489 20.3375C12.3489 20.5028 12.508 20.6198 12.7067 20.6198H13.7483V24.6488C13.7483 24.8623 13.8755 25 14.1061 25Z" fill="#0F3D91"/>
<path d="M17.4736 25C17.6962 25 17.8075 24.8829 17.8552 24.6212L18.5072 20.854H18.5231L19.8589 24.6763C19.9225 24.8485 20.002 25 20.2326 25C20.4313 25 20.5347 24.9311 20.646 24.6281L21.95 20.8402H21.9659L22.6099 24.6143C22.6576 24.8554 22.7451 25 22.9995 25C23.2142 25 23.3334 24.876 23.3334 24.7176C23.3334 24.6763 23.3255 24.5868 23.2937 24.4421L22.586 20.4614C22.5304 20.1653 22.3237 20.0138 21.9579 20.0138C21.6717 20.0138 21.5286 20.1446 21.3934 20.5303L20.2405 23.905H20.2246L19.0876 20.5165C18.9525 20.1309 18.8173 20.0138 18.5152 20.0138C18.1335 20.0138 17.9348 20.1722 17.8871 20.4752L17.2351 24.1598C17.1635 24.511 17.1397 24.6763 17.1397 24.7176C17.1397 24.8829 17.2589 25 17.4736 25Z" fill="#0F3D91"/>
</g>
<defs>
<clipPath id="clip0_8459_13423">
<rect width="40" height="40" fill="white"/>
</clipPath>
</defs>
</svg>
