<svg width="40" height="40" viewBox="0 0 40 40" fill="none" xmlns="http://www.w3.org/2000/svg">
<g clip-path="url(#clip0_8459_3895)">
<path d="M38.684 20.3333C38.684 30.4704 30.4704 38.6666 20.3506 38.6666C10.2136 38.684 2 30.4704 2 20.3333C2 10.2136 10.2136 2 20.3333 2C30.4704 2 38.684 10.2136 38.684 20.3333Z" fill="#EE0033"/>
<path d="M18.3407 8.84375H15.8627C14.5631 8.84375 13.4888 9.90078 13.4888 11.2177V11.4603V11.8069V28.8926V29.2218V29.4644C13.4888 30.764 14.5458 31.8384 15.8627 31.8384H18.3407C18.6699 31.8384 18.9298 31.5785 18.9298 31.2492V29.4817C18.9298 29.1525 18.6699 28.8926 18.3407 28.8926H14.4938V11.8069H18.3407C18.6699 11.8069 18.9298 11.547 18.9298 11.2177V9.43291C18.9298 9.121 18.6699 8.84375 18.3407 8.84375Z" fill="white"/>
<path d="M24.8215 8.84375H22.3436C22.0143 8.84375 21.7544 9.10367 21.7544 9.43291V11.2004C21.7544 11.5296 22.0143 11.7896 22.3436 11.7896H26.1904V28.8752H22.3436C22.0143 28.8752 21.7544 29.1352 21.7544 29.4644V31.2319C21.7544 31.5611 22.0143 31.821 22.3436 31.821H24.8215C26.1211 31.821 27.1955 30.764 27.1955 29.4471V29.2911V28.8579V11.8069V11.3564V11.2177C27.1955 9.90078 26.1211 8.84375 24.8215 8.84375Z" fill="white"/>
</g>
<defs>
<clipPath id="clip0_8459_3895">
<rect width="40" height="40" fill="white"/>
</clipPath>
</defs>
</svg>
