<svg width="40" height="41" viewBox="0 0 40 41" fill="none" xmlns="http://www.w3.org/2000/svg">
<path d="M22.8004 9.55153C22.5626 9.30877 22.2607 9.18667 21.8935 9.18667C21.3538 9.18667 20.9599 9.44583 20.7121 9.96343C20.1829 9.34174 19.4597 9.03125 18.5428 9.03125C17.442 9.03125 16.5159 9.45617 15.7659 10.3053C15.0162 11.1546 14.6414 12.1907 14.6414 13.4129C14.6414 14.635 15.0162 15.6708 15.7659 16.5204C16.5159 17.3699 17.442 17.7943 18.5428 17.7943C19.4597 17.7943 20.1829 17.4838 20.7121 16.8618C20.9599 17.3801 21.3538 17.6387 21.8935 17.6387C22.2607 17.6387 22.5626 17.5173 22.8004 17.2737C23.0376 17.0309 23.1561 16.7329 23.1561 16.3803V10.445C23.1561 10.093 23.0376 9.79518 22.8004 9.55153ZM20.1698 14.8846C19.8619 15.2812 19.4379 15.4792 18.8987 15.4792C18.3587 15.4792 17.9354 15.2812 17.6279 14.8846C17.3206 14.4875 17.1666 13.9971 17.1666 13.4127C17.1666 12.8286 17.3206 12.3381 17.6279 11.9412C17.9354 11.5446 18.3587 11.3464 18.8987 11.3464C19.4379 11.3464 19.8619 11.5446 20.1698 11.9412C20.4774 12.3381 20.6312 12.8286 20.6312 13.4127C20.6312 13.9969 20.4774 14.4875 20.1698 14.8846Z" fill="#0FA8E0"/>
<path d="M26.0152 17.2734C25.7776 17.5171 25.4752 17.6383 25.1089 17.6383C24.7415 17.6383 24.4392 17.5171 24.202 17.2734C23.9642 17.0303 23.8457 16.7321 23.8457 16.3799V5.75836C23.8457 5.40634 23.9642 5.10815 24.202 4.86485C24.4392 4.62138 24.7415 4.5 25.1089 4.5C25.4752 4.5 25.7776 4.62138 26.0152 4.86485C26.2526 5.10815 26.3712 5.40634 26.3712 5.75836V16.3801C26.3712 16.7321 26.2526 17.0303 26.0152 17.2734Z" fill="#0FA8E0"/>
<path d="M34.3811 10.3053C33.5719 9.45617 32.5412 9.03125 31.2889 9.03125C30.0369 9.03125 29.0149 9.45082 28.2218 10.2898C27.4281 11.1287 27.0315 12.1697 27.0315 13.4127C27.0315 14.6555 27.4281 15.6964 28.2218 16.5356C29.0149 17.3746 30.0369 17.7943 31.2889 17.7943C32.5412 17.7943 33.5719 17.3697 34.3811 16.5204C35.1582 15.6915 35.5468 14.6557 35.5468 13.4129C35.5468 12.1697 35.1584 11.1341 34.3811 10.3053ZM32.5601 14.8846C32.2523 15.2812 31.8286 15.4792 31.2889 15.4792C30.749 15.4792 30.3257 15.2812 30.0184 14.8846C29.7106 14.4875 29.5568 13.9971 29.5568 13.4127C29.5568 12.8286 29.7106 12.3381 30.0184 11.9412C30.3257 11.5446 30.749 11.3464 31.2889 11.3464C31.8286 11.3464 32.2523 11.5446 32.5601 11.9412C32.8677 12.3381 33.021 12.8286 33.021 13.4127C33.021 13.9969 32.8679 14.4875 32.5601 14.8846Z" fill="#0FA8E0"/>
<path d="M13.2433 9.32383C14.1352 8.17277 14.5817 7.39726 14.5817 6.99819C14.5817 6.07492 14.0006 5.61328 12.8384 5.61328H6.70823C6.22663 5.61328 5.85411 5.72718 5.58979 5.95461C5.32582 6.18257 5.19357 6.47809 5.19357 6.84205C5.19357 7.20655 5.32582 7.50242 5.58979 7.73003C5.85411 7.95764 6.22663 8.07136 6.70823 8.07136H10.9184L5.5283 15.0356C5.1761 15.4914 5 15.8953 5 16.2482C5 17.2606 5.66946 17.7669 7.00785 17.7669H13.3312C14.3414 17.7669 14.8462 17.3429 14.8462 16.4949C14.8462 15.6472 14.3414 15.2231 13.3312 15.2231H8.68132L13.2433 9.32383Z" fill="#0FA8E0"/>
<path d="M12.2206 23.1992H10.5288V26.7157H12.2206C12.729 26.7157 13.1411 26.5497 13.4562 26.218C13.7713 25.8863 13.9289 25.4662 13.9289 24.9574C13.9289 24.449 13.7711 24.0286 13.4562 23.6969C13.1412 23.3652 12.7288 23.1992 12.2206 23.1992Z" fill="#32B34A"/>
<path d="M20.6611 26.5059C20.1241 26.5059 19.7031 26.7028 19.3973 27.0974C19.0916 27.4922 18.9385 27.9797 18.9385 28.5608C18.9385 29.142 19.0916 29.6298 19.3973 30.0248C19.7031 30.4189 20.1241 30.616 20.6611 30.616C21.1975 30.616 21.6192 30.4189 21.9252 30.0248C22.2314 29.6298 22.3842 29.142 22.3842 28.5608C22.3842 27.9797 22.2314 27.4922 21.9252 27.0974C21.6192 26.7026 21.1975 26.5059 20.6611 26.5059Z" fill="#32B34A"/>
<path d="M32.6124 18.1738H8.08569C7.26723 18.1738 6.604 18.8372 6.604 19.6555V34.0275C6.604 34.8458 7.26741 35.5092 8.08569 35.5092H27.4478C27.2436 35.3157 27.1411 35.0891 27.1411 34.8294C27.1411 34.6175 27.1887 34.3951 27.2838 34.1625L28.1971 32.1314L25.6719 25.8261C25.5977 25.6463 25.5608 25.4504 25.5608 25.2385C25.5608 24.9633 25.6772 24.7301 25.9102 24.5396C26.1431 24.349 26.3866 24.2539 26.6409 24.2539C27.2019 24.2539 27.5833 24.5237 27.7845 25.0638L29.3566 29.3679L31.0402 25.0638C31.252 24.5237 31.6328 24.2539 32.1838 24.2539C32.4378 24.2539 32.6812 24.349 32.9144 24.5396C33.147 24.7301 33.2639 24.9633 33.2639 25.2385C33.2639 25.4504 33.2265 25.6463 33.1525 25.8261L29.4124 34.9087C29.3101 35.1625 29.1867 35.3624 29.0432 35.5092H32.6126C33.4309 35.5092 34.0943 34.8458 34.0943 34.0275V19.6555C34.094 18.8372 33.4307 18.1738 32.6124 18.1738ZM15.289 27.8436C14.5147 28.5514 13.5417 28.9052 12.3698 28.9052H10.5288V31.6252C10.5288 32.0347 10.4126 32.3525 10.1803 32.5788C9.9481 32.8057 9.64937 32.9189 9.28506 32.9189C8.91985 32.9189 8.6213 32.8057 8.38923 32.5788C8.15681 32.3525 8.04096 32.0347 8.04096 31.6252V22.3038C8.04096 21.4413 8.47211 21.0099 9.33461 21.0099H12.2707C13.4979 21.0099 14.5122 21.3778 15.3143 22.1129C16.1157 22.8485 16.5165 23.8022 16.5165 24.9741C16.5162 26.1574 16.1069 27.1135 15.289 27.8436ZM24.8956 31.5128C24.8956 31.8632 24.7776 32.1594 24.5418 32.4011C24.3053 32.6433 24.0048 32.7642 23.64 32.7642C23.1029 32.7642 22.7112 32.5072 22.4648 31.9913C21.9383 32.61 21.2191 32.9187 20.3071 32.9187C19.2124 32.9187 18.2914 32.4968 17.5457 31.6518C16.7997 30.8071 16.427 29.7766 16.427 28.561C16.427 27.3458 16.7999 26.3152 17.5457 25.4707C18.2916 24.6262 19.2125 24.2036 20.3071 24.2036C21.2191 24.2036 21.9383 24.5123 22.4648 25.1306C22.7112 24.6159 23.1029 24.3581 23.64 24.3581C24.0048 24.3581 24.3051 24.4795 24.5418 24.721C24.7776 24.9636 24.8956 25.2597 24.8956 25.6097V31.5128Z" fill="#32B34A"/>
</svg>
