<svg width="41" height="40" viewBox="0 0 41 40" fill="none" xmlns="http://www.w3.org/2000/svg">
<g clip-path="url(#clip0_8226_80791)">
<path fill-rule="evenodd" clip-rule="evenodd" d="M20.5 40C31.5457 40 40.5 31.0457 40.5 20C40.5 8.9543 31.5457 0 20.5 0C9.4543 0 0.5 8.9543 0.5 20C0.5 31.0457 9.4543 40 20.5 40ZM17.5 29.1875C17.5 30.0188 17.7906 30.7281 18.3719 31.3156C18.9594 31.8969 19.6688 32.1875 20.5 32.1875C21.3312 32.1875 22.0375 31.8969 22.6187 31.3156C23.2063 30.7281 23.5 30.0188 23.5 29.1875C23.5 28.3563 23.2063 27.65 22.6187 27.0688C22.0375 26.4813 21.3312 26.1875 20.5 26.1875C19.6688 26.1875 18.9594 26.4813 18.3719 27.0688C17.7906 27.65 17.5 28.3563 17.5 29.1875ZM20.5 8C19.6688 8 18.9594 8.29375 18.3719 8.88125C17.7906 9.4625 17.5 10.1687 17.5 11C17.5 12.325 17.7344 14.1781 18.2031 16.5594C18.6719 18.9344 19.175 21.0813 19.7125 23H21.2875C21.825 21.0813 22.3281 18.9344 22.7969 16.5594C23.2656 14.1781 23.5 12.325 23.5 11C23.5 10.1687 23.2063 9.4625 22.6187 8.88125C22.0375 8.29375 21.3312 8 20.5 8Z" fill="#FBB21B"/>
</g>
<defs>
<clipPath id="clip0_8226_80791">
<rect width="40" height="40" fill="white" transform="translate(0.5)"/>
</clipPath>
</defs>
</svg>
