<svg width="41" height="40" viewBox="0 0 41 40" fill="none" xmlns="http://www.w3.org/2000/svg">
<g clip-path="url(#clip0_8226_81094)">
<path fill-rule="evenodd" clip-rule="evenodd" d="M20.5 38C30.4411 38 38.5 29.9411 38.5 20C38.5 10.0589 30.4411 2 20.5 2C10.5589 2 2.5 10.0589 2.5 20C2.5 29.9411 10.5589 38 20.5 38ZM20.5 40C31.5457 40 40.5 31.0457 40.5 20C40.5 8.9543 31.5457 0 20.5 0C9.4543 0 0.5 8.9543 0.5 20C0.5 31.0457 9.4543 40 20.5 40Z" fill="#0158A9"/>
<path d="M31.0626 11.666H9.93762C8.8693 11.666 8 12.5353 8 13.6036V14.8986V17.6892V26.0794C8 27.1477 8.8693 28.0167 9.93762 28.0167H31.0626C32.131 28.0167 33 27.1477 33 26.0794V17.6892V14.8986V13.6036C33 12.5353 32.131 11.666 31.0626 11.666ZM8.80439 13.6036C8.80466 12.9787 9.31267 12.4707 9.93735 12.4707H31.0624C31.6871 12.4707 32.1951 12.979 32.1951 13.6036V14.4963H8.80439V13.6036ZM32.1953 26.0791C32.1953 26.7035 31.6871 27.2118 31.0626 27.2118H9.93762C9.31294 27.2118 8.80466 26.7035 8.80466 26.0791V18.0912H32.1953V26.0791ZM32.1953 17.2866H8.80466V15.3007H32.1953V17.2866Z" fill="#0158A9" stroke="#0158A9" stroke-width="0.5"/>
<path d="M11.8889 25.6254C12.6627 25.6254 13.2919 24.9964 13.2919 24.2234C13.2919 23.4498 12.6627 22.8203 11.8889 22.8203C11.1156 22.8203 10.4863 23.4498 10.4863 24.2234C10.4863 24.9964 11.1156 25.6254 11.8889 25.6254ZM11.8889 23.625C12.2188 23.625 12.4873 23.8935 12.4873 24.2234C12.4873 24.5527 12.2188 24.8207 11.8889 24.8207C11.5592 24.8207 11.291 24.5527 11.291 24.2234C11.291 23.8935 11.5592 23.625 11.8889 23.625Z" fill="#0158A9" stroke="#0158A9" stroke-width="0.5"/>
<path d="M14.8887 24.6738H26.2247C26.4471 24.6738 26.627 24.4938 26.627 24.2715C26.627 24.0491 26.4471 23.8691 26.2247 23.8691H14.8887C14.6663 23.8691 14.4863 24.0491 14.4863 24.2715C14.4863 24.4938 14.6663 24.6738 14.8887 24.6738Z" fill="#0158A9" stroke="#0158A9" stroke-width="0.5"/>
<rect x="8.83301" y="15" width="23.3333" height="2.5" fill="#0158A9"/>
</g>
<defs>
<clipPath id="clip0_8226_81094">
<rect width="40" height="40" fill="white" transform="translate(0.5)"/>
</clipPath>
</defs>
</svg>
