<svg width="41" height="40" viewBox="0 0 41 40" fill="none" xmlns="http://www.w3.org/2000/svg">
<g clip-path="url(#clip0_8165_81419)">
<path d="M34.6485 5.85157C26.8464 -1.95052 14.1537 -1.95052 6.35157 5.85157C-1.45052 13.6519 -1.45052 26.348 6.35157 34.1485C10.2518 38.0503 15.3759 39.9996 20.5 39.9996C25.6241 39.9996 30.7465 38.0503 34.6484 34.1485C42.4505 26.348 42.4505 13.6519 34.6485 5.85157ZM31.6837 14.509L20.0115 26.1813C19.6863 26.5065 19.2595 26.6699 18.8325 26.6699C18.4057 26.6699 17.9788 26.5065 17.6536 26.1813L10.9838 19.5115C10.3318 18.8595 10.3318 17.8056 10.9838 17.1537C11.6357 16.5017 12.6896 16.5017 13.3416 17.1537L18.8325 22.6447L29.3259 12.1513C29.9779 11.4993 31.0317 11.4993 31.6837 12.1513C32.3356 12.8032 32.3356 13.857 31.6837 14.509Z" fill="#1AA260"/>
</g>
<defs>
<clipPath id="clip0_8165_81419">
<rect width="40" height="40" fill="white" transform="translate(0.5)"/>
</clipPath>
</defs>
</svg>
