<svg width="41" height="40" viewBox="0 0 41 40" fill="none" xmlns="http://www.w3.org/2000/svg">
<g clip-path="url(#clip0_8226_80490)">
<path fill-rule="evenodd" clip-rule="evenodd" d="M20.5 40C31.5457 40 40.5 31.0457 40.5 20C40.5 8.9543 31.5457 0 20.5 0C9.4543 0 0.5 8.9543 0.5 20C0.5 31.0457 9.4543 40 20.5 40ZM14.0001 12.5979C14.3934 12.2354 15.0024 12.2466 15.3822 12.6234L20.5 17.7022L25.6178 12.6234C25.8051 12.4376 26.0583 12.3333 26.3222 12.3333C26.5826 12.3333 26.773 12.4381 26.7996 12.4528L26.802 12.4541C26.8614 12.4858 26.9068 12.5174 26.9302 12.5342C26.9801 12.5701 27.0236 12.607 27.0528 12.6325C27.1156 12.6874 27.1881 12.7565 27.2647 12.8324C27.4212 12.9874 27.6353 13.2106 27.902 13.5C28.2645 13.8934 28.2533 14.5024 27.8765 14.8821L22.7977 19.9999L27.8765 25.1177C28.0623 25.3051 28.1666 25.5583 28.1666 25.8221C28.1666 26.0825 28.0617 26.2729 28.0471 26.2995L28.0458 26.3019C28.0141 26.3613 27.9825 26.4068 27.9657 26.4302C27.9298 26.48 27.8929 26.5235 27.8674 26.5528C27.8125 26.6155 27.7434 26.688 27.6675 26.7646C27.5125 26.9212 27.2893 27.1352 26.9999 27.4019C26.6065 27.7645 25.9975 27.7532 25.6178 27.3764L20.5 22.2976L15.3822 27.3764C15.1948 27.5623 14.9416 27.6666 14.6778 27.6666C14.4174 27.6666 14.227 27.5617 14.2004 27.547L14.198 27.5457C14.1386 27.514 14.0931 27.4824 14.0697 27.4656C14.0199 27.4298 13.9764 27.3929 13.9471 27.3673C13.8844 27.3124 13.8119 27.2433 13.7353 27.1674C13.5787 27.0125 13.3647 26.7892 13.098 26.4998C12.7354 26.1065 12.7467 25.4975 13.1235 25.1177L18.2023 19.9999L13.1235 14.8821C12.9376 14.6948 12.8333 14.4416 12.8333 14.1777C12.8333 13.9173 12.9382 13.7269 12.9529 13.7003L12.9542 13.6979C12.9859 13.6385 13.0175 13.5931 13.0343 13.5697C13.0701 13.5198 13.107 13.4763 13.1326 13.4471C13.1875 13.3843 13.2566 13.3118 13.3325 13.2352C13.4874 13.0787 13.7107 12.8646 14.0001 12.5979Z" fill="#DB0D0D"/>
</g>
<defs>
<clipPath id="clip0_8226_80490">
<rect width="40" height="40" fill="white" transform="translate(0.5)"/>
</clipPath>
</defs>
</svg>
